<?xml version="1.0" encoding="UTF-8" standalone="no"?>
<!-- Generator: Adobe Illustrator 25.2.1, SVG Export Plug-In . SVG Version: 6.00 Build 0)  -->

<svg
   xmlns:dc="http://purl.org/dc/elements/1.1/"
   xmlns:cc="http://creativecommons.org/ns#"
   xmlns:rdf="http://www.w3.org/1999/02/22-rdf-syntax-ns#"
   xmlns:svg="http://www.w3.org/2000/svg"
   xmlns="http://www.w3.org/2000/svg"
   xmlns:sodipodi="http://sodipodi.sourceforge.net/DTD/sodipodi-0.dtd"
   xmlns:inkscape="http://www.inkscape.org/namespaces/inkscape"
   version="1.1"
   id="Calque_1"
   x="0px"
   y="0px"
   viewBox="0 0 841.89 595.28"
   style="enable-background:new 0 0 841.89 595.28;"
   xml:space="preserve"
   sodipodi:docname="logo Waycom groupe adista -fond-clair.svg"
   inkscape:version="0.92.5 (2060ec1f9f, 2020-04-08)"><metadata
   id="metadata87"><rdf:RDF><cc:Work
       rdf:about=""><dc:format>image/svg+xml</dc:format><dc:type
         rdf:resource="http://purl.org/dc/dcmitype/StillImage" /><dc:title></dc:title></cc:Work></rdf:RDF></metadata><defs
   id="defs85" /><sodipodi:namedview
   pagecolor="#ffffff"
   bordercolor="#666666"
   borderopacity="1"
   objecttolerance="10"
   gridtolerance="10"
   guidetolerance="10"
   inkscape:pageopacity="0"
   inkscape:pageshadow="2"
   inkscape:window-width="640"
   inkscape:window-height="480"
   id="namedview83"
   showgrid="false"
   inkscape:zoom="0.39645207"
   inkscape:cx="420.94501"
   inkscape:cy="297.64001"
   inkscape:window-x="56"
   inkscape:window-y="27"
   inkscape:window-maximized="0"
   inkscape:current-layer="Calque_1" />
<style
   type="text/css"
   id="style2">
	.st0{fill:#575756;}
	.st1{fill:#B2CB07;}
	.st2{fill:url(#SVGID_1_);}
	.st3{fill:url(#SVGID_2_);}
	.st4{fill:#525460;}
	.st5{font-family:'NeoSansStd-Medium';}
	.st6{font-size:38px;}
	.st7{fill:#94A423;}
	.st8{fill:#F5BB33;}
	.st9{fill:#0188B7;}
	.st10{fill:#51555F;}
	.st11{fill:#E50046;}
</style>
<g
   id="g54">
	<g
   id="g50">
		<g
   id="g46">
			<g
   id="g44">
				<g
   id="g14">
					<g
   id="g12">
						<g
   id="g6">
							<path
   class="st0"
   d="M567.88,230.41c-1.82,0-3.73,0.13-5.67,0.39c-6.07,0.8-11.1,3.47-14.96,7.91         c-2.38,2.68-4.14,6.06-5.25,10.05c-1.13,4.06-1.7,8.16-1.7,12.21c0,4.96,0.68,9.8,2.04,14.37c1.33,4.52,3.57,8.16,6.67,10.82         c2.96,2.66,7,4.58,11.99,5.71c5.01,1.11,10.03,1,14.93-0.34c5.51-1.19,10.08-4.27,13.63-9.16c1.63-2.37,2.99-5.31,4.03-8.74         c1.05-3.46,1.58-7.64,1.58-12.43c0-6.59-1.29-12.43-3.83-17.36c-2.67-5.49-6.87-9.39-12.5-11.61         C575.5,231.03,571.81,230.41,567.88,230.41z M567.77,281.05c-1.36,0-2.72-0.25-4.06-0.74c-2.39-0.87-4.11-1.99-5.12-3.32         c-2.36-2.82-3.73-7.86-4.04-14.95c-0.31-7.11,1.22-12.55,4.53-16.19c1.16-1.17,2.96-2.12,5.35-2.84         c2.42-0.71,4.87-0.67,7.29,0.13c2.43,0.81,4.6,2.68,6.43,5.55c1.82,2.85,2.75,7.14,2.75,12.74         c-0.16,6.25-1.21,10.85-3.1,13.69c-1.93,2.88-4.17,4.71-6.69,5.43C570.01,280.89,568.88,281.05,567.77,281.05z"
   id="path4" />
						</g>
						<g
   id="g10">
							<path
   class="st1"
   d="M666.89,241.96c2.88,0,5.52,0.89,7.86,2.65c2.38,1.82,3.6,4.71,3.6,8.58v31.19         c0,2.14,0.65,3.81,1.98,5.13c1.33,1.34,3.02,1.99,5.15,1.99h7.35v-35.12c0-10.4-2.75-17.39-8.17-20.76         c-5.52-3.44-11.65-5.18-18.23-5.18c-3.28,0.16-6.52,0.65-9.58,1.47c-3.01,0.81-5.66,2.19-7.87,4.1l-0.44,0.37l-0.44-0.37         c-2.65-2.21-5.64-3.71-8.9-4.45c-3.33-0.75-6.75-1.13-10.17-1.13c-6.41,0.31-12.35,2.2-17.64,5.63         c-5.2,3.37-7.84,10.2-7.84,20.31v35.12h14.71v-38.32c0-3.87,1.17-6.76,3.47-8.57c2.25-1.77,4.86-2.66,7.75-2.66         c2.88,0,5.53,0.89,7.86,2.65c2.38,1.82,3.59,4.71,3.59,8.58v38.32h14.49v-38.32c0-3.87,1.21-6.76,3.59-8.58         C661.35,242.85,664,241.96,666.89,241.96z"
   id="path8" />
						</g>
					</g>
				</g>
				<g
   id="g42">
					<g
   id="g27">
						<g
   id="g25">
							<path
   class="st0"
   d="M282.54,293.16c-13.3,0-26.59-5.71-36.71-17.14l-41.73-47.09c-7.32-8.25-7.32-21.64-0.01-29.89         c7.32-8.26,19.18-8.26,26.48-0.01l41.73,47.1c5.64,6.37,14.81,6.36,20.45,0l41.73-47.1c7.31-8.25,19.17-8.25,26.49,0.01         c7.31,8.25,7.31,21.64,0,29.89l-41.73,47.09C309.13,287.45,295.84,293.16,282.54,293.16z"
   id="path16" />
							<radialGradient
   id="SVGID_1_"
   cx="292.9105"
   cy="243.0068"
   r="62.9562"
   gradientUnits="userSpaceOnUse">
								<stop
   offset="0"
   style="stop-color:#DEDC00"
   id="stop18" />
								<stop
   offset="1"
   style="stop-color:#95C11F"
   id="stop20" />
							</radialGradient>
							<path
   class="st2"
   d="M360.99,199.04c-7.3-8.24-19.13-8.25-26.44-0.05c-0.02,0.02-0.03,0.03-0.04,0.05l-41.73,47.1         c-10.13,11.42-23.41,17.13-36.71,17.13c-13.3,0-26.59-5.72-36.71-17.14l26.48,29.88c10.12,11.43,23.41,17.14,36.71,17.14         c13.3,0,26.59-5.71,36.71-17.13l41.73-47.09C368.3,220.68,368.3,207.3,360.99,199.04z"
   id="path23" />
						</g>
					</g>
					<g
   id="g40">
						<g
   id="g38">
							<path
   class="st0"
   d="M203.75,293.16c-13.3,0-26.59-5.71-36.71-17.14l-41.73-47.09c-7.32-8.25-7.32-21.64-0.01-29.89         c7.32-8.26,19.18-8.26,26.49-0.01l41.73,47.1c5.64,6.37,14.81,6.36,20.45,0l41.73-47.1c7.32-8.25,19.18-8.25,26.49,0.01         c7.32,8.25,7.32,21.64,0,29.89l-41.73,47.09C230.33,287.45,217.05,293.16,203.75,293.16z"
   id="path29" />
							<radialGradient
   id="SVGID_2_"
   cx="214.1173"
   cy="243.0068"
   r="62.9558"
   gradientUnits="userSpaceOnUse">
								<stop
   offset="0"
   style="stop-color:#DEDC00"
   id="stop31" />
								<stop
   offset="1"
   style="stop-color:#95C11F"
   id="stop33" />
							</radialGradient>
							<path
   class="st3"
   d="M282.19,199.04c-7.3-8.24-19.12-8.25-26.44-0.05c-0.02,0.02-0.03,0.03-0.05,0.05l-41.73,47.1         c-10.12,11.42-23.41,17.13-36.71,17.13c-13.3,0-26.59-5.72-36.71-17.14l26.49,29.88c10.12,11.43,23.41,17.14,36.71,17.14         c13.3,0,26.58-5.71,36.71-17.13l41.73-47.09C289.51,220.68,289.51,207.3,282.19,199.04z"
   id="path36" />
						</g>
					</g>
				</g>
			</g>
		</g>
		<path
   class="st0"
   d="M466.29,231.83c-3.66,0-5.85,1.63-6.69,5l-11.43,39.91l-12.9-44.9h-16.21l21.02,59.9    c1.16,3.49,0.74,6.09-1.24,7.74c-1.87,1.55-4.45,2.33-7.66,2.33h-3.68l-0.03,11.7l6.01,0.03c6.11,0,10.54-0.89,13.16-2.63    c2.6-2.03,4.84-5.56,6.63-10.46l23.09-68.61H466.29z"
   id="path48" />
	</g>
	<path
   class="st0"
   d="M522.5,274.04c-1.66,0-2.91,0.34-3.7,1c-0.5,0.42-0.85,0.74-1.11,1.01l0-0.02c0,0-2.12,2.48-5.17,3.7   c-0.18,0.07-0.35,0.15-0.54,0.21c-0.44,0.15-0.89,0.27-1.36,0.35c-0.12,0.02-0.13,0.05-0.23,0.07c-0.96,0.18-1.94,0.34-3.03,0.34   c-4.18,0-7.36-1.32-9.48-3.92c-2.82-2.98-4.27-8.15-4.27-15.34c0-7.16,1.45-12.4,4.3-15.58c2.28-2.3,5.22-3.45,8.76-3.45   c3.85,0,6.87,1.16,8.99,3.44c0.74,0.73,1.47,1.79,2.21,3.22h14.76c-1.22-3.98-3.1-7.54-5.59-10.6c-4.86-5.31-11.88-8.02-20.81-8.02   c-8.47,0-15.17,2.78-19.9,8.26c-4.62,5.35-6.95,12.92-6.95,22.5c0,10.04,2.41,17.83,7.18,23.18c4.74,5.49,11.43,8.27,19.91,8.27   c7.01,0,12.9-1.73,17.5-5.14c4.39-3.11,7.45-7.64,9.15-13.48H522.5z"
   id="path52" />
</g>
<path
   class="st0"
   d="M408.77,234.69c-4.16-2.81-10.52-4.24-18.89-4.24c-7.45,0-13.24,1.72-17.23,5.12  c-3.33,2.78-5.37,6.31-6.08,10.51h14.17c0.85-1.64,2.14-2.78,3.86-3.4c1.75-0.63,3.76-0.96,5.97-0.96c2.03,0,4.29,0.36,6.72,1.06  c2.65,0.77,4.05,2.53,4.05,5.11c0,0.28-0.06,0.54-0.11,0.8c-1.1,3.7-4.38,4.28-8.33,5.13c-3.4,0.72-9.1,1.77-9.1,1.77l-1.57,0.27  c-4.73,0.97-8.82,2.61-12.03,4.96c-3.55,2.61-5.34,7.06-5.34,13.24c0,6.62,1.99,11.42,5.92,14.24c4,2.88,8.72,4.35,14.05,4.35  c2.65,0,5.74-0.18,9.45-0.57c3.5-0.38,6.85-1.4,9.97-3.03c2.95-1.47,5.52-3.9,7.65-7.22c2.14-3.32,3.22-8.02,3.22-13.97v-20.88  C415.13,241.67,413.06,237.65,408.77,234.69z M401.57,267.17c0,4.46-1.3,8.01-3.87,10.57c-2.57,2.57-6.12,3.87-10.57,3.87  c-2.76,0-4.92-0.67-6.41-2c-1.53-1.53-2.29-3.54-2.29-6.02c0-1.49,0.48-2.98,1.26-4.45c0.52-0.78,1.53-1.96,3.23-2.88  c1.02-0.51,2.2-0.95,3.58-1.33l5.31-1.16c3.73-0.89,6.69-1.88,8.79-2.94l0.97-0.49V267.17z"
   id="path56" />
<text
   transform="matrix(1 0 0 1 446.9536 382.061)"
   class="st4 st5 st6"
   id="text58">Groupe</text>

<g
   id="g80">
	<path
   class="st7"
   d="M613.82,338.02c-1,3.15,6.99,9.29,12.85,13.41c-10.26-4.18-24.46-12.26-23.62-15.73   c0.7-2.86,11.42-1.79,21.08,0.34C620.06,335.81,614.46,335.98,613.82,338.02L613.82,338.02z"
   id="path60" />
	<path
   class="st8"
   d="M637.24,327c-4.5,2.92-4.17,15.44-2.99,24.42c-5.45-12.23-10.42-31.81-5.7-35.2   c3.88-2.79,13.27,6.17,20.4,15.61C645.19,328.64,640.15,325.12,637.24,327L637.24,327z"
   id="path62" />
	<path
   class="st9"
   d="M678.61,328.04c-8.84-2.05-25.84,12.96-36.8,23.38c10.78-18.47,32.09-43.86,41.8-42.04   c8,1.49,5.92,21.03,0.77,38.54C684.66,340.49,684.31,329.37,678.61,328.04L678.61,328.04z"
   id="path64" />
	<path
   class="st10"
   d="M595.64,361.08c-0.11-0.41-0.22-0.55-0.6-0.55c-0.37,0-0.49,0.14-0.6,0.55l-2.7,10.26h6.6L595.64,361.08   L595.64,361.08z M605.77,382.42h-3.97c-0.34,0-0.64-0.28-0.71-0.59l-1.72-6.56h-8.62l-1.73,6.56c-0.07,0.31-0.37,0.59-0.71,0.59   h-3.97c-0.38,0-0.68-0.24-0.68-0.59c0-0.03,0.04-0.1,0.04-0.17l6.15-21.65c0.9-3.21,3.6-3.52,5.21-3.52c1.61,0,4.31,0.31,5.21,3.52   l6.15,21.65c0,0.07,0.04,0.14,0.04,0.17C606.44,382.18,606.14,382.42,605.77,382.42L605.77,382.42z"
   id="path66" />
	<path
   class="st10"
   d="M621.4,366.68c-1.05-0.14-2.7-0.24-3.6-0.24c-3.23,0-4.01,2.11-4.01,4.94v2.66c0,2.83,0.79,4.94,4.01,4.94   c1.35,0,2.89-0.1,3.6-0.24V366.68L621.4,366.68z M625.34,381.8c-2.33,0.55-5.14,0.9-7.54,0.9c-6.04,0-8.96-3.28-8.96-8.67v-2.66   c0-5.39,2.92-8.67,8.96-8.67c0.9,0,2.21,0.07,3.6,0.24v-6.11c0-0.38,0.34-0.69,0.75-0.69h3.45c0.41,0,0.75,0.31,0.75,0.69v24.03   C626.35,381.39,626.2,381.6,625.34,381.8L625.34,381.8z"
   id="path68" />
	<path
   class="st10"
   d="M648.13,382.7c-1.46,0-4.61-0.17-6.71-0.69c-0.45-0.1-0.71-0.38-0.71-0.79v-2.07c0-0.28,0.26-0.55,0.64-0.55   c0.08,0,0.11,0,0.15,0c1.8,0.21,5.17,0.38,6.3,0.38c2.32,0,2.66-0.73,2.66-1.66c0-0.66-0.45-1.07-1.65-1.76l-5.14-2.9   c-1.84-1.04-3.15-2.76-3.15-4.77c0-3.45,2.36-5.18,7.12-5.18c3.04,0,4.76,0.31,6.68,0.69c0.45,0.1,0.67,0.38,0.67,0.79v2   c0,0.41-0.23,0.66-0.6,0.66c-0.07,0-0.11,0-0.15,0c-1.05-0.14-4.05-0.41-6.19-0.41c-1.8,0-2.59,0.38-2.59,1.45   c0,0.55,0.56,0.9,1.5,1.42l4.91,2.76c3.15,1.76,3.6,3.49,3.6,5.25C655.48,380.32,653.04,382.7,648.13,382.7L648.13,382.7z"
   id="path70" />
	<path
   class="st10"
   d="M670.33,382.46c-0.9,0.14-1.73,0.24-2.55,0.24c-4.24,0-5.96-0.86-5.96-5.49v-10.84l-3.52-0.48   c-0.41-0.07-0.75-0.31-0.75-0.69v-1.55c0-0.38,0.34-0.69,0.75-0.69h3.52v-2.83c0-0.38,0.34-0.62,0.75-0.69l3.49-0.55   c0.04,0,0.11,0,0.15,0c0.34,0,0.6,0.17,0.6,0.52v3.56h3.38c0.41,0,0.75,0.31,0.75,0.69v2.04c0,0.38-0.34,0.69-0.75,0.69h-3.38   v10.84c0,1.73,0.11,1.93,1.46,1.93h1.99c0.49,0,0.79,0.17,0.79,0.52v2.18C671.04,382.18,670.82,382.39,670.33,382.46L670.33,382.46   z"
   id="path72" />
	<path
   class="st10"
   d="M685.14,373.86h-2.36c-3.41,0-4.16,1-4.16,2.93v0.14c0,1.69,0.83,2.14,2.7,2.14c1.35,0,2.74-0.41,3.83-0.97   V373.86L685.14,373.86z M689.34,382.42h-3.19c-0.41,0-0.75-0.31-0.75-0.69v-0.55c-1.72,0.97-3.49,1.52-5.29,1.52   c-3.11,0-6.49-1.11-6.49-5.77v-0.14c0-3.94,2.62-5.97,9.15-5.97h2.36v-1.52c0-2.24-1.09-2.8-3.3-2.8c-2.4,0-4.87,0.14-6.11,0.28   c-0.08,0-0.15,0-0.19,0c-0.37,0-0.67-0.1-0.67-0.59v-2.21c0-0.38,0.22-0.62,0.71-0.73c1.5-0.28,3.67-0.55,6.26-0.55   c5.32,0,8.25,2.18,8.25,6.6v12.43C690.09,382.11,689.75,382.42,689.34,382.42L689.34,382.42z"
   id="path74" />
	<path
   class="st10"
   d="M635.53,362.95h-3.45c-0.41,0-0.75,0.31-0.75,0.69v18.06c0,0.38,0.34,0.72,0.75,0.72h3.45   c0.41,0,0.75-0.35,0.75-0.72v-18.06C636.28,363.26,635.95,362.95,635.53,362.95L635.53,362.95z"
   id="path76" />
	<path
   class="st11"
   d="M635.51,355.94h-3.64c-0.41,0-0.79,0.31-0.79,0.69v3.04c0,0.38,0.37,0.69,0.79,0.69h3.64   c0.41,0,0.75-0.31,0.75-0.69v-3.04C636.26,356.25,635.92,355.94,635.51,355.94L635.51,355.94z"
   id="path78" />
</g>
</svg>