<svg height="192" viewBox="0 0 577 192" width="577" xmlns="http://www.w3.org/2000/svg" xmlns:xlink="http://www.w3.org/1999/xlink"><linearGradient id="a"><stop offset="0" stop-color="#dedc00"/><stop offset="1" stop-color="#95c11f"/></linearGradient><radialGradient id="b" cx="174.911" cy="52.007" gradientUnits="userSpaceOnUse" r="62.956" xlink:href="#a"/><radialGradient id="c" cx="96.117" cy="52.007" gradientUnits="userSpaceOnUse" r="62.956" xlink:href="#a"/><path d="m460.84 41.23c5.63 2.22 9.83 6.12 12.5 11.61 2.54 4.93 3.83 10.77 3.83 17.36 0 4.79-.53 8.97-1.58 12.43-1.04 3.43-2.4 6.37-4.03 8.74-3.55 4.89-8.12 7.97-13.63 9.16-4.9 1.34-9.92 1.45-14.93.34-4.99-1.13-9.03-3.05-11.99-5.71-3.1-2.66-5.34-6.3-6.67-10.82-1.36-4.57-2.04-9.41-2.04-14.37 0-4.05.57-8.15 1.7-12.21 1.11-3.99 2.87-7.37 5.25-10.05 3.86-4.44 8.89-7.11 14.96-7.91 1.94-.26 3.85-.39 5.67-.39 3.93 0 7.62.62 10.96 1.82zm-7.73 48.32c2.52-.72 4.76-2.55 6.69-5.43 1.89-2.84 2.94-7.44 3.1-13.69 0-5.6-.93-9.89-2.75-12.74-1.83-2.87-4-4.74-6.43-5.55-2.42-.8-4.87-.84-7.29-.13-2.39.72-4.19 1.67-5.35 2.84-3.31 3.64-4.84 9.08-4.53 16.19.31 7.09 1.68 12.13 4.04 14.95 1.01 1.33 2.73 2.45 5.12 3.32 1.34.49 2.7.74 4.06.74 1.11 0 2.24-.16 3.34-.5z" fill="#575756" fill-rule="evenodd"/><path d="m548.89 50.96c2.88 0 5.52.89 7.86 2.65 2.38 1.82 3.6 4.71 3.6 8.58v31.19c0 2.14.65 3.81 1.98 5.13 1.33 1.34 3.02 1.99 5.15 1.99h7.35v-35.12c0-10.4-2.75-17.39-8.17-20.76-5.52-3.44-11.65-5.18-18.23-5.18-3.28.16-6.52.65-9.58 1.47-3.01.81-5.66 2.19-7.87 4.1l-.44.37-.44-.37c-2.65-2.21-5.64-3.71-8.9-4.45-3.33-.75-6.75-1.13-10.17-1.13-6.41.31-12.35 2.2-17.64 5.63-5.2 3.37-7.84 10.2-7.84 20.31v35.12h14.71v-38.32c0-3.87 1.17-6.76 3.47-8.57 2.25-1.77 4.86-2.66 7.75-2.66 2.88 0 5.53.89 7.86 2.65 2.38 1.82 3.59 4.71 3.59 8.58v38.32h14.49v-38.32c0-3.87 1.21-6.76 3.59-8.58 2.34-1.74 4.99-2.63 7.88-2.63z" fill="#b2cb07"/><path d="m164.54 102.16c-13.3 0-26.59-5.71-36.71-17.14l-41.73-47.09c-7.32-8.25-7.32-21.64-.01-29.89 7.32-8.26 19.18-8.26 26.48-.01l41.73 47.1c5.64 6.37 14.81 6.36 20.45 0l41.73-47.1c7.31-8.25 19.17-8.25 26.49.01 7.31 8.25 7.31 21.64 0 29.89l-41.73 47.09c-10.11 11.43-23.4 17.14-36.7 17.14z" fill="#575756"/><path d="m242.99 8.04c-7.3-8.24-19.13-8.25-26.44-.05-.02.02-.03.03-.04.05l-41.73 47.1c-10.13 11.42-23.41 17.13-36.71 17.13s-26.59-5.72-36.71-17.14l26.48 29.88c10.12 11.43 23.41 17.14 36.71 17.14s26.59-5.71 36.71-17.13l41.73-47.09c7.31-8.25 7.31-21.63 0-29.89z" fill="url(#b)"/><path d="m85.75 102.16c-13.3 0-26.59-5.71-36.71-17.14l-41.73-47.09c-7.32-8.25-7.32-21.64-.01-29.89 7.32-8.26 19.18-8.26 26.49-.01l41.73 47.1c5.64 6.37 14.81 6.36 20.45 0l41.73-47.1c7.32-8.25 19.18-8.25 26.49.01 7.32 8.25 7.32 21.64 0 29.89l-41.73 47.09c-10.13 11.43-23.41 17.14-36.71 17.14z" fill="#575756"/><path d="m164.19 8.04c-7.3-8.24-19.12-8.25-26.44-.05-.02.02-.03.03-.05.05l-41.73 47.1c-10.12 11.42-23.41 17.13-36.71 17.13s-26.59-5.72-36.71-17.14l26.49 29.88c10.12 11.43 23.41 17.14 36.71 17.14s26.58-5.71 36.71-17.13l41.73-47.09c7.32-8.25 7.32-21.63 0-29.89z" fill="url(#c)"/><path d="m348.29 40.83c-3.66 0-5.85 1.63-6.69 5l-11.43 39.91-12.9-44.9h-16.21l21.02 59.9c1.16 3.49.74 6.09-1.24 7.74-1.87 1.55-4.45 2.33-7.66 2.33h-3.68l-.03 11.7 6.01.03c6.11 0 10.54-.89 13.16-2.63 2.6-2.03 4.84-5.56 6.63-10.46l23.09-68.61h-10.07z" fill="#575756"/><path d="m404.5 83.04c-1.66 0-2.91.34-3.7 1-.5.42-.85.74-1.11 1.01v-.02s-2.12 2.48-5.17 3.7c-.18.07-.35.15-.54.21-.44.15-.89.27-1.36.35-.12.02-.13.05-.23.07-.96.18-1.94.34-3.03.34-4.18 0-7.36-1.32-9.48-3.92-2.82-2.98-4.27-8.15-4.27-15.34 0-7.16 1.45-12.4 4.3-15.58 2.28-2.3 5.22-3.45 8.76-3.45 3.85 0 6.87 1.16 8.99 3.44.74.73 1.47 1.79 2.21 3.22h14.76c-1.22-3.98-3.1-7.54-5.59-10.6-4.86-5.31-11.88-8.02-20.81-8.02-8.47 0-15.17 2.78-19.9 8.26-4.62 5.35-6.95 12.92-6.95 22.5 0 10.04 2.41 17.83 7.18 23.18 4.74 5.49 11.43 8.27 19.91 8.27 7.01 0 12.9-1.73 17.5-5.14 4.39-3.11 7.45-7.64 9.15-13.48z" fill="#575756"/><path d="m297.12 55.98v20.88c0 5.95-1.08 10.65-3.22 13.97-2.13 3.32-4.7 5.75-7.65 7.22-3.12 1.63-6.47 2.65-9.97 3.03-3.71.39-6.8.57-9.45.57-5.33 0-10.05-1.47-14.05-4.35-3.93-2.82-5.92-7.62-5.92-14.24 0-6.18 1.79-10.63 5.34-13.24 3.21-2.35 7.3-3.99 12.03-4.96l1.57-.27s5.7-1.05 9.1-1.77c3.95-.85 7.23-1.43 8.33-5.13.05-.26.11-.52.11-.8 0-2.58-1.4-4.34-4.05-5.11-2.43-.7-4.69-1.06-6.72-1.06-2.21 0-4.22.33-5.97.96-1.72.62-3.01 1.76-3.86 3.4h-14.17c.71-4.2 2.75-7.73 6.08-10.51 3.99-3.4 9.78-5.12 17.23-5.12 8.37 0 14.73 1.43 18.89 4.24 4.29 2.96 6.36 6.98 6.35 12.29zm-13.55 13.36-.97.49c-2.1 1.06-5.06 2.05-8.79 2.94l-5.31 1.16c-1.38.38-2.56.82-3.58 1.33-1.7.92-2.71 2.1-3.23 2.88-.78 1.47-1.26 2.96-1.26 4.45 0 2.48.76 4.49 2.29 6.02 1.49 1.33 3.65 2 6.41 2 4.45 0 8-1.3 10.57-3.87 2.57-2.56 3.87-6.11 3.87-10.57z" fill="#575756" fill-rule="evenodd"/><text transform="matrix(1,0,0,1,328.954,191.061)"><tspan font-family="&quot;LiberationSans&quot;, &quot;Liberation Sans&quot;" font-size="13" font-weight="400" x="0" y="0">Groupe</tspan></text><path d="m495.82 147.02c-1 3.15 6.99 9.29 12.85 13.41-10.26-4.18-24.46-12.26-23.62-15.73.7-2.86 11.42-1.79 21.08.34-4.07-.23-9.67-.06-10.31 1.98z" fill="#94a423"/><path d="m519.24 136c-4.5 2.92-4.17 15.44-2.99 24.42-5.45-12.23-10.42-31.81-5.7-35.2 3.88-2.79 13.27 6.17 20.4 15.61-3.76-3.19-8.8-6.71-11.71-4.83z" fill="#f5bb33"/><path d="m560.61 137.04c-8.84-2.05-25.84 12.96-36.8 23.38 10.78-18.47 32.09-43.86 41.8-42.04 8 1.49 5.92 21.03.77 38.54.28-7.43-.07-18.55-5.77-19.88z" fill="#0188b7"/><g fill="#51555f"><path d="m483.8 191.42c-.34 0-.64-.28-.71-.59l-1.72-6.56h-8.62l-1.73 6.56c-.07.31-.37.59-.71.59h-3.97c-.38 0-.68-.24-.68-.59 0-.03.04-.1.04-.17l6.15-21.65c.9-3.21 3.6-3.52 5.21-3.52s4.31.31 5.21 3.52l6.15 21.65c0 .07.04.14.04.17-.02.35-.32.59-.69.59zm-6.76-21.89c-.37 0-.49.14-.6.55l-2.7 10.26h6.6l-2.7-10.26c-.11-.41-.22-.55-.6-.55z" fill-rule="evenodd"/><path d="m499.8 191.7c-6.04 0-8.96-3.28-8.96-8.67v-2.66c0-5.39 2.92-8.67 8.96-8.67.9 0 2.21.07 3.6.24v-6.11c0-.38.34-.69.75-.69h3.45c.41 0 .75.31.75.69v24.03c0 .53-.15.74-1.01.94-2.33.55-5.14.9-7.54.9zm0-16.26c-3.23 0-4.01 2.11-4.01 4.94v2.66c0 2.83.79 4.94 4.01 4.94 1.35 0 2.89-.1 3.6-.24v-12.06c-1.05-.14-2.7-.24-3.6-.24z" fill-rule="evenodd"/><path d="m530.13 191.7c-1.46 0-4.61-.17-6.71-.69-.45-.1-.71-.38-.71-.79v-2.07c0-.28.26-.55.64-.55h.15c1.8.21 5.17.38 6.3.38 2.32 0 2.66-.73 2.66-1.66 0-.66-.45-1.07-1.65-1.76l-5.14-2.9c-1.84-1.04-3.15-2.76-3.15-4.77 0-3.45 2.36-5.18 7.12-5.18 3.04 0 4.76.31 6.68.69.45.1.67.38.67.79v2c0 .41-.23.66-.6.66-.07 0-.11 0-.15 0-1.05-.14-4.05-.41-6.19-.41-1.8 0-2.59.38-2.59 1.45 0 .55.56.9 1.5 1.42l4.91 2.76c3.15 1.76 3.6 3.49 3.6 5.25.01 3-2.43 5.38-7.34 5.38z"/><path d="m552.33 191.46c-.9.14-1.73.24-2.55.24-4.24 0-5.96-.86-5.96-5.49v-10.84l-3.52-.48c-.41-.07-.75-.31-.75-.69v-1.55c0-.38.34-.69.75-.69h3.52v-2.83c0-.38.34-.62.75-.69l3.49-.55h.15c.34 0 .6.17.6.52v3.56h3.38c.41 0 .75.31.75.69v2.04c0 .38-.34.69-.75.69h-3.38v10.84c0 1.73.11 1.93 1.46 1.93h1.99c.49 0 .79.17.79.52v2.18c-.01.32-.23.53-.72.6z"/><path d="m568.15 191.42c-.41 0-.75-.31-.75-.69v-.55c-1.72.97-3.49 1.52-5.29 1.52-3.11 0-6.49-1.11-6.49-5.77v-.14c0-3.94 2.62-5.97 9.15-5.97h2.36v-1.52c0-2.24-1.09-2.8-3.3-2.8-2.4 0-4.87.14-6.11.28-.08 0-.15 0-.19 0-.37 0-.67-.1-.67-.59v-2.21c0-.38.22-.62.71-.73 1.5-.28 3.67-.55 6.26-.55 5.32 0 8.25 2.18 8.25 6.6v12.43c.01.38-.33.69-.74.69zm-3.37-8.56c-3.41 0-4.16 1-4.16 2.93v.14c0 1.69.83 2.14 2.7 2.14 1.35 0 2.74-.41 3.83-.97v-4.24z" fill-rule="evenodd"/><path d="m517.53 171.95h-3.45c-.41 0-.75.31-.75.69v18.06c0 .38.34.72.75.72h3.45c.41 0 .75-.35.75-.72v-18.06c0-.38-.33-.69-.75-.69z"/></g><path d="m517.51 164.94h-3.64c-.41 0-.79.31-.79.69v3.04c0 .38.37.69.79.69h3.64c.41 0 .75-.31.75-.69v-3.04c0-.38-.34-.69-.75-.69z" fill="#e50046"/></svg>