<?xml version="1.0" encoding="UTF-8"?>
<svg id="Calque_1" data-name="Calque 1" xmlns="http://www.w3.org/2000/svg" version="1.1" viewBox="0 0 841.89 595.28">
  <defs>
    <style>
      .cls-1 {
        fill: #0a202c;
      }

      .cls-1, .cls-2, .cls-3 {
        stroke-width: 0px;
      }

      .cls-2 {
        fill: #98be1e;
      }

      .cls-3 {
        fill: #fff;
      }
    </style>
  </defs>
  <rect class="cls-1" x="6.87" y="29.86" width="827.89" height="410.71"/>
  <g>
    <path class="cls-2" d="M123.99,332.45c-4.31,0-7.81-3.5-7.81-7.81s3.5-7.81,7.81-7.81,7.81,3.5,7.81,7.81-3.5,7.81-7.81,7.81M165.69,250.72v-41.22h-22.71v36.82l-22.1,54.85c-11.61,1.52-20.58,11.45-20.58,23.47,0,13.08,10.6,23.68,23.68,23.68s23.68-10.6,23.68-23.68c0-5.83-2.11-11.16-5.6-15.29l23.62-58.63Z"/>
    <path class="cls-2" d="M254.34,332.45c-4.31,0-7.81-3.5-7.81-7.81s3.5-7.81,7.81-7.81,7.81,3.5,7.81,7.81-3.5,7.81-7.81,7.81M257.44,301.16l-22.1-54.85v-36.82h-22.71v41.22l23.62,58.63c-3.49,4.13-5.6,9.46-5.6,15.29,0,13.08,10.6,23.68,23.68,23.68s23.68-10.6,23.68-23.68c0-12.03-8.97-21.95-20.58-23.47"/>
    <path class="cls-2" d="M189.16,295.39c-4.31,0-7.81-3.5-7.81-7.81s3.5-7.81,7.81-7.81,7.81,3.5,7.81,7.81-3.5,7.81-7.81,7.81M200.51,266.79v-50.05h0v-81.36c.07-.52.11-1.05.11-1.58,0-6.33-5.13-11.46-11.46-11.46s-11.46,5.13-11.46,11.46c0,.51.04,1.01.1,1.51v97.96h0v33.53c-7.35,4.02-12.33,11.82-12.33,20.79,0,13.08,10.6,23.68,23.68,23.68s23.68-10.6,23.68-23.68c0-8.97-4.98-16.77-12.33-20.79"/>
    <path class="cls-3" d="M437.83,273.02c-4.82-1.94-9.05-4.7-12.68-8.27-3.63-3.58-6.49-7.93-8.57-13.05-2.08-5.13-3.12-10.88-3.12-17.25v-49.23h22.62v49.23c0,2.99.45,5.67,1.37,8.02.92,2.36,2.15,4.34,3.7,5.95,1.55,1.61,3.37,2.83,5.45,3.66,2.08.83,4.31,1.25,6.69,1.25s4.53-.54,6.61-1.62c2.08-1.08,3.89-2.51,5.44-4.28,1.55-1.77,2.77-3.79,3.66-6.03.89-2.24,1.33-4.56,1.33-6.94v-49.23h22.7v89.05s-50.39.69-55.21-1.25"/>
    <rect class="cls-3" x="612.03" y="184.71" width="22.87" height="89.56"/>
    <rect class="cls-3" x="612.03" y="155.03" width="22.87" height="20.45"/>
    <polygon class="cls-3" points="738.43 274.26 710.66 274.26 692.95 246.99 675.07 274.26 647.3 274.26 679.81 228.61 647.3 184.71 675.07 184.71 692.95 210.24 710.66 184.71 738.43 184.71 705.84 228.61 738.43 274.26"/>
    <path class="cls-3" d="M573.91,237.71c-1.18,2.9-2.77,5.41-4.8,7.55-2.03,2.13-4.39,3.81-7.1,5.04-2.7,1.23-5.59,1.85-8.65,1.85s-5.94-.62-8.65-1.85c-2.7-1.23-5.07-2.91-7.09-5.04-2.02-2.13-3.61-4.65-4.76-7.55-1.15-2.9-1.72-6.04-1.72-9.43,0-3.06.57-6.03,1.72-8.9,1.15-2.87,2.73-5.41,4.76-7.63s4.39-3.99,7.09-5.33c2.71-1.34,5.59-2.01,8.65-2.01s5.95.61,8.65,1.8c2.71,1.2,5.07,2.87,7.1,5.01,2.02,2.13,3.62,4.66,4.8,7.59,1.18,2.92,1.77,6.08,1.77,9.47s-.59,6.53-1.77,9.43M594.7,209.71c-2.35-5.66-5.55-10.57-9.6-14.72-4.05-4.15-8.79-7.39-14.23-9.72-5.44-2.32-11.28-3.49-17.51-3.49-2.02,0-4.1.2-6.23.61-2.13.41-4.2,1-6.19,1.77-2,.76-3.86,1.75-5.58,2.95-1.72,1.2-3.19,2.57-4.39,4.1v-35.84h-22.47v72.91c0,6.78,1.18,13,3.53,18.66,2.35,5.66,5.56,10.54,9.63,14.64,4.07,4.1,8.83,7.3,14.27,9.6,5.44,2.29,11.25,3.44,17.42,3.44s12.07-1.12,17.51-3.36c5.44-2.24,10.18-5.4,14.23-9.47,4.05-4.07,7.25-8.95,9.6-14.64,2.35-5.68,3.53-11.97,3.53-18.86s-1.18-12.92-3.53-18.58"/>
    <path class="cls-3" d="M352.85,227.45c-13.64,0-24.69-11.06-24.69-24.69s11.06-24.69,24.69-24.69,24.69,11.06,24.69,24.69-11.06,24.69-24.69,24.69M392.22,274.26h.12l-13.22-31.18c3.44-2.16,6.54-4.71,9.31-7.65,2.77-2.94,5.11-6.15,7.03-9.64,1.91-3.49,3.38-7.18,4.41-11.06,1.03-3.88,1.54-7.87,1.54-11.97,0-4.38-.57-8.59-1.7-12.64-1.14-4.05-2.74-7.84-4.82-11.39-2.08-3.55-4.57-6.78-7.49-9.69-2.91-2.91-6.12-5.4-9.64-7.48-3.52-2.08-7.31-3.69-11.35-4.82-3.96-1.11-8.08-1.68-12.36-1.7v.14c-.13,0-.27,0-.42,0-26.28,0-47.59,21.31-47.59,47.59v71.51h23.86v-23.86l21.03-.13c.89.05,1.79.08,2.7.08,1,0,1.99-.04,2.98-.09l10.38,24.01h.1l20.95,50.56h25.35l-21.16-50.56Z"/>
    <path class="cls-2" d="M522.79,288.19v6.5h-10.99v30.22h-7.72v-30.22h-11.04v-6.5h29.75Z"/>
    <path class="cls-2" d="M552.84,308.87h-17.84v9.44h20.33v6.6h-27.83v-36.72h26.94v6.5h-19.43v7.8h17.84v6.38Z"/>
    <path class="cls-2" d="M561.31,288.19h7.67v30.12h18.19v6.6h-25.86v-36.72Z"/>
    <path class="cls-2" d="M618.04,308.87h-17.84v9.44h20.33v6.6h-27.83v-36.72h26.94v6.5h-19.43v7.8h17.84v6.38Z"/>
    <path class="cls-2" d="M652.43,322.17c-2.74,2.51-6.25,3.76-10.51,3.76-5.28,0-9.43-1.69-12.46-5.08-3.02-3.4-4.53-8.07-4.53-14,0-6.41,1.72-11.35,5.16-14.83,2.99-3.02,6.79-4.54,11.41-4.54,6.18,0,10.7,2.03,13.55,6.08,1.58,2.27,2.43,4.56,2.54,6.85h-7.67c-.5-1.76-1.14-3.09-1.92-3.99-1.4-1.59-3.46-2.39-6.21-2.39s-4.99,1.12-6.6,3.38c-1.61,2.25-2.42,5.43-2.42,9.55s.85,7.2,2.55,9.25c1.7,2.05,3.87,3.08,6.49,3.08s4.74-.88,6.15-2.64c.78-.94,1.43-2.36,1.95-4.26h7.6c-.66,4.01-2.36,7.26-5.08,9.77Z"/>
    <path class="cls-2" d="M679.61,325.94c-5.25,0-9.26-1.43-12.04-4.29-3.72-3.5-5.58-8.55-5.58-15.15s1.86-11.77,5.58-15.15c2.77-2.86,6.79-4.29,12.04-4.29s9.26,1.43,12.04,4.29c3.7,3.37,5.56,8.42,5.56,15.15s-1.85,11.65-5.56,15.15c-2.78,2.86-6.79,4.29-12.04,4.29ZM686.86,316.07c1.77-2.24,2.66-5.43,2.66-9.57s-.89-7.3-2.68-9.55c-1.78-2.25-4.2-3.37-7.24-3.37s-5.46,1.12-7.28,3.36c-1.81,2.24-2.71,5.43-2.71,9.57s.9,7.33,2.71,9.57c1.81,2.24,4.24,3.36,7.28,3.36s5.46-1.12,7.25-3.36Z"/>
    <path class="cls-2" d="M710.08,324.92h-7.15v-36.72h11.16l6.68,28.87,6.63-28.87h11.04v36.72h-7.15v-24.84c0-.72,0-1.72.03-3,.02-1.29.03-2.28.03-2.98l-6.95,30.82h-7.45l-6.9-30.82c0,.7,0,1.69.02,2.98.02,1.29.03,2.29.03,3v24.84Z"/>
  </g>
</svg>