<?xml version="1.0" encoding="UTF-8"?><svg id="Calque_1" xmlns="http://www.w3.org/2000/svg" viewBox="0 0 418.23 132.85"><defs><style>.cls-1{fill:#ef7d00;}.cls-2{fill:#1f0f00;}</style></defs><g><path class="cls-1" d="m20.23,70.65h3.58s.04,10.14.04,10.14c-2.6,2.21-6.22,3.34-9.88,3.35C5.95,84.17.03,78.58,0,70.88c-.03-7.7,5.85-13.34,13.95-13.37,4.14-.02,7.66,1.35,10.06,3.98l-2.31,2.32c-2.17-2.08-4.64-3-7.59-2.98-6.05.02-10.4,4.24-10.38,10.05.02,5.73,4.41,9.99,10.42,9.97,2.2,0,4.25-.5,6.12-1.7l-.03-8.48Z"/><path class="cls-1" d="m50.34,83.7l-5.67-7.98c-.52.04-1.08.08-1.64.08l-6.46.02.03,7.92h-3.73s-.1-26.03-.1-26.03l10.19-.04c6.79-.03,10.91,3.38,10.94,9.04.02,4.02-2.06,6.93-5.72,8.24l6.23,8.72-4.07.02Zm-.18-16.97c-.01-3.72-2.52-5.83-7.3-5.81l-6.35.02.05,11.72,6.35-.02c4.78-.02,7.27-2.19,7.26-5.91Z"/><path class="cls-1" d="m59.7,70.65c-.03-7.63,5.85-13.34,13.87-13.37,7.95-.03,13.87,5.6,13.9,13.27.03,7.66-5.85,13.34-13.8,13.37-8.03.03-13.95-5.64-13.98-13.27Zm24.04-.09c-.02-5.77-4.37-9.99-10.16-9.97-5.86.02-10.17,4.28-10.15,10.05.02,5.77,4.37,9.99,10.23,9.97,5.79-.02,10.1-4.28,10.08-10.05Z"/><path class="cls-1" d="m94.84,72.3l-.06-14.81h3.73s.06,14.64.06,14.64c.02,5.77,2.68,8.36,7.39,8.34,4.7-.02,7.38-2.63,7.36-8.4l-.06-14.66h3.62s.06,14.79.06,14.79c.03,7.55-4.1,11.55-11,11.58-6.87.03-11.07-3.94-11.09-11.49Z"/><path class="cls-1" d="m147.53,66.36c.02,5.66-4.07,9.09-10.87,9.12l-6.46.02.03,7.89h-3.73s-.1-26.03-.1-26.03l10.19-.04c6.79-.03,10.91,3.38,10.94,9.04Zm-3.73.01c-.01-3.72-2.52-5.83-7.3-5.81l-6.35.02.05,11.68,6.35-.02c4.78-.02,7.27-2.15,7.26-5.87Z"/><path class="cls-1" d="m173.9,79.99v3.24s-18.95.07-18.95.07l-.1-26.04,18.44-.07v3.24s-14.7.06-14.7.06l.03,8,13.1-.05v3.16s-13.09.05-13.09.05l.03,8.41,15.23-.06Z"/></g><g><path class="cls-2" d="m45.87,117.25c-.03-9.09,6.92-15.69,16.31-15.73,4.98-.02,9.26,1.75,12.11,5.04l-3.65,3.45c-2.24-2.38-4.99-3.55-8.18-3.54-6.33.02-10.9,4.48-10.87,10.75.02,6.27,4.63,10.69,10.95,10.66,3.19-.01,5.93-1.2,8.15-3.64l3.68,3.47c-2.82,3.32-7.1,5.12-12.12,5.14-9.34.04-16.35-6.51-16.39-15.6Z"/><path class="cls-2" d="m79.13,117.12c-.03-9.01,6.92-15.69,16.4-15.73,9.47-.04,16.48,6.55,16.52,15.6.03,9.05-6.92,15.69-16.4,15.73-9.47.04-16.48-6.59-16.52-15.6Zm27.2-.11c-.02-6.22-4.62-10.69-10.78-10.66-6.16.02-10.72,4.52-10.7,10.75.02,6.22,4.63,10.69,10.78,10.66,6.16-.02,10.72-4.52,10.7-10.75Z"/><path class="cls-2" d="m147.35,101.62l.12,30.46-4.67.02-16.93-20.56.08,20.63-5.63.02-.12-30.46,4.67-.02,16.93,20.56-.08-20.63,5.63-.02Z"/><path class="cls-2" d="m185.47,101.48l-13.2,30.51-5.59.02-13.48-30.41,6.16-.02,10.26,23.46,10.17-23.54,5.67-.02Z"/><path class="cls-2" d="m213.9,127.08l.02,4.74-22.92.09-.12-30.46,22.31-.09.02,4.74-16.63.06.03,7.92,14.76-.06.02,4.66-14.76.06.03,8.4,17.24-.07Z"/><path class="cls-2" d="m242.42,131.72l-6.28-8.9c-.39.05-.79.05-1.18.05l-6.9.03.03,8.88-5.68.02-.12-30.46,12.57-.05c8.03-.03,13.03,4.04,13.05,10.79.02,4.61-2.33,8.02-6.47,9.64l7.07,9.98-6.11.02Zm-7.78-25.64l-6.64.03.05,12.14,6.64-.03c4.98-.02,7.54-2.29,7.53-6.12-.01-3.83-2.6-6.04-7.58-6.02Z"/><path class="cls-2" d="m277.33,116l5.37-.02.05,12.14c-3.18,2.58-7.62,3.9-11.95,3.92-9.47.04-16.48-6.51-16.52-15.6-.03-9.09,6.92-15.69,16.49-15.73,5.11-.02,9.39,1.66,12.29,4.91l-3.57,3.5c-2.41-2.38-5.16-3.46-8.44-3.45-6.5.03-11.07,4.44-11.05,10.75.02,6.18,4.63,10.69,11.09,10.66,2.18,0,4.32-.45,6.28-1.59l-.04-9.49Z"/><path class="cls-2" d="m315.31,126.69l.02,4.74-22.92.09-.12-30.46,22.31-.09.02,4.74-16.63.06.03,7.92,14.76-.06.02,4.66-14.76.06.03,8.4,17.24-.07Z"/><path class="cls-2" d="m350.88,100.84l.12,30.46-4.67.02-16.93-20.56.08,20.63-5.63.02-.12-30.46,4.67-.02,16.93,20.56-.08-20.63,5.63-.02Z"/><path class="cls-2" d="m359.14,116.04c-.03-9.09,6.92-15.69,16.31-15.73,4.98-.02,9.26,1.75,12.11,5.04l-3.65,3.45c-2.24-2.38-4.99-3.55-8.18-3.54-6.33.02-10.9,4.48-10.87,10.75.02,6.27,4.63,10.69,10.96,10.66,3.19-.01,5.93-1.2,8.15-3.64l3.68,3.47c-2.82,3.32-7.1,5.12-12.12,5.14-9.34.04-16.35-6.51-16.39-15.6Z"/><path class="cls-2" d="m418.21,126.3l.02,4.74-22.92.09-.12-30.46,22.31-.09.02,4.74-16.63.06.03,7.92,14.76-.06.02,4.66-14.76.06.03,8.4,17.24-.07Z"/></g><g><path class="cls-1" d="m231.52,25.68c-3.93,0-7.78.07-11.56.21,27.83,1.06,53.49,6.66,60.5,15.85,10.51,13.78-21.8,31.91-85.43,37.28,8.48.78,17.5,1.2,26.89,1.2,78.88,0,112.75-22.29,90.89-38.49-13.77-10.2-48.36-16.07-81.29-16.07Z"/><path class="cls-2" d="m211.73,19.79c3.8-10.91,22.95-18.09,44.69-19.5-2.95-.19-5.97-.29-9.04-.29-25.79,0-51.41,7.62-58.92,19.79-10.45,16.93,15.99,36.41,63.45,36.41,5.65,0,11.12-.34,16.32-.96-38.78-4.4-61.59-20.88-56.5-35.45Z"/></g></svg>