<?xml version="1.0" encoding="utf-8"?>
<!-- Generator: Adobe Illustrator 25.3.1, SVG Export Plug-In . SVG Version: 6.00 Build 0)  -->
<svg version="1.1" id="Layer_1" xmlns="http://www.w3.org/2000/svg" xmlns:xlink="http://www.w3.org/1999/xlink" x="0px" y="0px"
	 viewBox="0 0 1398 301.1" style="enable-background:new 0 0 1398 301.1;" xml:space="preserve">
<style type="text/css">
	.st0{fill:#394455;}
	.st1{fill:#19D5B2;}
	.st2{fill:#1F8CEB;}
</style>
<path class="st0" d="M406.1,17.1c80.4,0,139.7,61.3,139.7,140.1c0,80.4-59.3,143.6-139.7,143.6c-80,0-139.7-63.2-139.7-143.6
	C266.4,78.4,326.1,17.1,406.1,17.1z M406.1,275.5c64.4,0,111.6-51.5,111.6-118.2c0-65.2-47.2-114.7-111.6-114.7
	c-64,0-111.6,49.6-111.6,114.7C294.5,224,342.1,275.5,406.1,275.5z"/>
<path class="st0" d="M594.2,109.6c0-6.2,3.5-9.8,9.8-9.8h7c5.9,0,9.4,3.5,9.4,9.8v22.6c0,4.7-0.5,9.4-1.6,14h0.8
	c7.4-17.9,33.2-51.1,79.2-51.1c48.8,0,65.9,27.7,65.9,76.1v115.2c0,6.2-3.5,9.8-9.8,9.8h-7.4c-6.2,0-9.4-3.5-9.4-9.8V178.3
	c0-30.8-5.1-58.2-42.9-58.2c-41.8,0-74.5,34.4-74.5,80v86.2c0,6.2-3.1,9.8-9.4,9.8h-7.4c-6.2,0-9.8-3.5-9.8-9.8L594.2,109.6z"/>
<path class="st0" d="M822.5,31.6c0-6.2,3.1-9.8,9.4-9.8h7.4c6.2,0,9.8,3.5,9.8,9.8V245c0,24.6,11.7,27.3,20.3,28.5
	c4.7,0.4,8.2,2.7,8.2,8.6v5.9c0,5.9-2.7,9.8-10.2,9.8c-16,0-44.9-5.1-44.9-48L822.5,31.6z"/>
<path class="st0" d="M917.3,109.6c0-6.2,3.5-9.8,9.8-9.8h7.4c6.2,0,9.4,3.5,9.4,9.8v176.8c0,6.2-3.1,9.8-9.4,9.8H927
	c-6.2,0-9.8-3.5-9.8-9.8V109.6z"/>
<path class="st0" d="M1004.3,109.6c0-6.2,3.5-9.8,9.8-9.8h7c5.8,0,9.4,3.5,9.4,9.8v22.6c0,4.7-0.5,9.4-1.6,14h0.8
	c7.4-17.9,33.2-51.1,79.2-51.1c48.8,0,66,27.7,66,76.1v115.2c0,6.2-3.5,9.8-9.8,9.8h-7.4c-6.2,0-9.4-3.5-9.4-9.8V178.3
	c0-30.8-5.1-58.2-42.9-58.2c-41.8,0-74.5,34.4-74.5,80v86.2c0,6.2-3.1,9.8-9.4,9.8h-7.4c-6.2,0-9.8-3.5-9.8-9.8L1004.3,109.6z"/>
<path class="st0" d="M1316.1,95.2c52.3,0,81.9,37.8,81.9,93.7c0,5.5-4.3,9.8-10.2,9.8h-141.2c1.2,49.9,35.5,78.4,76.1,78.4
	c18.7-0.1,36.8-6.4,51.5-18c5.5-3.5,9.8-2.7,12.9,2.3l3.1,4.7c2.7,4.7,2,9.4-2.7,12.9c-10.5,7.8-34,21.8-65.6,21.8
	c-58.5,0-102.6-42.1-102.6-102.6C1219.3,133.8,1263,95.2,1316.1,95.2z M1371.1,178.7c-1.6-41.4-26.5-61.7-55.8-61.7
	c-32.8,0-61.3,21.8-67.5,61.7H1371.1z"/>
<path class="st1" d="M914.7,52.3h31.5c0,0,35.3,0.9,35.3-35.3h-33.9C947.7,17,913.8,16.5,914.7,52.3z"/>
<path class="st2" d="M112.5,77.4c-28.6,0-54.4,10.1-74.1,26.9V15.1C38.4,5.9,32.3,0,22.9,0h-7.9c-9.3,0-15,5.8-15,15.1v172.4
	c0,0.2,0,0.5,0,0.7s0,0.5,0,0.7v0.3l0,0C0.6,252,49.9,301.1,112.9,301.1s112.4-49.6,112.4-112.8C225.3,126.1,175.7,77.4,112.5,77.4z
	 M112.8,266.4c-41.8,0-74.5-34.3-74.5-78.1v-0.1c0-42.7,32.7-76.1,74.5-76.1c41.5,0,74.1,33.4,74.1,76.1
	C186.9,232,154.4,266.4,112.8,266.4L112.8,266.4z"/>
</svg>
