<svg width="64px" height="36px" viewBox="96 32 64 36" version="1.1" xmlns="http://www.w3.org/2000/svg" xmlns:xlink="http://www.w3.org/1999/xlink">
    <defs></defs>
    <path d="M99,32 C97.343,32 96,33.343 96,35 C96,36.657 97.343,38 99,38 C100.657,38 102,36.657 102,35 C102,33.343 100.657,32 99,32 M99,42 C97.896,42 97,42.896 97,44 L97,58 C97,59.105 97.896,60 99,60 C100.105,60 101,59.105 101,58 L101,44 C101,42.896 100.105,42 99,42 M157,32 C155.343,32 154,33.343 154,35 C154,36.657 155.343,38 157,38 C158.657,38 160,36.657 160,35 C160,33.343 158.657,32 157,32 M157,42 C155.896,42 155,42.896 155,44 L155,58 C155,59.105 155.896,60 157,60 C158.105,60 159,59.105 159,58 L159,44 C159,42.896 158.105,42 157,42 M141,56 C137.134,56 134,52.866 134,49 C134,45.134 137.134,42 141,42 C144.866,42 148,45.134 148,49 C148,52.866 144.866,56 141,56 M141,38 C134.925,38 130,42.925 130,49 L130,66 C130,67.105 130.896,68 132,68 C133.105,68 134,67.105 134,66 L134,57.486 C135.902,59.057 138.341,60.001 141,60.001 C147.075,60.001 152,55.075 152,49 C152,42.925 147.075,38 141,38 M116,56 C112.134,56 109,52.866 109,49 C109,45.134 112.134,42 116,42 C119.866,42 123,45.134 123,49 C123,52.866 119.866,56 116,56 M116,38 C109.925,38 105,42.925 105,49 L105,66 C105,67.105 105.896,68 107,68 C108.105,68 109,67.105 109,66 L109,57.486 C110.902,59.057 113.341,60.001 116,60.001 C122.075,60.001 127,55.075 127,49 C127,42.925 122.075,38 116,38" id="LOGO-Copy" stroke="none" fill="#FFFFFF" fill-rule="evenodd"></path>
</svg>
