<?xml version="1.0" encoding="utf-8"?>
<!-- Generator: Adobe Illustrator 25.0.1, SVG Export Plug-In . SVG Version: 6.00 Build 0)  -->
<svg version="1.1" id="Calque_1" xmlns="http://www.w3.org/2000/svg" xmlns:xlink="http://www.w3.org/1999/xlink" x="0px" y="0px"
	 viewBox="0 0 329.5 91.8" style="enable-background:new 0 0 329.5 91.8;" xml:space="preserve">
<style type="text/css">
	.st0{fill:#82334A;}
	.st1{fill:#F43F5B;}
	.st2{fill:#B6295A;}
	.st3{fill:#121C24;}
</style>
<g>
	<g>
		<path class="st0" d="M154.8,55.5c0,2.2,1.8,4,4,4c2.2,0,4-1.8,4-4V32.2c0-2.2-1.8-4-4-4c-2.2,0-4,1.8-4,4V55.5z"/>
		<path class="st1" d="M148.8,21.8c1.9,1.1,4.4,0.5,5.5-1.5c1.1-1.9,0.4-4.4-1.5-5.5l-20-11.6c-1.9-1.1-4.4-0.5-5.5,1.5
			c-1.1,1.9-0.4,4.4,1.5,5.5L148.8,21.8z"/>
		<path class="st2" d="M168.8,21.8c-1.9,1.1-4.4,0.5-5.5-1.5c-1.1-1.9-0.4-4.4,1.5-5.5l20-11.6c1.9-1.1,4.4-0.5,5.5,1.5
			c1.1,1.9,0.4,4.4-1.5,5.5L168.8,21.8z"/>
		<g>
			<path class="st3" d="M298.5,62.1c-17,0-30.7-13.9-30.7-31c0-17.1,13.8-31,30.7-31s30.7,13.9,30.7,31S315.4,62.1,298.5,62.1z
				 M298.5,8.2c-12.5,0-22.7,10.3-22.7,22.9s10.2,22.9,22.7,22.9s22.7-10.3,22.7-22.9C321.2,18.5,311,8.2,298.5,8.2z"/>
			<path class="st3" d="M237.5,25.1v30.3c0,2.2-1.8,4-4,4s-4-1.8-4-4V25.1l-25.9-15.1c-1.9-1.1-2.6-3.6-1.5-5.5s3.6-2.6,5.5-1.5
				l25.9,15.1l25.9-15.1c1.9-1.1,4.4-0.5,5.5,1.5c1.1,1.9,0.4,4.4-1.5,5.5L237.5,25.1z"/>
			<path class="st3" d="M116.5,55.5c0,2.2-1.8,4-4,4H76.8c-2.2,0-4-1.8-4-4V45v-1.8V7c0-1.1,0.5-2.2,1.2-2.9c0.7-0.9,1.8-1.4,3-1.4
				h35.5c2.2,0,4,1.8,4,4s-1.8,4-4,4H80.8v16.1h25.4c2.2,0,4,1.8,4,4s-1.8,4-4,4H80.8V43v2v6.5h31.7
				C114.8,51.5,116.5,53.3,116.5,55.5z"/>
			<path class="st3" d="M7.9,56.9c-1,1-1.8,1.4-2.9,1.4c-2.2,0-3.9-1.8-3.9-3.9V6.2c0-2.2,1.8-3.9,3.9-3.9s3.9,1.8,3.9,3.9v38.4
				l41-41.3c1.6-1.6,4-1.6,5.6,0c1.6,1.6,1.6,4,0,5.6l-21,21.1l21.3,21.4c1.6,1.6,1.6,4,0,5.6c-1.6,1.6-4,1.6-5.6,0L28.9,35.7
				C28.9,35.7,8.8,56,7.9,56.9z"/>
		</g>
	</g>
	<g>
		<path class="st3" d="M0.5,80.1h4.2c3.7,0,6.2,2.3,6.2,5.7c0,3.4-2.5,5.7-6.2,5.7H0.5V80.1z M4.5,89.4c2.5,0,4-1.4,4-3.6
			s-1.5-3.6-4-3.6H2.8v7.2H4.5z"/>
		<path class="st3" d="M13.3,80.1h8.3v2.1h-6v2.2h4.8v2.1h-4.8v2.9h6.1v2.1h-8.5L13.3,80.1L13.3,80.1z"/>
		<path class="st3" d="M28.3,80.1h5.3c2,0,3.4,1,3.4,2.8c0,1.2-0.7,2-1.4,2.3c1.1,0.2,2.3,1.3,2.3,3c0,1.9-1.5,3.2-3.9,3.2h-5.7
			C28.3,91.4,28.3,80.1,28.3,80.1z M33.2,84.5c1,0,1.6-0.5,1.6-1.2c0-0.8-0.6-1.3-1.6-1.3h-2.6v2.5H33.2z M33.6,89.5
			c1.1,0,1.8-0.5,1.8-1.5c0-1-0.7-1.5-1.8-1.5h-2.9v3H33.6z"/>
		<path class="st3" d="M39.6,85.8c0-3.3,2.5-5.9,5.9-5.9c3.4,0,5.9,2.6,5.9,5.9s-2.5,5.9-5.9,5.9C42.1,91.7,39.6,89,39.6,85.8z
			 M49,85.8c0-2.1-1.5-3.7-3.5-3.7S42,83.7,42,85.8s1.5,3.7,3.5,3.7S49,87.9,49,85.8z"/>
		<path class="st3" d="M53.6,86.7v-6.6h2.3v6.7c0,1.9,1.1,2.7,2.5,2.7s2.5-0.9,2.5-2.7v-6.7h2.3v6.6c0,3.3-2.1,5-4.9,5
			C55.7,91.7,53.6,90,53.6,86.7z"/>
		<path class="st3" d="M69.2,86.4l-4.4-6.3h2.7l2.8,4.1l2.8-4.1h2.7l-4.4,6.2v5.2h-2.3L69.2,86.4C69.1,86.4,69.2,86.4,69.2,86.4z"/>
		<path class="st3" d="M76.1,85.8c0-3.5,2.6-5.9,6.1-5.9c1.5,0,2.5,0.3,3.4,0.9v2.3c-1.1-0.7-2.1-1-3.2-1c-2.3,0-3.9,1.5-3.9,3.8
			c0,2.3,1.7,3.7,3.6,3.7c0.8,0,1.7-0.2,2.3-0.7v-4h2.3v5c-0.9,0.9-2.6,1.8-4.6,1.8C78.8,91.7,76.1,89.3,76.1,85.8z"/>
		<path class="st3" d="M89.1,86.7v-6.6h2.3v6.7c0,1.9,1.1,2.7,2.5,2.7c1.4,0,2.5-0.9,2.5-2.7v-6.7h2.3v6.6c0,3.3-2.1,5-4.9,5
			C91.2,91.7,89.1,90,89.1,86.7z"/>
		<path class="st3" d="M101.4,80.1h8.3v2.1h-6v2.2h4.8v2.1h-4.8v2.9h6.1v2.1h-8.5L101.4,80.1L101.4,80.1z"/>
		<path class="st3" d="M111.5,90.5v-2.4c0.9,0.8,2.6,1.5,4.2,1.5c1.1,0,2.2-0.4,2.2-1.3c0-1-1.1-1.2-2.5-1.6c-2-0.6-3.8-1.2-3.8-3.5
			c0-2,1.6-3.3,4.3-3.3c1.5,0,2.8,0.4,3.7,0.9v2.3c-0.9-0.6-2.3-1.1-3.7-1.1c-1.4,0-1.9,0.5-1.9,1.1c0,0.8,1.2,1,2.7,1.5
			c1.8,0.6,3.6,1.4,3.6,3.6c0,2.2-2,3.5-4.5,3.5C114.1,91.7,112.6,91.3,111.5,90.5z"/>
		<path class="st3" d="M134.8,80.1v2.1h-3.6v9.3h-2.3v-9.3h-3.6v-2.1H134.8z"/>
		<path class="st3" d="M136.8,80.1h8.3v2.1h-6v2.2h4.8v2.1h-4.8v2.9h6.2v2.1h-8.5V80.1z"/>
		<path class="st3" d="M147.5,80.1h2.3v9.3h5.7v2.1h-8.1L147.5,80.1L147.5,80.1z"/>
		<path class="st3" d="M157.5,80.1h8.3v2.1h-6v2.2h4.8v2.1h-4.8v2.9h6.2v2.1h-8.5V80.1z"/>
		<path class="st3" d="M167.4,85.8c0-3.5,2.6-5.9,6.1-5.9c1.1,0,2.1,0.2,3,0.7v2.3c-0.8-0.6-1.7-0.9-3-0.9c-2.1,0-3.8,1.5-3.8,3.7
			c0,2.2,1.7,3.7,3.9,3.7c1.1,0,2.2-0.3,3.1-1v2.5c-0.9,0.5-2,0.8-3.2,0.8C170.1,91.7,167.4,89.3,167.4,85.8z"/>
		<path class="st3" d="M178.5,85.8c0-3.3,2.5-5.9,5.9-5.9s5.9,2.6,5.9,5.9s-2.5,5.9-5.9,5.9S178.5,89,178.5,85.8z M187.9,85.8
			c0-2.1-1.5-3.7-3.5-3.7s-3.5,1.6-3.5,3.7s1.5,3.7,3.5,3.7S187.9,87.9,187.9,85.8z"/>
		<path class="st3" d="M192.7,80.1h2.3l3.3,4.7l3.3-4.7h2.3v11.4h-2.3v-7.8l-2.6,3.7h-1.4l-2.6-3.7v7.8h-2.3L192.7,80.1L192.7,80.1z
			"/>
		<path class="st3" d="M211,80.1h8.3v2.1h-6v2.2h4.8v2.1h-4.8v2.9h6.2v2.1H211V80.1z"/>
		<path class="st3" d="M221.6,80.1h2l5.7,7.3v-7.3h2.3v11.4h-1.9l-5.7-7.3v7.3h-2.3L221.6,80.1L221.6,80.1z"/>
		<path class="st3" d="M243.1,80.1v2.1h-3.6v9.3h-2.3v-9.3h-3.6v-2.1H243.1z"/>
		<path class="st3" d="M245.2,80.1h5.2c2.4,0,3.9,1.4,3.9,3.4c0,1.5-0.9,2.7-2.3,3.2l3.5,4.9h-2.7l-3.3-4.7h-2v4.6h-2.3V80.1z
			 M250.3,84.9c1,0,1.7-0.5,1.7-1.4s-0.6-1.4-1.7-1.4h-2.8v2.8H250.3z"/>
		<path class="st3" d="M257.2,80.1h8.3v2.1h-6v2.2h4.8v2.1h-4.8v2.9h6.2v2.1h-8.5V80.1z"/>
		<path class="st3" d="M267.8,80.1h4.9c2.5,0,3.9,1.4,3.9,3.4c0,2-1.5,3.5-3.9,3.5h-2.6v4.5h-2.3V80.1z M272.6,85
			c1.1,0,1.8-0.5,1.8-1.4c0-0.9-0.7-1.4-1.8-1.4h-2.5V85H272.6z"/>
		<path class="st3" d="M278.8,80.1h5.2c2.4,0,3.9,1.4,3.9,3.4c0,1.5-0.9,2.7-2.3,3.2l3.5,4.9h-2.7l-3.3-4.6h-2v4.6h-2.3L278.8,80.1
			L278.8,80.1z M283.9,84.9c1,0,1.7-0.5,1.7-1.4s-0.6-1.4-1.7-1.4h-2.8v2.8H283.9z"/>
		<path class="st3" d="M291,80.1h2.3v11.4H291V80.1z"/>
		<path class="st3" d="M295.6,90.5v-2.4c0.9,0.8,2.6,1.5,4.2,1.5c1.1,0,2.2-0.4,2.2-1.3c0-1-1.1-1.2-2.5-1.6c-2-0.6-3.8-1.2-3.8-3.5
			c0-2,1.6-3.3,4.3-3.3c1.5,0,2.8,0.4,3.7,0.9v2.3c-0.9-0.6-2.3-1.1-3.7-1.1c-1.4,0-1.9,0.5-1.9,1.1c0,0.8,1.2,1,2.7,1.5
			c1.8,0.6,3.6,1.4,3.6,3.6c0,2.2-2,3.5-4.5,3.5C298.3,91.7,296.7,91.3,295.6,90.5z"/>
		<path class="st3" d="M306.5,80.1h8.3v2.1h-6v2.2h4.8v2.1h-4.8v2.9h6.2v2.1h-8.5V80.1z"/>
		<path class="st3" d="M316.6,90.5v-2.4c0.9,0.8,2.6,1.5,4.2,1.5c1.1,0,2.2-0.4,2.2-1.3c0-1-1.1-1.2-2.5-1.6c-2-0.6-3.8-1.2-3.8-3.5
			c0-2,1.6-3.3,4.3-3.3c1.5,0,2.8,0.4,3.7,0.9v2.3c-0.9-0.6-2.3-1.1-3.7-1.1c-1.4,0-1.9,0.5-1.9,1.1c0,0.8,1.2,1,2.7,1.5
			c1.8,0.6,3.6,1.4,3.6,3.6c0,2.2-2,3.5-4.5,3.5C319.3,91.7,317.8,91.3,316.6,90.5z"/>
	</g>
</g>
</svg>
