<?xml version="1.0" encoding="utf-8"?>
<!-- Generator: Adobe Illustrator 26.0.1, SVG Export Plug-In . SVG Version: 6.00 Build 0)  -->
<svg version="1.1" id="Layer_1" xmlns="http://www.w3.org/2000/svg" xmlns:xlink="http://www.w3.org/1999/xlink" x="0px" y="0px"
	 viewBox="0 0 462.1 168" style="enable-background:new 0 0 462.1 168;" xml:space="preserve">
<style type="text/css">
	.st0{fill:#00A5B5;}
	.st1{fill:#FF9015;}
</style>
<g>
	<g>
		<g>
			<path class="st0" d="M85.2,7.9c-1.5,0-2.8,1.3-2.8,2.8v26c-1.2-0.9-2.5-1.7-3.9-2.4c-6.9-3.8-14.6-5.7-23.2-5.7
				c-8.5,0-16.3,1.9-23.2,5.7c-6.9,3.8-12.4,9.2-16.4,16.2c-4,7-6,15.1-6,24.1c0,9.2,1.9,17.3,5.8,24.2c3.9,7,9.2,12.4,16,16.2
				c6.8,3.8,14.4,5.7,22.8,5.7c8.5,0,16.3-1.9,23.4-5.7c7.1-3.8,12.8-9.2,16.8-16.3c5.1-9.2,6.2-17.7,6.2-32.3l0-55.8
				c0-1.5-1.3-2.8-2.8-2.8H85.2z M78,91.2c-2.6,4.5-6,7.9-10.1,10.2c-4.2,2.3-8.6,3.4-13.4,3.4c-7.5,0-13.6-2.6-18.6-7.9
				c-4.9-5.2-7.4-12.7-7.4-22.3c0-6.5,1.2-12,3.6-16.4c2.4-4.5,5.6-7.9,9.6-10.1c4-2.3,8.4-3.4,13.2-3.4c4.7,0,9.2,1.1,13.3,3.4
				c4.1,2.3,7.4,5.6,9.9,10.1c2.5,4.5,3.7,10,3.7,16.4S80.6,86.6,78,91.2z"/>
			<path class="st0" d="M135.2,117c-5.6-2.5-10-6-13.2-10.4c-2.6-3.5-4.2-7.3-4.9-11.4c-0.3-1.7,1.1-3.3,2.8-3.3l13.6,0
				c1.3,0,2.4,0.9,2.7,2.1c0.7,2.9,2.4,5.3,5.1,7.4c3.3,2.5,7.4,3.8,12.4,3.8c5.2,0,9.2-1,12.1-3c2.9-2,4.3-4.6,4.3-7.7
				c0-3.3-1.6-5.8-4.8-7.5c-3.2-1.6-8.2-3.4-15.1-5.3c-6.7-1.8-12.2-3.6-16.4-5.3c-4.2-1.7-7.9-4.4-10.9-7.9
				c-3.1-3.6-4.6-8.3-4.6-14.1c0-4.8,1.4-9.1,4.2-13c2.8-3.9,6.8-7,12.1-9.3c5.2-2.3,11.3-3.4,18.1-3.4c10.2,0,18.3,2.6,24.5,7.7
				c5.4,4.5,8.7,10.4,9.7,17.8c0.2,1.7-1.1,3.2-2.8,3.2h-13c-1.3,0-2.4-0.9-2.7-2.2c-0.7-3-2.2-5.5-4.5-7.4
				c-2.9-2.4-6.9-3.6-11.8-3.6c-4.9,0-8.6,0.9-11.2,2.8c-2.7,1.9-4,4.5-3.9,7.8c0.1,2.2,1.2,4.2,2.8,5.7c1.7,1.5,3.7,2.7,6.1,3.6
				c2.5,0.9,6.2,2.1,11,3.5c6.5,1.7,11.8,3.5,16,5.3c4.2,1.8,7.7,4.4,10.8,7.9c3,3.5,4.6,8.1,4.7,13.8c0,5.1-1.4,9.6-4.2,13.6
				c-2.8,4-6.8,7.1-11.9,9.4c-5.1,2.3-11.2,3.4-18.1,3.4C147,120.8,140.7,119.6,135.2,117z"/>
			<path class="st0" d="M229.7,94.6c0,3.3,0.8,5.7,2.3,7.2c1.6,1.5,4.2,2.2,8,2.2h8.5c1.6,0,2.8,1.3,2.8,2.8v9.7
				c0,1.6-1.3,2.8-2.8,2.8h-11.8c-8.3,0-14.7-1.9-19.1-5.8c-4.4-3.9-6.6-10.2-6.6-19V48c0-1.6-1.3-2.8-2.8-2.8h-4.9
				c-1.6,0-2.8-1.3-2.8-2.8v-9.4c0-1.6,1.3-2.8,2.8-2.8h4.9c1.6,0,2.8-1.3,2.8-2.8V10.7c0-1.6,1.3-2.8,2.8-2.8h13
				c1.6,0,2.8,1.3,2.8,2.8V94.6z"/>
			<path class="st0" d="M336.1,33c5.6,2.9,9.9,7.2,13,13c3.1,5.7,4.7,12.6,4.7,20.7v49.8c0,1.6-1.3,2.8-2.8,2.8h-12.7
				c-1.6,0-2.8-1.3-2.8-2.8V69.5c0-8-2-14.1-6-18.4c-4-4.3-9.5-6.4-16.4-6.4c-6.9,0-12.4,2.1-16.5,6.4c-4,4.3-6.1,10.4-6.1,18.4
				v47.1c0,1.6-1.3,2.8-2.8,2.8H275c-1.6,0-2.8-1.3-2.8-2.8V32.9c0-1.6,1.3-2.8,2.8-2.8h12.8c1.6,0,2.8,1.3,2.8,2.8v7.4
				c3-3.7,6.9-6.5,11.6-8.6c4.7-2.1,9.7-3.1,15-3.1C324.2,28.6,330.5,30.1,336.1,33z"/>
		</g>
		<circle class="st1" cx="250.6" cy="37.6" r="11.7"/>
	</g>
	<path class="st0" d="M448.9,30.1h-12.9c-1.2,0-2.2,0.7-2.6,1.8l-25.4,66.2l-24.4-66.2c-0.4-1.1-1.5-1.8-2.7-1.8h-14.4
		c-2,0-3.4,2-2.6,3.9l33.7,85.4c-0.3,1.4-0.7,2.8-1.2,4.2c-3.9,9.8-11,17-22.6,18.4c-1.8,0.3-2.6,1.8-2.6,3.1
		c0,1.2-0.1,9.8-0.1,11.9c0,2.1,1.1,3,3.1,3c1.3,0,2.8-0.1,4.2-0.3c16.1-2.7,25.2-11.2,30.6-23.8c1.5-3.4,2.6-6.1,3.8-9L451.5,34
		C452.2,32.1,450.9,30.1,448.9,30.1z"/>
</g>
</svg>
