<svg xmlns="http://www.w3.org/2000/svg" viewBox="0 320 1920 450"><style>.swpth{fill:#fff}</style><path class="swpth" d="M1440.17 614.83h-33.82c-14.79-52.99-29.56-105.91-44.33-158.82l-1.07-.03c-14.57 52.83-29.15 105.67-43.79 158.74h-33.87c-19.42-65.31-38.88-130.76-58.45-196.61h32.13c14.51 49.37 29.06 98.85 43.6 148.33.3.01.6.02.9.02 14-49.41 28-98.81 42.05-148.37h35.94c14.16 49.34 28.31 98.66 42.46 147.99.37.02.73.03 1.1.05 14.49-49.31 28.99-98.62 43.52-148.05h31.86c-19.45 65.72-38.82 131.15-58.23 196.75zM823.43 497.54v-13.59h29.54v5.73c0 41.15.01 82.29 0 123.44-.02 40.33-32.48 71.24-72.87 69.42-25.54-1.15-49.14-14.13-61.31-34.08 6.47-5.72 13.02-11.52 19.96-17.65 8.66 13.51 20.32 22.61 36.3 24.95 9.43 1.38 18.64.03 27.08-4.71 17.78-10 23.74-26.63 20.58-48.65-36.09 28.36-77.83 12.65-95.12-9.54-20.91-26.82-19.83-65.24 2.95-90.49 20.82-23.1 61.72-31.3 92.89-4.83zm-.05 51.75c.01-22.72-17.75-40.54-40.48-40.62-23.05-.08-41.02 17.69-41.03 40.58-.01 22.78 18.11 40.8 40.98 40.75 22.51-.05 40.52-18.14 40.53-40.71zM628.72 441.38c-7.03 6.43-13.88 12.69-21 19.2-1.39-1.47-2.58-2.78-3.83-4.03-11.85-11.84-26-16.02-42.09-11.36-17.41 5.05-22.6 26.18-9.36 38.62 4.97 4.67 11.36 8.11 17.61 11.06 11.12 5.24 22.8 9.28 33.91 14.54 14.7 6.96 26.78 16.82 32.06 33.09 11.57 35.66-10.34 69.46-48.73 74.28-29.74 3.73-54.94-5.09-73.6-29.49-2.51-3.28-4.41-7.02-6.89-11.04 8.75-5.35 17.18-10.52 25.87-15.83 1.1 2.02 1.96 3.6 2.84 5.18 10.88 19.43 34.71 28.23 55.58 20.49 9.65-3.58 15.9-10.15 17.41-20.59 1.47-10.19-2.1-18.65-10.38-24.37-6.37-4.4-13.5-7.8-20.55-11.11-11.88-5.58-24.27-10.14-35.86-16.23-13.74-7.22-23.19-18.44-25.64-34.31-4.88-31.53 12.25-56.62 43.61-62.78 25.57-5.03 47.67 2.59 66.05 21 1.04 1.02 1.86 2.27 2.99 3.68zM1121.14 498.94v-14.99h29.42v130.81h-29.18v-16.03c-16.16 16.22-34.8 21.32-55.67 17.96-15.91-2.56-28.91-10.68-39.06-23.2-21.79-26.87-20.23-66.36 2.68-91.74 18.77-20.78 60.19-32.53 91.81-2.81zm-39.67 9.72c-22.83-.1-41.19 18.03-41.16 40.66.03 22.4 18.2 40.57 40.7 40.68 22.67.12 40.85-17.72 41-40.22.14-22.99-17.63-41.02-40.54-41.12zM105.97 489.32c.16-5.21 2.93-11.81 8.36-17.24 33.26-33.18 66.56-66.33 99.8-99.53 6.92-6.91 15.08-10.45 24.83-9.06 11.55 1.65 19.62 8.12 23.38 19.22 3.77 11.12 1.16 21.14-7.02 29.43-15.91 16.14-31.97 32.12-48.04 48.1-17.48 17.38-34.98 34.74-52.58 52-8.93 8.76-20.84 10.92-31.8 6.13-10.6-4.64-17.12-14.85-16.93-29.05zM1793.34 554.53h-105.9c-1.84 11.73 8.82 27.48 22.23 33.45 18.74 8.35 37.18 2.79 52.62-16.22l24.21 9.62c-8.79 22.33-40.26 44.48-80.96 33.44-34.66-9.4-55.14-44.53-47.17-80.34 8.25-37.06 42.49-59.09 81.39-52.37 33.55 5.8 57.55 37.8 53.58 72.42zm-103.45-22.65h71.02c-2.88-13.91-17.03-24.55-33.36-25.29-17.02-.78-32.88 9.69-37.66 25.29zM424.3 594.33c.03 10.31-2.8 17.06-8.37 22.62-33.38 33.3-66.75 66.6-100.19 99.85-11.62 11.55-28.55 12.12-40.06 1.56-12.12-11.13-12.6-29.39-.75-41.47 15.05-15.34 30.32-30.47 45.56-45.63a13457.3 13457.3 0 0155.06-54.45c8.91-8.75 20.84-11.07 31.77-6.1 11.11 5.03 16.6 13.92 16.98 23.62zM908.96 483.89v9.97c1.61-1.04 2.67-1.65 3.65-2.38 15.65-11.57 32.67-14.31 50.32-5.96 17.65 8.35 26.87 23.18 27.19 42.67.45 27.82.15 55.66.16 83.49 0 .95-.16 1.91-.27 3.08h-28.95v-5.18c0-25 .02-49.99-.01-74.99-.02-16.38-10.13-27.02-25.54-26.96-15.46.06-26.39 11.17-26.43 27.13-.08 26.49-.02 52.98-.02 79.86h-28.77V483.9c9.45-.01 18.72-.01 28.67-.01z"/><path class="swpth" d="M128.81 527.07c3.79-.17 6.91-.08 9.97-.49 8.02-1.06 14.88-4.54 20.56-10.34 6.38-6.52 12.79-13 19.33-19.66 1.23 1.09 1.98 1.7 2.66 2.38 24.61 24.6 49.24 49.19 73.81 73.83 8.07 8.1 10.9 17.87 7.66 28.86-3.12 10.58-10.39 17.35-21.17 19.77-9.33 2.1-18.23.31-25.07-6.47-29.18-28.93-58.11-58.15-87.75-87.88zM401.7 562.4c-15.03-1.53-25.7 4.26-34.72 14.22-4.89 5.4-10.23 10.39-15.51 15.69-1.1-.98-1.86-1.59-2.56-2.28-24.63-24.62-49.29-49.21-73.86-73.89-8.07-8.1-10.89-17.89-7.56-28.89 3.19-10.56 10.47-17.31 21.28-19.68 9.56-2.1 18.45 0 25.44 6.92 28.65 28.38 57.1 56.96 85.61 85.47.43.43.75.96 1.88 2.44zM1178.32 418.09h28.42v196.54h-28.42V418.09zM1573.05 483.91h28.62v19.05c1.84-2.58 2.92-4.07 3.97-5.57 8.92-12.76 22.18-18.31 36.29-15.42 3.61.74 5.18 1.9 5.18 1.9 0 7.22-.11 19.2-.11 25.51-6.24 0-12.22-.79-17.92.15-16 2.64-26.88 17.11-27.12 35.86-.27 21.14-.09 42.29-.1 63.43v5.82h-28.81V483.91zM1515.91 483.91h28.72V614.7h-28.72V483.91zM1547.99 433.02c.03 9.74-7.9 17.72-17.69 17.81-9.64.09-17.92-7.99-18.03-17.58-.11-9.83 8.22-18.17 18.05-18.08 9.76.08 17.64 8.05 17.67 17.85zM661.33 483.88h28.72v130.81h-28.72V483.88zM657.88 432.77c.11-9.75 8.17-17.69 17.89-17.62 9.88.07 18.09 8.52 17.8 18.31-.28 9.65-8.64 17.59-18.25 17.34-9.84-.25-17.55-8.23-17.44-18.03z"/></svg>