<svg width="648" height="156" viewBox="0 0 648 156" fill="none" xmlns="http://www.w3.org/2000/svg">
<path d="M105.1 120V48.75H122.8V120H105.1ZM113.95 32.4C110.85 32.4 108.4 31.5 106.6 29.7C104.9 27.9 104.05 25.65 104.05 22.95C104.05 20.35 104.95 18.15 106.75 16.35C108.55 14.45 110.95 13.5 113.95 13.5C116.85 13.5 119.2 14.4 121 16.2C122.8 18 123.7 20.25 123.7 22.95C123.7 25.65 122.8 27.9 121 29.7C119.2 31.5 116.85 32.4 113.95 32.4ZM185.294 64.65C179.394 61.85 173.644 60.45 168.044 60.45C164.344 60.45 161.494 61.1 159.494 62.4C157.594 63.7 156.644 65.5 156.644 67.8C156.644 69.7 157.444 71.35 159.044 72.75C160.644 74.05 163.844 75.4 168.644 76.8L173.144 78.15C179.544 80.05 184.344 82.65 187.544 85.95C190.844 89.25 192.494 93.6 192.494 99C192.494 105.9 189.894 111.4 184.694 115.5C179.494 119.5 172.394 121.5 163.394 121.5C153.694 121.5 145.644 119.9 139.244 116.7L143.144 103.5C146.044 104.9 149.094 106.05 152.294 106.95C155.594 107.85 158.994 108.3 162.494 108.3C170.794 108.3 174.944 105.65 174.944 100.35C174.944 97.95 173.944 96.15 171.944 94.95C170.044 93.75 166.744 92.45 162.044 91.05L157.394 89.55C151.194 87.55 146.594 84.95 143.594 81.75C140.694 78.45 139.244 74.15 139.244 68.85C139.244 65.75 139.894 62.9 141.194 60.3C142.494 57.6 144.294 55.3 146.594 53.4C148.994 51.5 151.844 50.05 155.144 49.05C158.544 47.95 162.294 47.4 166.394 47.4C170.494 47.4 174.444 47.8 178.244 48.6C182.144 49.3 185.744 50.4 189.044 51.9L185.294 64.65ZM249.014 64.65C243.114 61.85 237.364 60.45 231.764 60.45C228.064 60.45 225.214 61.1 223.214 62.4C221.314 63.7 220.364 65.5 220.364 67.8C220.364 69.7 221.164 71.35 222.764 72.75C224.364 74.05 227.564 75.4 232.364 76.8L236.864 78.15C243.264 80.05 248.064 82.65 251.264 85.95C254.564 89.25 256.214 93.6 256.214 99C256.214 105.9 253.614 111.4 248.414 115.5C243.214 119.5 236.114 121.5 227.114 121.5C217.414 121.5 209.364 119.9 202.964 116.7L206.864 103.5C209.764 104.9 212.814 106.05 216.014 106.95C219.314 107.85 222.714 108.3 226.214 108.3C234.514 108.3 238.664 105.65 238.664 100.35C238.664 97.95 237.664 96.15 235.664 94.95C233.764 93.75 230.464 92.45 225.764 91.05L221.114 89.55C214.914 87.55 210.314 84.95 207.314 81.75C204.414 78.45 202.964 74.15 202.964 68.85C202.964 65.75 203.614 62.9 204.914 60.3C206.214 57.6 208.014 55.3 210.314 53.4C212.714 51.5 215.564 50.05 218.864 49.05C222.264 47.95 226.014 47.4 230.114 47.4C234.214 47.4 238.164 47.8 241.964 48.6C245.864 49.3 249.464 50.4 252.764 51.9L249.014 64.65ZM269.835 72.9C269.835 69 270.585 65.5 272.085 62.4C273.585 59.2 275.685 56.5 278.385 54.3C281.085 52.1 284.235 50.4 287.835 49.2C291.535 48 295.585 47.4 299.985 47.4C301.585 47.4 303.285 47.55 305.085 47.85C306.885 48.05 308.585 48.35 310.185 48.75H340.635V60.45H334.935L324.735 58.95C326.135 60.75 327.285 62.9 328.185 65.4C329.185 67.8 329.685 70.3 329.685 72.9C329.685 76.7 328.985 80.15 327.585 83.25C326.185 86.35 324.135 89 321.435 91.2C318.835 93.4 315.685 95.1 311.985 96.3C308.385 97.4 304.335 97.95 299.835 97.95C297.035 97.95 294.635 97.75 292.635 97.35C289.635 98.65 288.135 100.55 288.135 103.05C288.135 106.45 290.785 108.15 296.085 108.15H312.885C320.685 108.15 326.885 109.9 331.485 113.4C336.085 116.8 338.385 122.05 338.385 129.15C338.385 133.05 337.485 136.6 335.685 139.8C333.885 143 331.285 145.75 327.885 148.05C324.585 150.35 320.585 152.1 315.885 153.3C311.185 154.6 305.935 155.25 300.135 155.25C289.435 155.25 280.985 153.35 274.785 149.55C268.585 145.85 265.485 140.4 265.485 133.2C265.485 129.7 266.585 126.7 268.785 124.2C271.085 121.8 274.135 119.95 277.935 118.65C276.335 117.55 274.885 116.15 273.585 114.45C272.385 112.65 271.785 110.35 271.785 107.55C271.785 104.35 272.735 101.6 274.635 99.3C276.635 96.9 279.235 95 282.435 93.6C279.135 91.9 276.185 89.4 273.585 86.1C271.085 82.7 269.835 78.3 269.835 72.9ZM287.985 121.65C286.085 122.45 284.585 123.6 283.485 125.1C282.385 126.6 281.835 128.45 281.835 130.65C281.835 134.15 283.285 136.85 286.185 138.75C289.185 140.75 294.035 141.75 300.735 141.75C304.335 141.75 307.385 141.4 309.885 140.7C312.485 140.1 314.585 139.25 316.185 138.15C317.885 137.05 319.085 135.8 319.785 134.4C320.585 133 320.985 131.55 320.985 130.05C320.985 126.85 319.885 124.65 317.685 123.45C315.485 122.25 312.335 121.65 308.235 121.65H287.985ZM312.135 72.9C312.135 68.4 310.985 65.1 308.685 63C306.385 60.8 303.435 59.7 299.835 59.7C296.135 59.7 293.135 60.8 290.835 63C288.535 65.2 287.385 68.4 287.385 72.6C287.385 77 288.535 80.25 290.835 82.35C293.235 84.45 296.235 85.5 299.835 85.5C303.535 85.5 306.485 84.45 308.685 82.35C310.985 80.25 312.135 77.1 312.135 72.9ZM354.228 120V48.75H367.878L370.128 62.1C371.828 58 374.528 54.55 378.228 51.75C381.928 48.85 386.528 47.4 392.028 47.4C394.428 47.4 396.528 47.65 398.328 48.15C400.128 48.65 401.628 49.2 402.828 49.8L399.828 64.2C398.728 63.6 397.378 63.1 395.778 62.7C394.178 62.2 392.228 61.95 389.928 61.95C384.828 61.95 380.528 63.7 377.028 67.2C373.528 70.7 371.778 76.25 371.778 83.85V120H354.228ZM476.088 83.85C476.088 89.75 475.138 95.05 473.238 99.75C471.438 104.45 468.888 108.4 465.588 111.6C462.288 114.8 458.438 117.25 454.038 118.95C449.638 120.65 444.888 121.5 439.788 121.5C434.688 121.5 429.938 120.7 425.538 119.1C421.238 117.5 417.488 115.2 414.288 112.2C411.088 109.1 408.588 105.3 406.788 100.8C404.988 96.3 404.088 91.15 404.088 85.35C404.088 79.35 404.988 74 406.788 69.3C408.688 64.5 411.288 60.5 414.588 57.3C417.888 54.1 421.738 51.65 426.138 49.95C430.538 48.25 435.288 47.4 440.388 47.4C445.488 47.4 450.188 48.2 454.488 49.8C458.888 51.3 462.688 53.6 465.888 56.7C469.088 59.8 471.588 63.6 473.388 68.1C475.188 72.6 476.088 77.85 476.088 83.85ZM457.788 84.6C457.788 80.3 457.288 76.65 456.288 73.65C455.288 70.55 453.938 68.05 452.238 66.15C450.638 64.25 448.738 62.85 446.538 61.95C444.438 61.05 442.238 60.6 439.938 60.6C437.638 60.6 435.438 61 433.338 61.8C431.238 62.5 429.388 63.8 427.788 65.7C426.188 67.5 424.888 69.95 423.888 73.05C422.888 76.15 422.388 80 422.388 84.6C422.388 88.8 422.888 92.4 423.888 95.4C424.888 98.3 426.188 100.75 427.788 102.75C429.488 104.65 431.388 106.05 433.488 106.95C435.688 107.85 437.938 108.3 440.238 108.3C442.438 108.3 444.588 107.9 446.688 107.1C448.888 106.3 450.788 105 452.388 103.2C453.988 101.4 455.288 99 456.288 96C457.288 92.9 457.788 89.1 457.788 84.6ZM537.401 48.75H555.101V120H541.751L539.651 111.75H539.051C536.751 114.15 533.701 116.4 529.901 118.5C526.101 120.5 521.351 121.5 515.651 121.5C508.151 121.5 502.151 119.4 497.651 115.2C493.151 111 490.901 104.7 490.901 96.3V48.75H508.601V94.5C508.601 99.4 509.701 102.9 511.901 105C514.201 107 517.101 108 520.601 108C524.301 108 527.501 107.25 530.201 105.75C533.001 104.15 535.401 102.2 537.401 99.9V48.75ZM606.208 121.5C603.308 121.5 600.508 121.15 597.808 120.45C595.208 119.75 593.008 118.8 591.208 117.6V154.5H573.658V48.3H587.308L589.408 56.7C592.208 54 595.408 51.8 599.008 50.1C602.608 48.3 606.708 47.4 611.308 47.4C620.708 47.4 628.108 50.55 633.508 56.85C639.008 63.05 641.758 71.75 641.758 82.95C641.758 89.35 640.758 94.95 638.758 99.75C636.858 104.55 634.258 108.6 630.958 111.9C627.758 115.1 624.008 117.5 619.708 119.1C615.408 120.7 610.908 121.5 606.208 121.5ZM606.808 61.05C603.208 61.05 600.058 61.95 597.358 63.75C594.658 65.45 592.608 67.15 591.208 68.85V104.25C592.908 105.65 594.858 106.7 597.058 107.4C599.258 108 601.558 108.3 603.958 108.3C606.358 108.3 608.708 107.85 611.008 106.95C613.308 106.05 615.358 104.65 617.158 102.75C619.058 100.75 620.558 98.2 621.658 95.1C622.858 91.9 623.458 88 623.458 83.4C623.458 76.8 622.058 71.45 619.258 67.35C616.558 63.15 612.408 61.05 606.808 61.05Z" fill="#4F4F4F"/>
<path fill-rule="evenodd" clip-rule="evenodd" d="M0 85.8196V119.99H23.701V82.968L32.697 73.453L64.875 119.99H94.112L49.997 58.575L90.652 11H61.242L35.5347 42.3938L35.535 42.394L0 85.8196ZM0 69.8518L23.701 40.8879V11H0V69.8518Z" fill="#2658E6"/>
</svg>
