<?xml version="1.0" standalone="no"?>
<!DOCTYPE svg PUBLIC "-//W3C//DTD SVG 20010904//EN"
 "http://www.w3.org/TR/2001/REC-SVG-20010904/DTD/svg10.dtd">
<svg version="1.0" xmlns="http://www.w3.org/2000/svg"
 width="726.000000pt" height="164.000000pt" viewBox="0 0 726.000000 164.000000"
 preserveAspectRatio="xMidYMid meet">

<g transform="translate(0.000000,164.000000) scale(0.100000,-0.100000)"
fill="#000000" stroke="none">
<path d="M1124 1626 c-84 -37 -87 -153 -6 -192 75 -35 162 15 162 94 0 47 -22
80 -66 98 -41 17 -50 17 -90 0z"/>
<path d="M0 1208 c0 -279 1 -292 18 -271 9 11 61 75 115 141 l97 119 0 152 0
151 -115 0 -115 0 0 -292z"/>
<path d="M307 1124 l-307 -376 0 -169 0 -169 115 0 115 0 0 183 1 182 48 52
49 52 162 -235 162 -234 139 0 c76 0 139 3 139 6 0 3 -97 140 -215 305 -127
177 -213 305 -208 312 5 8 223 265 381 450 14 16 7 17 -129 17 l-144 0 -308
-376z"/>
<path d="M1707 1239 c-154 -22 -241 -112 -240 -246 1 -119 58 -180 220 -233
166 -55 201 -81 186 -141 -10 -39 -32 -57 -88 -70 -57 -13 -157 -1 -223 27
-19 8 -40 14 -46 14 -10 0 -46 -103 -46 -133 0 -36 217 -72 339 -57 170 22
261 108 261 248 0 74 -12 107 -53 150 -41 43 -100 73 -211 107 -128 38 -173
91 -131 152 34 48 157 55 264 14 28 -10 52 -16 54 -13 2 4 12 35 22 70 22 75
23 75 -80 96 -99 21 -161 25 -228 15z"/>
<path d="M2445 1240 c-152 -22 -245 -116 -245 -247 0 -56 18 -103 54 -141 39
-43 86 -66 210 -108 55 -19 110 -44 123 -56 34 -32 31 -79 -7 -111 -54 -46
-155 -46 -276 -2 l-62 22 -20 -71 c-12 -38 -19 -73 -16 -77 9 -15 106 -41 186
-49 91 -9 206 2 264 26 100 42 162 145 151 251 -11 108 -71 163 -234 218 -54
18 -113 40 -131 49 -52 27 -57 94 -9 130 39 29 158 28 238 -1 l57 -21 17 61
c9 34 19 66 21 72 12 31 -219 70 -321 55z"/>
<path d="M3246 1239 c-114 -17 -202 -74 -249 -163 -18 -33 -22 -57 -22 -126 1
-101 13 -128 85 -193 l51 -46 -30 -15 c-38 -20 -77 -71 -86 -113 -9 -43 9
-104 40 -133 l24 -23 -51 -31 c-79 -48 -104 -114 -78 -208 15 -53 54 -95 119
-127 76 -39 142 -51 269 -51 173 0 297 43 372 127 56 64 76 134 61 216 -13 74
-48 122 -117 157 -44 23 -62 25 -234 31 -102 4 -186 7 -187 8 -17 10 -33 38
-33 60 0 46 22 55 144 62 127 6 196 30 255 90 75 74 96 195 53 293 -12 27 -22
50 -22 53 0 2 38 1 85 -3 l85 -7 0 65 0 66 -217 5 c-120 3 -227 7 -238 10 -11
3 -46 1 -79 -4z m116 -139 c75 -21 115 -113 87 -202 -19 -58 -65 -88 -133 -88
-63 0 -93 15 -124 60 -33 48 -28 146 8 186 46 49 95 62 162 44z m148 -725 c92
-48 52 -166 -68 -201 -76 -22 -224 -16 -272 12 -70 40 -85 126 -32 179 24 25
27 25 184 25 122 0 166 -3 188 -15z"/>
<path d="M4355 1245 c-5 -2 -26 -6 -46 -9 -51 -9 -114 -54 -154 -110 l-33 -47
-13 75 -12 76 -78 0 -79 0 0 -410 0 -410 99 0 99 0 4 252 c3 217 6 259 21 293
40 89 115 132 215 122 31 -3 64 -8 73 -12 13 -5 18 6 28 57 7 35 14 70 17 79
3 11 -5 20 -23 27 -31 12 -103 22 -118 17z"/>
<path d="M4874 1240 c-162 -24 -268 -106 -328 -254 -17 -42 -20 -73 -21 -176
0 -116 2 -129 28 -185 37 -78 68 -118 122 -155 166 -114 427 -93 555 46 23 25
56 75 73 112 31 65 32 71 32 202 0 125 -2 139 -27 192 -56 120 -164 197 -304
218 -38 5 -71 9 -74 9 -3 -1 -28 -5 -56 -9z m109 -151 c53 -14 100 -60 128
-121 20 -44 24 -70 24 -153 0 -89 -3 -106 -28 -157 -16 -32 -40 -66 -55 -76
-104 -73 -237 -39 -293 75 -21 42 -24 62 -24 168 0 104 3 125 22 160 28 52 62
83 110 100 47 17 67 18 116 4z"/>
<path d="M6849 1240 c-50 -9 -116 -39 -166 -76 l-31 -24 -12 51 -12 50 -77 -3
-76 -3 0 -610 0 -610 98 -3 97 -3 0 216 0 216 29 -15 c46 -24 139 -35 211 -25
234 33 373 243 339 514 -14 109 -49 184 -115 245 -76 68 -180 98 -285 80z
m108 -178 c18 -12 44 -48 60 -80 25 -51 28 -68 28 -152 -1 -78 -5 -105 -24
-148 -46 -104 -145 -156 -253 -133 -102 22 -98 12 -98 245 l0 204 37 32 c54
48 90 61 158 57 43 -2 70 -9 92 -25z"/>
<path d="M1070 820 l0 -410 100 0 100 0 0 410 0 410 -100 0 -100 0 0 -410z"/>
<path d="M5520 927 c0 -244 3 -313 15 -355 38 -128 166 -195 330 -171 74 10
101 22 168 73 l46 35 11 -37 c5 -20 10 -43 10 -49 0 -9 23 -13 80 -13 l80 0 0
410 0 410 -100 0 -100 0 0 -293 0 -293 -27 -26 c-50 -47 -103 -68 -169 -68
-48 0 -67 5 -89 22 -52 40 -55 63 -55 373 l0 285 -100 0 -100 0 0 -303z"/>
</g>
</svg>
