<?xml version="1.0" encoding="UTF-8" standalone="no"?>
<svg
   xmlns:dc="http://purl.org/dc/elements/1.1/"
   xmlns:cc="http://creativecommons.org/ns#"
   xmlns:rdf="http://www.w3.org/1999/02/22-rdf-syntax-ns#"
   xmlns:svg="http://www.w3.org/2000/svg"
   xmlns="http://www.w3.org/2000/svg"
   viewBox="0 0 566.92865 79.494668"
   height="79.494667"
   width="566.92865"
   xml:space="preserve"
   id="svg64"
   version="1.1"><metadata
     id="metadata70"><rdf:RDF><cc:Work
         rdf:about=""><dc:format>image/svg+xml</dc:format><dc:type
           rdf:resource="http://purl.org/dc/dcmitype/StillImage" /><dc:title></dc:title></cc:Work></rdf:RDF></metadata><defs
     id="defs68" /><g
     transform="matrix(1.3333333,0,0,-1.3333333,-113.386,228.72399)"
     id="g72"><g
       transform="scale(0.1)"
       id="g74"><g
         transform="scale(10)"
         id="g76" /><path
         id="path82"
         style="fill:#1d2a54;fill-opacity:1;fill-rule:nonzero;stroke:none"
         d="m 1009,1126.65 v 312.77 h 78.14 v 62.41 H 1009 v 84.27 c 0,19.41 5.11,34.32 15.36,44.73 10.23,10.4 25.59,15.6 46.06,15.6 7.25,0 14.06,-0.35 20.41,-1.04 6.35,-0.69 12.11,-1.51 17.3,-2.43 l 9.72,65.19 c -11.66,2.31 -22.16,4.1 -31.49,5.38 -9.33,1.26 -18.53,1.9 -27.6,1.9 -45.62,0 -81.053,-11.21 -106.322,-33.63 -25.266,-22.43 -37.903,-54.33 -37.903,-95.7 v -84.27 h -64.14 v -62.41 h 64.14 v -312.77 z m 264.41,579.71 h -91.71 v -579.71 h 91.71 z m 359.76,-574.05 c 25.66,8.73 46.29,19.46 61.9,32.2 l -29.82,56.26 c -15.6,-10.62 -32.52,-18.75 -50.76,-24.41 -18.25,-5.67 -39.82,-8.5 -64.73,-8.5 -33.47,0 -58.5,9.79 -75.11,29.37 -16.6,19.58 -25.41,45.05 -26.42,76.43 l 0.76,1.77 h 252.49 v 46.35 c 0,53.07 -14.09,95.47 -42.27,127.2 -28.18,31.72 -69.7,47.59 -124.55,47.59 -53.09,0.23 -96.43,-17.87 -130.02,-54.31 -33.59,-36.45 -50.38,-82.74 -50.38,-138.88 v -14.15 c 0,-56.15 16.79,-101.85 50.38,-137.11 33.59,-35.27 80.2,-52.9 139.84,-52.9 33.46,0 63.02,4.37 88.69,13.09 z m -40.57,292.44 c 12.2,-15.21 18.3,-35.09 18.3,-59.62 v -6.72 h -159.65 l -0.75,1.77 c 3.52,25.94 12.45,46.99 26.8,63.15 14.34,16.16 33.46,24.24 57.36,24.24 26.42,0 45.73,-7.61 57.94,-22.82" /><path
         id="path84"
         style="fill:#99d420;fill-opacity:1;fill-rule:nonzero;stroke:none"
         d="m 2203.74,1316.33 171.2,182.7 H 2265.2 l -113.17,-128.19 -128.37,128.19 h -109.12 l 181.03,-182.7 -179.42,-186.03 107.01,-0.05 123.18,132.31 116.71,-132.31 h 110.54 l -169.85,186.08" /><path
         id="path86"
         style="fill:#99d420;fill-opacity:1;fill-rule:nonzero;stroke:none"
         d="m 2034.72,1315.44 -178.32,183.59 h -109.12 l 181.03,-182.7 -183.63,-186.03 106.11,-0.05 183.93,185.19" /><path
         id="path88"
         style="fill:#1d2a54;fill-opacity:1;fill-rule:nonzero;stroke:none"
         d="m 2493.54,1500.95 v -374.3 h 44.28 v 264.99 c 8.6,24.44 22.56,43.93 41.88,58.46 19.31,14.53 44.7,21.79 76.2,21.79 31.48,0 55.77,-8.88 72.87,-26.63 17.1,-17.77 25.65,-48.09 25.65,-90.98 v -227.63 h 44.28 v 227.97 c 0,52.58 -11.32,91.27 -33.95,116.06 -22.63,24.79 -55.6,37.19 -98.89,37.19 -29.77,0 -55.48,-6.29 -77.12,-18.85 -21.65,-12.58 -38.99,-30.27 -52.03,-53.1 l -4.06,65.03 z m 654.05,-367.9 c 22.75,9.11 41.14,20.58 55.16,34.42 l -18.82,28.37 c -13.53,-12.69 -30.5,-22.78 -50.92,-30.27 -20.42,-7.5 -42.8,-11.24 -67.16,-11.24 -40.59,0 -72.38,14.06 -95.38,42.2 -23.01,28.13 -34.5,63.53 -34.5,106.2 v 11.42 h 277.85 v 32.17 c 0,49.35 -13.22,88.61 -39.66,117.79 -26.45,29.17 -63.9,43.76 -112.36,43.76 -48.22,0 -88.63,-17.53 -121.22,-52.58 -32.6,-35.06 -48.89,-79.57 -48.89,-133.53 v -19.03 c 0,-53.74 16.11,-97.72 48.34,-131.97 32.22,-34.25 74.16,-51.37 125.82,-51.37 31.74,0 58.98,4.55 81.74,13.66 z m -5.91,307.19 c 18.58,-21.57 27.86,-48.95 27.86,-82.16 v -8.65 h -228.78 l -1.1,2.08 c 3.69,35.05 16.48,64 38.37,86.83 21.9,22.83 49.82,34.24 83.77,34.24 34.68,0 61.31,-10.78 79.88,-32.34 z m 185.8,156.53 v -95.82 h -69.01 v -33.9 h 69.01 v -243.88 c 0,-35.98 7.8,-62.27 23.43,-78.88 15.62,-16.6 37.45,-24.9 65.49,-24.9 8.61,0 17.28,0.86 26.02,2.59 8.73,1.73 16.05,3.98 21.95,6.75 l -6.64,30.79 c -6.89,-1.39 -12.86,-2.37 -17.89,-2.95 -5.05,-0.57 -10.28,-0.86 -15.69,-0.86 -15.74,0 -28.35,5.13 -37.82,15.39 -9.47,10.26 -14.21,27.62 -14.21,52.07 v 243.88 h 87.83 v 33.9 h -87.83 v 95.82 z m 231.73,-95.82 h -47.24 l 115.87,-374.3 h 38.01 l 88.56,255.99 15.86,60.54 h 2.22 l 15.87,-60.54 90.4,-255.99 h 37.64 l 116.23,374.3 h -47.23 l -71.22,-252.88 -17.34,-70.57 h -2.21 l -18.45,70.57 -84.87,252.88 h -38.01 l -84.87,-252.88 -18.45,-68.49 h -2.21 l -15.5,68.49 z m 534.31,-193.03 c 0,-55.35 16.11,-100.61 48.34,-135.78 32.22,-35.17 75.15,-52.75 128.78,-52.75 53.13,0 95.75,17.58 127.86,52.75 32.1,35.17 48.15,80.43 48.15,135.78 v 11.42 c 0,55.11 -16.11,100.32 -48.34,135.6 -32.23,35.29 -75.03,52.93 -128.41,52.93 -53.14,0 -95.82,-17.64 -128.04,-52.93 -32.23,-35.28 -48.34,-80.49 -48.34,-135.6 z m 44.28,11.42 c 0,42.66 11.68,78.87 35.05,108.62 23.37,29.75 55.72,44.62 97.05,44.62 41.33,0 73.8,-14.87 97.42,-44.62 23.61,-29.75 35.42,-65.96 35.42,-108.62 v -11.42 c 0,-43.36 -11.75,-79.8 -35.24,-109.31 -23.49,-29.53 -55.78,-44.28 -96.86,-44.28 -41.83,0 -74.42,14.75 -97.79,44.28 -23.37,29.51 -35.05,65.95 -35.05,109.31 z m 588.92,184.72 c -3.2,0.92 -7.26,1.79 -12.18,2.6 -4.92,0.8 -10.09,1.21 -15.49,1.21 -26.82,0 -49.95,-6.46 -69.38,-19.37 -19.43,-12.92 -34.93,-30.91 -46.49,-53.97 v 4.15 l -5.54,62.27 h -38.74 v -374.3 h 44.28 v 258.41 c 7.62,25.6 20.35,45.72 38.19,60.37 17.83,14.64 40.65,21.96 68.45,21.96 l 31.37,-2.07 z m 323.98,-377.41 h 50.55 l 1.11,1.73 -177.12,200.99 163.84,169.85 -0.74,1.73 h -51.66 l -153.13,-156.36 h -42.07 v 362.29 h -44.28 v -580.23 h 44.28 v 182.31 h 46.49 l 162.73,-182.31" /></g></g></svg>