<svg id="Calque_1" data-name="Calque 1" xmlns="http://www.w3.org/2000/svg" xmlns:xlink="http://www.w3.org/1999/xlink" viewBox="27 30.48 288.4 79.40">
	<defs>
		<style>
			.cls-1{fill:none;}
			.cls-2{fill:none;}
			.cls-3{fill:#00539e;}
			.cls-4{clip-path:url(#clip-path);}
			.cls-5{fill:#6ab02e;}
			.cls-6{font-size:16px;fill:#1d1d1b;font-family:DIN-Bold, DIN;font-weight:700;}
		</style>
		<clipPath id="clip-path">
			<rect class="cls-1" x="27" y="30.48" width="308.36" height="95.25"/>
		</clipPath>
	</defs>
	<title>Logo slogan svg 3</title>

		<rect class="cls-3" x="27.04" y="40.35" width="6.06" height="43.65"/>
		<g class="cls-4">
			<path class="cls-3" d="M92.89,43.92a12,12,0,0,1,3.66,8.81V71.56A12.48,12.48,0,0,1,84.11,84H51.59V77.95H84.11a6.43,6.43,0,0,0,6.38-6.38V52.74A6.43,6.43,0,0,0,84.1,46.3H51.59a6,6,0,0,0-4.49,1.88,6.28,6.28,0,0,0-1.84,4.56V91.26H39.2V52.74A12.41,12.41,0,0,1,51.59,40.3H84.1a12,12,0,0,1,8.79,3.63"/>
			<path class="cls-5" d="M117.93,43.3v-3H124V71.55a6.34,6.34,0,0,0,6.38,6.39h42.94V84H130.37a12.49,12.49,0,0,1-12.44-12.46V43.3Z"/>
		</g>
		<rect class="cls-5" x="178.24" y="40.35" width="6.06" height="43.65"/>
		<g class="cls-4">
			<path class="cls-5" d="M244.52,84V52.79a6.12,6.12,0,0,0-1.88-4.53,6.19,6.19,0,0,0-4.5-1.85H202.74a6.33,6.33,0,0,0-6.38,6.39V84H190.3V52.79a12.43,12.43,0,0,1,12.44-12.44h35.39a12.43,12.43,0,0,1,12.44,12.44V84Z"/>
			<path class="cls-5" d="M307.11,57.29a6.37,6.37,0,0,0-4.5-10.89H268.09a6.33,6.33,0,0,0-6.38,6.38V71.56a6.33,6.33,0,0,0,6.38,6.38h46.09V84H268.09a12.44,12.44,0,0,1-12.44-12.44V52.79a12.43,12.43,0,0,1,12.44-12.44h34.52a12.43,12.43,0,0,1,12.44,12.44,11.89,11.89,0,0,1-3.65,8.76,12,12,0,0,1-8.79,3.63h-36.7v-6h36.7a6.14,6.14,0,0,0,4.5-1.88"/>
		</g>
		<rect class="cls-5" x="178.24" y="30.48" width="6.06" height="6.06"/>
		<rect class="cls-3" x="27" y="30.48" width="6.06" height="6.06"/>
		<g class="cls-4">
			<path class="cls-3" d="M204.71,71.82c3.55,7.18,12,9,19.28,7,8.3-2.28,12.84-7.57,13.53-16.07.24-3-4.36-2.94-4.6,0-.52,6.4-4,10-10.15,11.63-5.37,1.41-11.41.51-14.09-4.88-1.31-2.66-5.29-.33-4,2.32"/>
		</g>
		<path class="cls-3" d="M165.06,108.81a4.15,4.15,0,0,1-3,1.09h-4.11V98.51h4.11a4.15,4.15,0,0,1,3,1.09c1.28,1.28,1.15,2.85,1.15,4.56S166.35,107.53,165.06,108.81Zm-1.55-7.62a2,2,0,0,0-1.66-.71h-1.68v7.43h1.68a2,2,0,0,0,1.66-.71c.42-.51.48-1.33.48-3.06S163.93,101.71,163.51,101.2Z"/>
		<path class="cls-3" d="M176.18,108.75a4.43,4.43,0,0,1-6.16,0c-1.15-1.15-1.12-2.58-1.12-4.55s0-3.39,1.12-4.55a4.43,4.43,0,0,1,6.16,0c1.15,1.15,1.14,2.58,1.14,4.55S177.34,107.6,176.18,108.75ZM174.54,101a1.85,1.85,0,0,0-1.42-.61,1.88,1.88,0,0,0-1.44.61c-.43.48-.54,1-.54,3.2s.11,2.72.54,3.2a1.88,1.88,0,0,0,1.44.61,1.85,1.85,0,0,0,1.42-.61c.43-.48.56-1,.56-3.2S175,101.48,174.54,101Z"/>
		<path class="cls-3" d="M187.13,109.9l-4.51-7v7h-2.23V98.51h2l4.51,7v-7h2.22v11.4Z"/>
		<path class="cls-3" d="M192.31,102.14V98.51h2.18v2Z"/>
		<path class="cls-3" d="M202.07,100.49v9.41h-2.23v-9.41h-3v-2H205v2Z"/>
		<path class="cls-3" d="M221.88,109.9H220l-2.1-6.92-2.1,6.92H214l-3-11.4h2.32l1.76,7.19,2.08-7.19h1.66l2.08,7.19,1.78-7.19h2.32Z"/>
		<path class="cls-3" d="M233.88,108.75a4.43,4.43,0,0,1-6.16,0c-1.15-1.15-1.12-2.58-1.12-4.55s0-3.39,1.12-4.55a4.43,4.43,0,0,1,6.16,0c1.15,1.15,1.14,2.58,1.14,4.55S235,107.6,233.88,108.75ZM232.23,101a1.85,1.85,0,0,0-1.42-.61,1.88,1.88,0,0,0-1.44.61c-.43.48-.54,1-.54,3.2s.11,2.72.54,3.2a1.88,1.88,0,0,0,1.44.61,1.85,1.85,0,0,0,1.42-.61c.43-.48.56-1,.56-3.2S232.66,101.48,232.23,101Z"/>
		<path class="cls-3" d="M244.14,109.9l-2.22-4.55h-1.6v4.55h-2.23V98.51h4.47a3.45,3.45,0,0,1,3.7,3.49,3.07,3.07,0,0,1-2.08,3l2.54,4.91Zm-1.73-9.41h-2.1v3h2.1a1.51,1.51,0,1,0,0-3Z"/>
		<path class="cls-3" d="M255.4,109.9l-2.22-4.55h-1.6v4.55h-2.23V98.51h4.47a3.45,3.45,0,0,1,3.7,3.49,3.07,3.07,0,0,1-2.08,3L258,109.9Zm-1.73-9.41h-2.1v3h2.1a1.51,1.51,0,1,0,0-3Z"/>
		<path class="cls-3" d="M265,105.23v4.67h-2.21v-4.67l-3.43-6.72h2.42l2.13,4.59,2.1-4.59h2.42Z"/>
		<path class="cls-3" d="M279.85,109.9h-4.77V98.51h4.58c2.22,0,3.52,1.25,3.52,3.2a2.63,2.63,0,0,1-1.41,2.35,2.65,2.65,0,0,1,1.57,2.56C283.34,108.75,281.88,109.9,279.85,109.9Zm-.37-9.41H277.3v2.63h2.18a1.32,1.32,0,1,0,0-2.62Zm.14,4.63H277.3v2.8h2.32a1.4,1.4,0,1,0,0-2.8Z"/>
		<path class="cls-3" d="M286.4,109.9V98.51h7.51v2h-5.28v2.67h4.5v2h-4.5v2.77h5.28v2Z"/>
		<text class="cls-6" transform="translate(295.59 109.9)"></text>
		<path class="cls-5" d="M301.43,109.9V98.51h2.23v11.4Z"/>
		<path class="cls-5" d="M311.51,105.61h-2.19v4.29h-2.23V98.51h4.42a3.56,3.56,0,1,1,0,7.11Zm-.11-5.12h-2.08v3.12h2.08a1.56,1.56,0,1,0,0-3.12Z"/>
</svg>
