<?xml version="1.0" encoding="UTF-8" standalone="no"?>
<svg
   xmlns:dc="http://purl.org/dc/elements/1.1/"
   xmlns:cc="http://creativecommons.org/ns#"
   xmlns:rdf="http://www.w3.org/1999/02/22-rdf-syntax-ns#"
   xmlns:svg="http://www.w3.org/2000/svg"
   xmlns="http://www.w3.org/2000/svg"
   id="svg9186"
   version="1.1"
   viewBox="0 0 71.695741 30.467465"
   height="115.15262"
   width="270.97601">
  <defs
     id="defs9180" />
  <metadata
     id="metadata9183">
    <rdf:RDF>
      <cc:Work
         rdf:about="">
        <dc:format>image/svg+xml</dc:format>
        <dc:type
           rdf:resource="http://purl.org/dc/dcmitype/StillImage" />
        <dc:title></dc:title>
      </cc:Work>
    </rdf:RDF>
  </metadata>
  <g
     transform="translate(-42.875732,-206.50216)"
     id="layer1">
    <g
       transform="translate(0,-1.0583333)"
       id="g10099">
      <path
         id="path9263"
         style="fill:#02a7ea;fill-opacity:1;fill-rule:nonzero;stroke:none;stroke-width:0.03527778"
         d="m 92.007802,220.84822 c 0,0 -4.525786,2.47015 -4.525786,5.6206 h 1.705328 c 0,0 0.354188,-2.07627 2.820458,-3.6631" />
      <path
         id="path9265"
         style="fill:#02a7ea;fill-opacity:1;fill-rule:nonzero;stroke:none;stroke-width:0.03527778"
         d="m 89.187344,226.46882 h -1.705328 v -8.84174 c 0,-0.33651 -0.122767,-0.6277 -0.3683,-0.87298 -0.245886,-0.246 -0.536928,-0.36933 -0.873831,-0.36933 -0.351014,0 -0.645583,0.12333 -0.884061,0.36933 -0.238831,0.24528 -0.35807,0.53647 -0.35807,0.87298 v 8.84174 h -1.705327 v -8.84174 c 0,-0.33651 -0.122767,-0.6277 -0.368301,-0.87298 -0.245533,-0.246 -0.536575,-0.36933 -0.873477,-0.36933 -0.350661,0 -0.645584,0.12333 -0.884062,0.36933 -0.23883,0.24528 -0.358069,0.53647 -0.358069,0.87298 v 8.84174 H 79.10319 v -11.7887 h 1.137356 l 0.378883,0.65253 c 0.322439,-0.4348 0.799395,-0.65253 1.43122,-0.65253 0.86995,0 1.579033,0.37182 2.126544,1.11555 0.36442,-0.74373 1.051984,-1.11555 2.062692,-1.11555 0.813858,0 1.508478,0.28776 2.084211,0.86335 0.575381,0.57534 0.863248,1.26986 0.863248,2.08361 v 8.84174" />
      <path
         id="path9267"
         style="fill:#02a7ea;fill-opacity:1;fill-rule:nonzero;stroke:none;stroke-width:0.03527778"
         d="m 94.491711,217.62708 c 0,-0.33651 -0.122767,-0.6277 -0.367948,-0.87298 -0.245886,-0.246 -0.536928,-0.36933 -0.87383,-0.36933 -0.350661,0 -0.645584,0.12333 -0.884061,0.36933 -0.238831,0.24528 -0.35807,0.53647 -0.35807,0.87298 v 3.22114 c 1.010708,-0.57531 1.655939,-1.02429 1.937103,-1.34771 0.364419,-0.42101 0.546806,-1.04525 0.546806,-1.87343 z m 1.70568,5.89453 c 0,0.81442 -0.287866,1.50897 -0.863247,2.08403 -0.575733,0.57602 -1.270353,0.86318 -2.084211,0.86318 -0.814211,0 -1.508831,-0.28716 -2.084212,-0.86318 -0.57538,-0.57506 -0.863247,-1.26961 -0.863247,-2.08403 v -5.89453 c 0,-0.81375 0.287867,-1.50827 0.863247,-2.08361 0.575381,-0.57559 1.270001,-0.86335 2.084212,-0.86335 0.813858,0 1.508478,0.28776 2.084211,0.86335 0.575381,0.57534 0.863247,1.26986 0.863247,2.08361 0,0.96848 -0.130175,1.70187 -0.389819,2.20003 -0.259645,0.49816 -0.719314,0.97194 -1.379009,1.42074 -0.813858,0.51954 -1.620308,1.03879 -2.420761,1.55787 v 0.71589 c 0,0.35073 0.119239,0.64562 0.35807,0.88445 0.238477,0.23841 0.5334,0.35719 0.884061,0.35719 0.336902,0 0.627944,-0.11878 0.87383,-0.35719 0.245181,-0.23883 0.367948,-0.53372 0.367948,-0.88445 v -0.18948 l 1.70568,-0.56885 v 0.75833" />
      <path
         id="path9269"
         style="fill:#014b72;fill-opacity:1;fill-rule:nonzero;stroke:none;stroke-width:0.03527778"
         d="m 107.01109,226.46882 h -1.1363 l -0.37923,-0.65274 c -0.33691,0.43504 -0.81422,0.65274 -1.43158,0.65274 -0.81456,0 -1.50918,-0.28716 -2.08421,-0.86318 -0.57538,-0.57506 -0.8636,-1.26961 -0.8636,-2.08403 v -8.84149 h 1.70568 v 8.84149 c 0,0.35073 0.11889,0.64562 0.35737,0.88445 0.23918,0.23841 0.5341,0.35719 0.88476,0.35719 0.33691,0 0.62795,-0.11878 0.87348,-0.35719 0.24553,-0.23883 0.36795,-0.53372 0.36795,-0.88445 v -8.84149 h 1.70568 v 11.7887" />
      <path
         id="path9271"
         style="fill:#014b72;fill-opacity:1;fill-rule:nonzero;stroke:none;stroke-width:0.03527778"
         d="m 112.33698,223.52161 v -5.89453 c 0,-0.33651 -0.12348,-0.6277 -0.36866,-0.87298 -0.24518,-0.246 -0.53657,-0.36933 -0.87312,-0.36933 -0.35137,0 -0.64629,0.12333 -0.88442,0.36933 -0.23883,0.24528 -0.35771,0.53647 -0.35771,0.87298 v 5.89453 c 0,0.35073 0.11888,0.64562 0.35771,0.88445 0.23813,0.23841 0.53305,0.35719 0.88442,0.35719 0.33655,0 0.62794,-0.11878 0.87312,-0.35719 0.24518,-0.23883 0.36866,-0.53372 0.36866,-0.88445 z m 1.70532,0 c 0,0.81442 -0.28786,1.50897 -0.86324,2.08403 -0.57574,0.57602 -1.27071,0.86318 -2.08386,0.86318 -0.63253,0 -1.04564,-0.2177 -1.24213,-0.65274 v 3.43129 l -1.70533,0.56843 v -15.13568 h 1.137 l 0.37889,0.65253 c 0.11183,-0.1826 0.31891,-0.33694 0.62088,-0.46302 0.30163,-0.12637 0.5715,-0.18951 0.81069,-0.18951 0.81315,0 1.50812,0.28776 2.08386,0.86335 0.57538,0.57534 0.86324,1.26986 0.86324,2.08361 v 5.89453" />
      <path
         id="path9273"
         style="fill:none;stroke:#02a7ea;stroke-width:0.24694446;stroke-linecap:round;stroke-linejoin:round;stroke-miterlimit:4;stroke-dasharray:none;stroke-opacity:1"
         d="m 88.107138,208.94638 0.250119,0.0865" />
      <path
         id="path9275"
         style="fill:none;stroke:#02a7ea;stroke-width:0.24694446;stroke-linecap:round;stroke-linejoin:round;stroke-miterlimit:4;stroke-dasharray:0.5337387, 1.0674774;stroke-dashoffset:0;stroke-opacity:1"
         d="m 89.366202,209.38157 7.062964,2.43981" />
      <path
         id="path9277"
         style="fill:none;stroke:#02a7ea;stroke-width:0.24694446;stroke-linecap:round;stroke-linejoin:round;stroke-miterlimit:4;stroke-dasharray:none;stroke-opacity:1"
         d="m 96.933638,211.99544 0.25012,0.0864" />
      <path
         id="path9279"
         style="fill:none;stroke:#02a7ea;stroke-width:0.24694446;stroke-linecap:round;stroke-linejoin:round;stroke-miterlimit:4;stroke-dasharray:none;stroke-opacity:1"
         d="m 97.488558,212.61143 0.06033,0.2577" />
      <path
         id="path9281"
         style="fill:none;stroke:#02a7ea;stroke-width:0.24694446;stroke-linecap:round;stroke-linejoin:round;stroke-miterlimit:4;stroke-dasharray:0.49678875, 0.99357751;stroke-dashoffset:0;stroke-opacity:1"
         d="m 97.774308,213.83677 1.24072,5.322" />
      <path
         id="path9283"
         style="fill:none;stroke:#02a7ea;stroke-width:0.24694446;stroke-linecap:round;stroke-linejoin:round;stroke-miterlimit:4;stroke-dasharray:none;stroke-opacity:1"
         d="m 99.127564,219.64246 0.06032,0.25767" />
      <path
         id="path9285"
         style="fill:none;stroke:#02a7ea;stroke-width:0.24694446;stroke-linecap:round;stroke-linejoin:round;stroke-miterlimit:4;stroke-dasharray:none;stroke-opacity:1"
         d="m 87.193443,208.94638 -0.250119,0.0865" />
      <path
         id="path9287"
         style="fill:none;stroke:#02a7ea;stroke-width:0.24694446;stroke-linecap:round;stroke-linejoin:round;stroke-miterlimit:4;stroke-dasharray:0.53375987, 1.06751621;stroke-dashoffset:0;stroke-opacity:1"
         d="m 85.934379,209.38157 -7.062964,2.43981" />
      <path
         id="path9289"
         style="fill:none;stroke:#02a7ea;stroke-width:0.24694446;stroke-linecap:round;stroke-linejoin:round;stroke-miterlimit:4;stroke-dasharray:none;stroke-opacity:1"
         d="m 78.366837,211.99544 -0.250261,0.0864" />
      <path
         id="path9291"
         style="fill:none;stroke:#02a7ea;stroke-width:0.24694446;stroke-linecap:round;stroke-linejoin:round;stroke-miterlimit:10;stroke-dasharray:0.5291667, 1.0583334;stroke-dashoffset:0;stroke-opacity:1"
         d="m 77.812023,212.61143 -1.69926,7.2887" />
      <path
         id="path9293"
         style="fill:none;stroke:#02a7ea;stroke-width:0.24694446;stroke-linecap:round;stroke-linejoin:round;stroke-miterlimit:4;stroke-dasharray:none;stroke-opacity:1"
         d="m 77.813258,228.24968 -0.06008,-0.25771" />
      <path
         id="path9295"
         style="fill:none;stroke:#02a7ea;stroke-width:0.24694446;stroke-linecap:round;stroke-linejoin:round;stroke-miterlimit:4;stroke-dasharray:0.49680992, 0.99361984;stroke-dashoffset:0;stroke-opacity:1"
         d="m 77.527755,227.02434 -1.240649,-5.32243" />
      <path
         id="path9297"
         style="fill:none;stroke:#02a7ea;stroke-width:0.24694446;stroke-linecap:round;stroke-linejoin:round;stroke-miterlimit:4;stroke-dasharray:none;stroke-opacity:1"
         d="m 76.174499,221.21822 -0.06022,-0.25767" />
      <path
         id="path9299"
         style="fill:none;stroke:#02a7ea;stroke-width:0.24694446;stroke-linecap:round;stroke-linejoin:round;stroke-miterlimit:4;stroke-dasharray:none;stroke-opacity:1"
         d="m 97.490675,228.24968 0.05997,-0.25771" />
      <path
         id="path9301"
         style="fill:none;stroke:#02a7ea;stroke-width:0.24694446;stroke-linecap:round;stroke-linejoin:round;stroke-miterlimit:4;stroke-dasharray:0.49681345, 0.9936269;stroke-dashoffset:0;stroke-opacity:1"
         d="m 97.776425,227.02434 1.240719,-5.32243" />
      <path
         id="path9303"
         style="fill:none;stroke:#02a7ea;stroke-width:0.24694446;stroke-linecap:round;stroke-linejoin:round;stroke-miterlimit:4;stroke-dasharray:none;stroke-opacity:1"
         d="m 99.12968,221.21822 0.05997,-0.25767" />
      <path
         id="path9305"
         style="fill:none;stroke:#02a7ea;stroke-width:0.24694446;stroke-linecap:round;stroke-linejoin:round;stroke-miterlimit:4;stroke-dasharray:none;stroke-opacity:1"
         d="m 78.118235,228.77885 0.242675,0.10541" />
      <path
         id="path9307"
         style="fill:none;stroke:#02a7ea;stroke-width:0.24694446;stroke-linecap:round;stroke-linejoin:round;stroke-miterlimit:4;stroke-dasharray:0.66864446, 1.33728539;stroke-dashoffset:0;stroke-opacity:1"
         d="m 79.587554,229.41646 1.226961,0.53234" />
      <path
         id="path9309"
         style="fill:none;stroke:#02a7ea;stroke-width:0.24694446;stroke-linecap:round;stroke-linejoin:round;stroke-miterlimit:4;stroke-dasharray:none;stroke-opacity:1"
         d="m 81.427996,230.21476 0.242711,0.10541 -0.144639,0.22161" />
      <path
         id="path9311"
         style="fill:none;stroke:#02a7ea;stroke-width:0.24694446;stroke-linecap:round;stroke-linejoin:round;stroke-miterlimit:4;stroke-dasharray:0.50290239, 1.00580831;stroke-dashoffset:0;stroke-opacity:1"
         d="m 80.976087,231.38404 -3.023094,4.63267" />
      <path
         id="path9313"
         style="fill:none;stroke:#02a7ea;stroke-width:0.24694446;stroke-linecap:round;stroke-linejoin:round;stroke-miterlimit:4;stroke-dasharray:none;stroke-opacity:1"
         d="m 77.678074,236.43798 -0.144533,0.22159 0.245956,-0.0976" />
      <path
         id="path9315"
         style="fill:none;stroke:#02a7ea;stroke-width:0.24694446;stroke-linecap:round;stroke-linejoin:round;stroke-miterlimit:4;stroke-dasharray:0.54363059, 1.08725765;stroke-dashoffset:0;stroke-opacity:1"
         d="m 78.790276,236.16127 17.688279,-7.01106" />
      <path
         id="path9317"
         style="fill:none;stroke:#02a7ea;stroke-width:0.24694446;stroke-linecap:round;stroke-linejoin:round;stroke-miterlimit:4;stroke-dasharray:none;stroke-opacity:1"
         d="m 96.983733,228.94998 0.246239,-0.0974" />
      <path
         id="path9319"
         style="fill:#02a7ea;fill-opacity:1;fill-rule:nonzero;stroke:none;stroke-width:0.03527778"
         d="m 88.510363,208.95259 c 0,0.47611 -0.385939,0.86265 -0.862542,0.86265 -0.47625,0 -0.862541,-0.38654 -0.862541,-0.86265 0,-0.47706 0.386291,-0.86293 0.862541,-0.86293 0.476603,0 0.862542,0.38587 0.862542,0.86293" />
      <path
         id="path9321"
         style="fill:#02a7ea;fill-opacity:1;fill-rule:nonzero;stroke:none;stroke-width:0.03527778"
         d="m 100.04514,220.58184 c 0,0.47586 -0.386293,0.8624 -0.862896,0.8624 -0.476603,0 -0.862542,-0.38654 -0.862542,-0.8624 0,-0.47706 0.385939,-0.86293 0.862542,-0.86293 0.476603,0 0.862896,0.38587 0.862896,0.86293" />
      <path
         id="path9323"
         style="fill:#02a7ea;fill-opacity:1;fill-rule:nonzero;stroke:none;stroke-width:0.03527778"
         d="m 76.987158,220.58184 c 0,0.47586 -0.386574,0.8624 -0.862929,0.8624 -0.476533,0 -0.863071,-0.38654 -0.863071,-0.8624 0,-0.47706 0.386538,-0.86293 0.863071,-0.86293 0.476355,0 0.862929,0.38587 0.862929,0.86293" />
      <path
         id="path9325"
         style="fill:#02a7ea;fill-opacity:1;fill-rule:nonzero;stroke:none;stroke-width:0.03527778"
         d="m 78.412733,212.32067 c 0,0.28578 -0.231528,0.51703 -0.517454,0.51703 -0.286244,0 -0.517737,-0.23125 -0.517737,-0.51703 0,-0.28639 0.231493,-0.51746 0.517737,-0.51746 0.285926,0 0.517454,0.23107 0.517454,0.51746" />
      <path
         id="path9327"
         style="fill:#02a7ea;fill-opacity:1;fill-rule:nonzero;stroke:none;stroke-width:0.03527778"
         d="m 97.91683,212.32067 c 0,0.28578 -0.231775,0.51703 -0.517878,0.51703 -0.285397,0 -0.517525,-0.23125 -0.517525,-0.51703 0,-0.28639 0.232128,-0.51746 0.517525,-0.51746 0.286103,0 0.517878,0.23107 0.517878,0.51746" />
      <path
         id="path9329"
         style="fill:#02a7ea;fill-opacity:1;fill-rule:nonzero;stroke:none;stroke-width:0.03527778"
         d="m 78.412733,228.54732 c 0,0.28596 -0.231528,0.51773 -0.517454,0.51773 -0.286244,0 -0.517737,-0.23177 -0.517737,-0.51773 0,-0.28551 0.231493,-0.5177 0.517737,-0.5177 0.285926,0 0.517454,0.23219 0.517454,0.5177" />
      <path
         id="path9331"
         style="fill:#02a7ea;fill-opacity:1;fill-rule:nonzero;stroke:none;stroke-width:0.03527778"
         d="m 97.91683,228.54732 c 0,0.28596 -0.231775,0.51773 -0.517878,0.51773 -0.285397,0 -0.517525,-0.23177 -0.517525,-0.51773 0,-0.28551 0.232128,-0.5177 0.517525,-0.5177 0.286103,0 0.517878,0.23219 0.517878,0.5177" />
      <path
         id="path9333"
         style="fill:#02a7ea;fill-opacity:1;fill-rule:nonzero;stroke:none;stroke-width:0.03527778"
         d="m 78.456407,236.63573 c 0,0.4768 -0.386256,0.86306 -0.863071,0.86306 -0.476532,0 -0.862647,-0.38626 -0.862647,-0.86306 0,-0.4768 0.386115,-0.86266 0.862647,-0.86266 0.476815,0 0.863071,0.38586 0.863071,0.86266" />
      <path
         id="path9335"
         style="fill:#014b72;fill-opacity:1;fill-rule:nonzero;stroke:none;stroke-width:0.03527778"
         d="m 49.299604,214.68082 -2.189727,11.78913 h -1.578666 l -2.126312,-11.78913 h 1.86104 l 1.087823,7.21473 1.082576,-7.21473 h 1.863266" />
      <path
         id="path9337"
         style="fill:#014b72;fill-opacity:1;fill-rule:nonzero;stroke:none;stroke-width:0.03527778"
         d="m 54.920201,223.52274 v -5.89457 c 0,-0.33665 -0.12319,-0.62812 -0.368335,-0.87383 -0.245569,-0.24557 -0.536892,-0.36861 -0.873266,-0.36861 -0.351261,0 -0.646042,0.12304 -0.884696,0.36861 -0.23869,0.24571 -0.35747,0.53718 -0.35747,0.87383 v 5.89457 c 0,0.35055 0.11878,0.64519 0.35747,0.88385 0.238654,0.23883 0.533435,0.35803 0.884696,0.35803 0.336374,0 0.627697,-0.1192 0.873266,-0.35803 0.245145,-0.23866 0.368335,-0.5333 0.368335,-0.88385 z m 1.705469,0 c 0,0.814 -0.288007,1.50851 -0.863353,2.08386 -0.575733,0.57534 -1.270423,0.86335 -2.083717,0.86335 -0.814705,0 -1.509254,-0.28801 -2.084564,-0.86335 -0.575345,-0.57535 -0.863212,-1.26986 -0.863212,-2.08386 v -5.89457 c 0,-0.81385 0.287867,-1.5084 0.863212,-2.08428 0.57531,-0.57548 1.269859,-0.86307 2.084564,-0.86307 0.813294,0 1.507984,0.28759 2.083717,0.86307 0.575346,0.57588 0.863353,1.27043 0.863353,2.08428 v 5.89457" />
      <path
         id="path9339"
         style="fill:#014b72;fill-opacity:1;fill-rule:nonzero;stroke:none;stroke-width:0.03527778"
         d="M 59.783032,226.46995 H 58.078127 V 215.5228 l 1.704905,-0.56843 v 11.51558" />
      <path
         id="path9341"
         style="fill:#014b72;fill-opacity:1;fill-rule:nonzero;stroke:none;stroke-width:0.03527778"
         d="m 67.150549,223.52274 c 0,0.814 -0.287867,1.50851 -0.863177,2.08386 -0.575486,0.57534 -1.270141,0.86335 -2.083893,0.86335 -0.814282,0 -1.508937,-0.28801 -2.084282,-0.86335 -0.57531,-0.57535 -0.863177,-1.26986 -0.863177,-2.08386 v -5.89457 c 0,-0.81385 0.287867,-1.5084 0.863177,-2.08428 0.575345,-0.57548 1.27,-0.86307 2.084282,-0.86307 0.813752,0 1.508407,0.28759 2.083893,0.86307 0.57531,0.57588 0.863177,1.27043 0.863177,2.08428 v 0.50465 h -1.705293 v -0.50465 c 0,-0.33665 -0.123084,-0.62812 -0.36837,-0.87383 -0.245569,-0.24557 -0.536752,-0.36861 -0.873407,-0.36861 -0.350979,0 -0.645725,0.12304 -0.884414,0.36861 -0.23869,0.24571 -0.357611,0.53718 -0.357611,0.87383 v 5.89457 c 0,0.35055 0.118921,0.64519 0.357611,0.88385 0.238689,0.23883 0.533435,0.35803 0.884414,0.35803 0.336655,0 0.627838,-0.1192 0.873407,-0.35803 0.245286,-0.23866 0.36837,-0.5333 0.36837,-0.88385 v -0.19033 l 1.705293,-0.56776 v 0.75809" />
      <path
         id="path9343"
         style="fill:#014b72;fill-opacity:1;fill-rule:nonzero;stroke:none;stroke-width:0.03527778"
         d="m 72.476682,217.62817 c 0,-0.33665 -0.12319,-0.62812 -0.368194,-0.87383 -0.245709,-0.24557 -0.536751,-0.36861 -0.873548,-0.36861 -0.35112,0 -0.645901,0.12304 -0.884555,0.36861 -0.238548,0.24571 -0.357611,0.53718 -0.357611,0.87383 v 3.22076 c 1.010391,-0.57492 1.655833,-1.02429 1.936821,-1.34747 0.364631,-0.42083 0.547087,-1.04549 0.547087,-1.87329 z m 1.705469,5.89457 c 0,0.814 -0.287725,1.50851 -0.86307,2.08386 -0.575875,0.57534 -1.270706,0.86335 -2.084141,0.86335 -0.814423,0 -1.509113,-0.28801 -2.084423,-0.86335 -0.575204,-0.57535 -0.863071,-1.26986 -0.863071,-2.08386 v -5.89457 c 0,-0.81385 0.287867,-1.5084 0.863071,-2.08428 0.57531,-0.57548 1.27,-0.86307 2.084423,-0.86307 0.813435,0 1.508266,0.28759 2.084141,0.86307 0.575345,0.57588 0.86307,1.27043 0.86307,2.08428 0,0.96834 -0.130104,1.70145 -0.389572,2.19961 -0.259891,0.49844 -0.719349,0.9718 -1.37915,1.42078 -0.813858,0.51978 -1.620555,1.03861 -2.420655,1.55857 v 0.71561 c 0,0.35055 0.119063,0.64519 0.357611,0.88385 0.238654,0.23883 0.533435,0.35803 0.884555,0.35803 0.336797,0 0.627839,-0.1192 0.873548,-0.35803 0.245004,-0.23866 0.368194,-0.5333 0.368194,-0.88385 v -0.19033 l 1.705469,-0.56776 v 0.75809" />
      <path
         id="path9345"
         style="fill:#014b72;fill-opacity:1;fill-rule:nonzero;stroke:none;stroke-width:0.03527778"
         d="m 59.817604,212.43091 c 0,0.48119 -0.389714,0.87119 -0.87062,0.87119 -0.481083,0 -0.870797,-0.39 -0.870797,-0.87119 0,-0.48094 0.389714,-0.87037 0.870797,-0.87037 0.480906,0 0.87062,0.38943 0.87062,0.87037" />
    </g>
  </g>
</svg>
