<?xml version="1.0" encoding="utf-8"?>
<!-- Generator: Adobe Illustrator 26.0.3, SVG Export Plug-In . SVG Version: 6.00 Build 0)  -->
<svg version="1.1" id="Calque_1" xmlns="http://www.w3.org/2000/svg" xmlns:xlink="http://www.w3.org/1999/xlink" x="0px" y="0px"
	 viewBox="0 0 595.28 841.89" style="enable-background:new 0 0 595.28 841.89;" xml:space="preserve">
<style type="text/css">
	
		.st0{clip-path:url(#SVGID_00000109018800218391111540000003193628376241534860_);fill:url(#SVGID_00000084514910063974349190000012943580812569120649_);}
	
		.st1{clip-path:url(#SVGID_00000053542236128193481740000005597853951698139821_);fill:url(#SVGID_00000137121943873103713420000005352649379105804448_);}
	
		.st2{clip-path:url(#SVGID_00000105427793743837828480000012873571354115889808_);fill:url(#SVGID_00000143610799011319827560000016358276747025542828_);}
	
		.st3{clip-path:url(#SVGID_00000065792993000266389480000007286723798970629776_);fill:url(#SVGID_00000114751995037877345150000011647079244629665696_);}
	
		.st4{clip-path:url(#SVGID_00000096762130956198935920000016774638832866915503_);fill:url(#SVGID_00000065066910468871372380000000037353957832328631_);}
	.st5{clip-path:url(#SVGID_00000055703605364585579810000016700858221982246277_);fill:#B3B3B3;}
	
		.st6{clip-path:url(#SVGID_00000094586626259454906400000009543277720964959114_);fill:url(#SVGID_00000179646398835420424800000018049470684697968280_);}
	.st7{clip-path:url(#SVGID_00000111151820203207582050000002268329105437059995_);fill:#F08F22;}
	
		.st8{clip-path:url(#SVGID_00000111151820203207582050000002268329105437059995_);fill:none;stroke:#F08F22;stroke-width:7.5109;stroke-linejoin:bevel;stroke-miterlimit:10;}
	.st9{clip-path:url(#SVGID_00000111151820203207582050000002268329105437059995_);fill:#B3B3B3;}
</style>
<g>
	<g>
		<g>
			<defs>
				<path id="SVGID_1_" d="M-223.94,337.49h37.62c28.22,0,42.47,12.83,42.47,34.77c0,21.66-14.25,34.49-42.47,34.49h-37.62V337.49z
					 M-270.11,299.87v199.5h46.17v-55.01h40.19c53.3,0,86.64-27.64,86.64-72.1c0-44.74-33.35-72.39-86.64-72.39H-270.11z"/>
			</defs>
			<clipPath id="SVGID_00000074408228245957369530000004556319340134421431_">
				<use xlink:href="#SVGID_1_"  style="overflow:visible;"/>
			</clipPath>
		</g>
		<g>
			<defs>
				<polygon id="SVGID_00000103254888109101611080000013686448264763408542_" points="72.47,299.87 72.47,378.54 -18.16,378.54 
					-18.16,299.87 -64.33,299.87 -64.33,499.38 -18.16,499.38 -18.16,417.58 72.47,417.58 72.47,499.38 118.64,499.38 
					118.64,299.87 				"/>
			</defs>
			<clipPath id="SVGID_00000119116878918629074990000013607024432301665423_">
				<use xlink:href="#SVGID_00000103254888109101611080000013686448264763408542_"  style="overflow:visible;"/>
			</clipPath>
		</g>
		<g>
			<defs>
				<polygon id="SVGID_00000067225550247444334560000000490384684611338891_" points="165.95,299.87 165.95,499.38 320.43,499.38 
					320.43,462.32 211.84,462.32 211.84,416.15 304.47,416.15 304.47,380.24 211.84,380.24 211.84,336.92 316.72,336.92 
					316.72,299.87 				"/>
			</defs>
			<clipPath id="SVGID_00000039107831352576702200000001111410345236670378_">
				<use xlink:href="#SVGID_00000067225550247444334560000000490384684611338891_"  style="overflow:visible;"/>
			</clipPath>
		</g>
		<g>
			<defs>
				<polygon id="SVGID_00000163064127000589355290000010552778136371655334_" points="494.56,299.87 494.56,421 395.38,299.87 
					357.19,299.87 357.19,499.38 402.79,499.38 402.79,378.25 502.26,499.38 540.16,499.38 540.16,299.87 				"/>
			</defs>
			<clipPath id="SVGID_00000018937180564236841040000002877211539763377065_">
				<use xlink:href="#SVGID_00000163064127000589355290000010552778136371655334_"  style="overflow:visible;"/>
			</clipPath>
		</g>
		<g>
			<defs>
				<rect id="SVGID_00000020357922473776952650000012498108435481685393_" x="587.48" y="299.87" width="46.17" height="199.5"/>
			</defs>
			<clipPath id="SVGID_00000139994347650206674310000002043838686902746757_">
				<use xlink:href="#SVGID_00000020357922473776952650000012498108435481685393_"  style="overflow:visible;"/>
			</clipPath>
		</g>
		<g>
			<defs>
				
					<rect id="SVGID_00000008836950443280211880000003395665304359531176_" x="-270.11" y="299.87" width="1114.62" height="286.04"/>
			</defs>
			<clipPath id="SVGID_00000036250646084338613210000002200888632267274919_">
				<use xlink:href="#SVGID_00000008836950443280211880000003395665304359531176_"  style="overflow:visible;"/>
			</clipPath>
		</g>
		<g>
			<defs>
				<path id="SVGID_00000100380607423468004020000005020222295643050398_" d="M750.75,383.28c-27.41,21.54-58.75,48.95-67.4,115.79
					c28.93-83.84,87.6-97.61,115.43-116.63c27.83-19.02,36.9-53.7,22.47-82.51C810.72,343.28,778.16,361.74,750.75,383.28"/>
			</defs>
			<clipPath id="SVGID_00000040563417221999361020000013775494512214382724_">
				<use xlink:href="#SVGID_00000100380607423468004020000005020222295643050398_"  style="overflow:visible;"/>
			</clipPath>
		</g>
		<g>
			<defs>
				
					<rect id="SVGID_00000078759435326533248480000013530405020708694455_" x="-270.11" y="299.87" width="1114.62" height="286.04"/>
			</defs>
			<clipPath id="SVGID_00000062876790033485078970000005124440444385898921_">
				<use xlink:href="#SVGID_00000078759435326533248480000013530405020708694455_"  style="overflow:visible;"/>
			</clipPath>
		</g>
	</g>
	<g>
		<g>
			<defs>
				<path id="SVGID_00000025408161436371208220000002092085934373056640_" d="M-223.94,337.49h37.62
					c28.22,0,42.47,12.83,42.47,34.77c0,21.66-14.25,34.49-42.47,34.49h-37.62V337.49z M-270.11,299.87v199.5h46.17v-55.01h40.19
					c53.3,0,86.64-27.64,86.64-72.1c0-44.74-33.35-72.39-86.64-72.39H-270.11z"/>
			</defs>
			<clipPath id="SVGID_00000099626501409959137600000012998993690732199814_">
				<use xlink:href="#SVGID_00000025408161436371208220000002092085934373056640_"  style="overflow:visible;"/>
			</clipPath>
			
				<linearGradient id="SVGID_00000093134946784081533900000012176999813111883936_" gradientUnits="userSpaceOnUse" x1="-122.2373" y1="529.8422" x2="-120.914" y2="529.8422" gradientTransform="matrix(0 -150.7651 -150.7651 0 79698.1016 -17929.7383)">
				<stop  offset="0" style="stop-color:#F6AD3B"/>
				<stop  offset="0.7285" style="stop-color:#E9661B"/>
				<stop  offset="1" style="stop-color:#E9661B"/>
			</linearGradient>
			
				<rect x="-270.11" y="299.87" style="clip-path:url(#SVGID_00000099626501409959137600000012998993690732199814_);fill:url(#SVGID_00000093134946784081533900000012176999813111883936_);" width="173" height="199.5"/>
		</g>
		<g>
			<defs>
				<polygon id="SVGID_00000000921995811794837130000002283233681617629863_" points="72.47,299.87 72.47,378.54 -18.16,378.54 
					-18.16,299.87 -64.33,299.87 -64.33,499.38 -18.16,499.38 -18.16,417.58 72.47,417.58 72.47,499.38 118.64,499.38 
					118.64,299.87 				"/>
			</defs>
			<clipPath id="SVGID_00000014612669328567682000000015412369636713661355_">
				<use xlink:href="#SVGID_00000000921995811794837130000002283233681617629863_"  style="overflow:visible;"/>
			</clipPath>
			
				<linearGradient id="SVGID_00000142142088289551698520000015427806536380580789_" gradientUnits="userSpaceOnUse" x1="-122.2373" y1="529.5007" x2="-120.914" y2="529.5007" gradientTransform="matrix(0 -150.7651 -150.7651 0 79857.375 -17929.7383)">
				<stop  offset="0" style="stop-color:#F6AD3B"/>
				<stop  offset="0.7285" style="stop-color:#E9661B"/>
				<stop  offset="1" style="stop-color:#E9661B"/>
			</linearGradient>
			
				<rect x="-64.33" y="299.87" style="clip-path:url(#SVGID_00000014612669328567682000000015412369636713661355_);fill:url(#SVGID_00000142142088289551698520000015427806536380580789_);" width="182.97" height="199.5"/>
		</g>
		<g>
			<defs>
				<polygon id="SVGID_00000071524374418283971950000001534746471049803413_" points="165.95,299.87 165.95,499.38 320.43,499.38 
					320.43,462.32 211.84,462.32 211.84,416.15 304.47,416.15 304.47,380.24 211.84,380.24 211.84,336.92 316.72,336.92 
					316.72,299.87 				"/>
			</defs>
			<clipPath id="SVGID_00000047759211286154877980000013895363484062379708_">
				<use xlink:href="#SVGID_00000071524374418283971950000001534746471049803413_"  style="overflow:visible;"/>
			</clipPath>
			
				<linearGradient id="SVGID_00000169548810963758635150000016131799569990127256_" gradientUnits="userSpaceOnUse" x1="-122.2373" y1="529.1506" x2="-120.914" y2="529.1506" gradientTransform="matrix(0 -150.7651 -150.7651 0 80020.6328 -17929.7383)">
				<stop  offset="0" style="stop-color:#F6AD3B"/>
				<stop  offset="0.7285" style="stop-color:#E9661B"/>
				<stop  offset="1" style="stop-color:#E9661B"/>
			</linearGradient>
			
				<rect x="165.95" y="299.87" style="clip-path:url(#SVGID_00000047759211286154877980000013895363484062379708_);fill:url(#SVGID_00000169548810963758635150000016131799569990127256_);" width="154.48" height="199.5"/>
		</g>
		<g>
			<defs>
				<polygon id="SVGID_00000016057055101813420650000006351130834459973559_" points="494.56,299.87 494.56,421 395.38,299.87 
					357.19,299.87 357.19,499.38 402.79,499.38 402.79,378.25 502.26,499.38 540.16,499.38 540.16,299.87 				"/>
			</defs>
			<clipPath id="SVGID_00000171688190415110130120000006712394055301926324_">
				<use xlink:href="#SVGID_00000016057055101813420650000006351130834459973559_"  style="overflow:visible;"/>
			</clipPath>
			
				<linearGradient id="SVGID_00000092414595600024551440000017073995404629585043_" gradientUnits="userSpaceOnUse" x1="-122.2373" y1="528.8177" x2="-120.914" y2="528.8177" gradientTransform="matrix(0 -150.7651 -150.7651 0 80175.9219 -17929.7383)">
				<stop  offset="0" style="stop-color:#F6AD3B"/>
				<stop  offset="0.7285" style="stop-color:#E9661B"/>
				<stop  offset="1" style="stop-color:#E9661B"/>
			</linearGradient>
			
				<rect x="357.19" y="299.87" style="clip-path:url(#SVGID_00000171688190415110130120000006712394055301926324_);fill:url(#SVGID_00000092414595600024551440000017073995404629585043_);" width="182.97" height="199.5"/>
		</g>
		<g>
			<defs>
				<rect id="SVGID_00000056386454693715903610000008340249108877441708_" x="587.48" y="299.87" width="46.17" height="199.5"/>
			</defs>
			<clipPath id="SVGID_00000027575143241427499990000015448073563727464105_">
				<use xlink:href="#SVGID_00000056386454693715903610000008340249108877441708_"  style="overflow:visible;"/>
			</clipPath>
			
				<linearGradient id="SVGID_00000137133399507457495770000017349870428759609228_" gradientUnits="userSpaceOnUse" x1="-122.2373" y1="528.5554" x2="-120.914" y2="528.5554" gradientTransform="matrix(0 -150.7651 -150.7651 0 80298.2578 -17929.7383)">
				<stop  offset="0" style="stop-color:#F6AD3B"/>
				<stop  offset="0.7285" style="stop-color:#E9661B"/>
				<stop  offset="1" style="stop-color:#E9661B"/>
			</linearGradient>
			
				<rect x="587.48" y="299.87" style="clip-path:url(#SVGID_00000027575143241427499990000015448073563727464105_);fill:url(#SVGID_00000137133399507457495770000017349870428759609228_);" width="46.17" height="199.5"/>
		</g>
		<g>
			<defs>
				
					<rect id="SVGID_00000045617238343432443040000009396234145184355986_" x="-270.11" y="299.87" width="1114.62" height="286.04"/>
			</defs>
			<clipPath id="SVGID_00000163788873032292337950000007630395153957436301_">
				<use xlink:href="#SVGID_00000045617238343432443040000009396234145184355986_"  style="overflow:visible;"/>
			</clipPath>
			<path style="clip-path:url(#SVGID_00000163788873032292337950000007630395153957436301_);fill:#B3B3B3;" d="M738.05,408.64
				l-65.54-108.71h44.1l50.97,85.06 M790.78,418.35l48.32,81.02h-44.82l-34.16-61.27"/>
		</g>
		<g>
			<defs>
				<path id="SVGID_00000176724873833050235650000011745266795795698617_" d="M750.75,383.28c-27.41,21.54-58.75,48.95-67.4,115.79
					c28.93-83.84,87.6-97.61,115.43-116.63c27.83-19.02,36.9-53.7,22.47-82.51C810.72,343.28,778.16,361.74,750.75,383.28"/>
			</defs>
			<clipPath id="SVGID_00000099652497516878331460000013364366393117998213_">
				<use xlink:href="#SVGID_00000176724873833050235650000011745266795795698617_"  style="overflow:visible;"/>
			</clipPath>
			
				<linearGradient id="SVGID_00000169526792583835148080000011997763151396086975_" gradientUnits="userSpaceOnUse" x1="-122.2372" y1="528.2936" x2="-120.9139" y2="528.2936" gradientTransform="matrix(0 -150.4889 -150.4889 0 80261.8438 -17896.2812)">
				<stop  offset="0" style="stop-color:#F6AD3B"/>
				<stop  offset="0.7285" style="stop-color:#E9661B"/>
				<stop  offset="1" style="stop-color:#E9661B"/>
			</linearGradient>
			
				<rect x="683.34" y="299.93" style="clip-path:url(#SVGID_00000099652497516878331460000013364366393117998213_);fill:url(#SVGID_00000169526792583835148080000011997763151396086975_);" width="152.32" height="199.14"/>
		</g>
		<g>
			<defs>
				
					<rect id="SVGID_00000118360885280676019590000012517010184203306686_" x="-270.11" y="299.87" width="1114.62" height="286.04"/>
			</defs>
			<clipPath id="SVGID_00000109011302223466803580000009492250784722485168_">
				<use xlink:href="#SVGID_00000118360885280676019590000012517010184203306686_"  style="overflow:visible;"/>
			</clipPath>
			<path style="clip-path:url(#SVGID_00000109011302223466803580000009492250784722485168_);fill:#F08F22;" d="M686.44,499.38
				c15.71-50.66,51.82-76.11,75.45-87.56c23.63-11.45,69.85-29.72,82.62-44.18c-1.23,32.13-16.45,53.02-50.07,61.25
				C760.84,437.12,712.87,454.99,686.44,499.38"/>
			
				<line style="clip-path:url(#SVGID_00000109011302223466803580000009492250784722485168_);fill:none;stroke:#F08F22;stroke-width:7.5109;stroke-linejoin:bevel;stroke-miterlimit:10;" x1="844.51" y1="518.43" x2="-270.11" y2="518.43"/>
			<path style="clip-path:url(#SVGID_00000109011302223466803580000009492250784722485168_);fill:#B3B3B3;" d="M-229.79,550.82
				c0,11.12-8.02,17.78-21.33,17.78h-15.13v17.32h-3.86v-52.95h18.99C-237.81,532.97-229.79,539.62-229.79,550.82 M-233.73,550.82
				c0-9.15-6.05-14.37-17.4-14.37h-15.13v28.67h15.13C-239.78,565.11-233.73,559.89-233.73,550.82"/>
			<path style="clip-path:url(#SVGID_00000109011302223466803580000009492250784722485168_);fill:#B3B3B3;" d="M-59.9,571.01h-30.71
				l-6.73,14.9h-4.16l24.36-52.95h3.86l24.36,52.95h-4.16L-59.9,571.01z M-61.34,567.76l-13.92-30.56l-13.84,30.56H-61.34z"/>
			<path style="clip-path:url(#SVGID_00000109011302223466803580000009492250784722485168_);fill:#B3B3B3;" d="M124.21,585.91
				l-12.63-17.7c-1.66,0.23-3.33,0.38-5.14,0.38H91.3v17.32h-3.86v-52.95h18.99c13.31,0,21.33,6.66,21.33,17.85
				c0,8.4-4.54,14.22-12.4,16.56l13.24,18.53H124.21z M106.43,565.19c11.35,0,17.4-5.29,17.4-14.37c0-9.15-6.05-14.37-17.4-14.37
				H91.3v28.74H106.43z"/>
			<polygon style="clip-path:url(#SVGID_00000109011302223466803580000009492250784722485168_);fill:#B3B3B3;" points="
				278.06,536.45 259,536.45 259,532.97 300.98,532.97 300.98,536.45 281.92,536.45 281.92,585.91 278.06,585.91 			"/>
			<polygon style="clip-path:url(#SVGID_00000109011302223466803580000009492250784722485168_);fill:#B3B3B3;" points="
				480.4,532.97 480.4,585.91 477.22,585.91 441.14,539.92 441.14,585.91 437.28,585.91 437.28,532.97 440.54,532.97 476.54,578.95 
				476.54,532.97 			"/>
			<polygon style="clip-path:url(#SVGID_00000109011302223466803580000009492250784722485168_);fill:#B3B3B3;" points="
				662.16,582.43 662.16,585.91 625.63,585.91 625.63,532.96 661.03,532.96 661.03,536.45 629.48,536.45 629.48,557.32 
				657.7,557.32 657.7,560.72 629.48,560.72 629.48,582.43 			"/>
			<path style="clip-path:url(#SVGID_00000109011302223466803580000009492250784722485168_);fill:#B3B3B3;" d="M839.76,585.91
				l-12.63-17.7c-1.66,0.23-3.33,0.38-5.14,0.38h-15.13v17.32H803v-52.95h18.99c13.31,0,21.33,6.66,21.33,17.85
				c0,8.4-4.54,14.22-12.4,16.56l13.24,18.53H839.76z M821.99,565.19c11.35,0,17.4-5.29,17.4-14.37c0-9.15-6.05-14.37-17.4-14.37
				h-15.13v28.74H821.99z"/>
		</g>
	</g>
	<g>
		<g>
			<defs>
				<path id="SVGID_00000109708929684948497570000005514900841979357082_" d="M-223.94,337.49h37.62
					c28.22,0,42.47,12.83,42.47,34.77c0,21.66-14.25,34.49-42.47,34.49h-37.62V337.49z M-270.11,299.87v199.5h46.17v-55.01h40.19
					c53.3,0,86.64-27.64,86.64-72.1c0-44.74-33.35-72.39-86.64-72.39H-270.11z"/>
			</defs>
			<clipPath id="SVGID_00000061460175700914321160000001880530717045760384_">
				<use xlink:href="#SVGID_00000109708929684948497570000005514900841979357082_"  style="overflow:visible;"/>
			</clipPath>
		</g>
		<g>
			<defs>
				<polygon id="SVGID_00000031208249383831448760000017716931728001949059_" points="72.47,299.87 72.47,378.54 -18.16,378.54 
					-18.16,299.87 -64.33,299.87 -64.33,499.38 -18.16,499.38 -18.16,417.58 72.47,417.58 72.47,499.38 118.64,499.38 
					118.64,299.87 				"/>
			</defs>
			<clipPath id="SVGID_00000036214967345575270420000006375215988359552952_">
				<use xlink:href="#SVGID_00000031208249383831448760000017716931728001949059_"  style="overflow:visible;"/>
			</clipPath>
		</g>
		<g>
			<defs>
				<polygon id="SVGID_00000114033365421739468000000008468265175548455565_" points="165.95,299.87 165.95,499.38 320.43,499.38 
					320.43,462.32 211.84,462.32 211.84,416.15 304.47,416.15 304.47,380.24 211.84,380.24 211.84,336.92 316.72,336.92 
					316.72,299.87 				"/>
			</defs>
			<clipPath id="SVGID_00000008113455047744088560000006124738598633638296_">
				<use xlink:href="#SVGID_00000114033365421739468000000008468265175548455565_"  style="overflow:visible;"/>
			</clipPath>
		</g>
		<g>
			<defs>
				<polygon id="SVGID_00000170968735939506959770000011095771311443227266_" points="494.56,299.87 494.56,421 395.38,299.87 
					357.19,299.87 357.19,499.38 402.79,499.38 402.79,378.25 502.26,499.38 540.16,499.38 540.16,299.87 				"/>
			</defs>
			<clipPath id="SVGID_00000005964530316322982590000018108363354176276643_">
				<use xlink:href="#SVGID_00000170968735939506959770000011095771311443227266_"  style="overflow:visible;"/>
			</clipPath>
		</g>
		<g>
			<defs>
				<rect id="SVGID_00000081615686411100792190000004832152320328741505_" x="587.48" y="299.87" width="46.17" height="199.5"/>
			</defs>
			<clipPath id="SVGID_00000163753135574464460640000015315708928844201102_">
				<use xlink:href="#SVGID_00000081615686411100792190000004832152320328741505_"  style="overflow:visible;"/>
			</clipPath>
		</g>
		<g>
			<defs>
				
					<rect id="SVGID_00000018227083885845307730000013594169138250694821_" x="-270.11" y="299.87" width="1114.62" height="286.04"/>
			</defs>
			<clipPath id="SVGID_00000054957091365757483660000017666609688736084100_">
				<use xlink:href="#SVGID_00000018227083885845307730000013594169138250694821_"  style="overflow:visible;"/>
			</clipPath>
		</g>
		<g>
			<defs>
				<path id="SVGID_00000129890860725893076190000011406205593062711182_" d="M750.75,383.28c-27.41,21.54-58.75,48.95-67.4,115.79
					c28.93-83.84,87.6-97.61,115.43-116.63c27.83-19.02,36.9-53.7,22.47-82.51C810.72,343.28,778.16,361.74,750.75,383.28"/>
			</defs>
			<clipPath id="SVGID_00000092414468353999600340000003529206514607102634_">
				<use xlink:href="#SVGID_00000129890860725893076190000011406205593062711182_"  style="overflow:visible;"/>
			</clipPath>
		</g>
		<g>
			<defs>
				
					<rect id="SVGID_00000124844646249435883850000006330109839334471846_" x="-270.11" y="299.87" width="1114.62" height="286.04"/>
			</defs>
			<clipPath id="SVGID_00000025433687864131449960000005300137314943810706_">
				<use xlink:href="#SVGID_00000124844646249435883850000006330109839334471846_"  style="overflow:visible;"/>
			</clipPath>
		</g>
	</g>
</g>
</svg>
