<svg width="150" height="76" viewBox="0 0 150 76" fill="none" xmlns="http://www.w3.org/2000/svg">
<path d="M12.299 47.6361L16.6771 64.3266C16.7489 64.6132 16.6771 64.7564 16.39 64.7564H13.8062C13.5909 64.7564 13.5191 64.6848 13.4474 64.3266L11.9401 58.7393H4.76288L3.25566 64.3983C3.18388 64.6848 3.11211 64.8281 2.89679 64.8281H0.312977C0.0258869 64.8281 -0.0458857 64.7564 0.0258869 64.3983L4.47579 47.7077C5.26529 44.9857 5.69593 44.6275 8.27974 44.6275C11.1506 44.6275 11.5813 44.914 12.299 47.6361ZM7.49024 48.5673L5.55238 55.8739H11.2224L9.35633 48.5673C9.06924 47.6361 9.06924 47.4928 8.35151 47.4928C7.77733 47.4928 7.70556 47.5645 7.49024 48.5673Z" fill="#213757"/>
<path d="M33.3284 51.1461C33.3284 56.5903 31.4623 57.4499 25.864 57.4499H22.706V64.3983C22.706 64.6848 22.6343 64.7565 22.3472 64.7565H19.8351C19.548 64.7565 19.4763 64.6848 19.4763 64.3983V45.2006C19.4763 44.914 19.548 44.8424 19.8351 44.8424C21.8448 44.6991 24.1415 44.6275 25.864 44.6275C31.3905 44.6275 33.3284 45.8453 33.3284 51.1461ZM22.706 47.5645V54.7278H25.5769C29.1656 54.7278 30.0986 54.4413 30.0986 51.2178C30.0986 48.1375 29.1656 47.5645 25.5769 47.5645H22.706Z" fill="#213757"/>
<path d="M50.1232 51.1461C50.1232 56.5903 48.2571 57.4499 42.6588 57.4499H39.5008V64.3983C39.5008 64.6848 39.4291 64.7565 39.142 64.7565H36.6299C36.3428 64.7565 36.2711 64.6848 36.2711 64.3983V45.2006C36.2711 44.914 36.3428 44.8424 36.6299 44.8424C38.6396 44.6991 40.9363 44.6275 42.6588 44.6275C48.2571 44.6275 50.1232 45.8453 50.1232 51.1461ZM39.5008 47.5645V54.7278H42.3717C45.9604 54.7278 46.8934 54.4413 46.8934 51.2178C46.8934 48.1375 45.9604 47.5645 42.3717 47.5645H39.5008Z" fill="#213757"/>
<path d="M56.0085 44.7708C56.2956 44.7708 56.3674 44.914 56.3674 45.1289V61.8195H65.0519C65.339 61.8195 65.4108 61.9628 65.4108 62.1777V64.3267C65.4108 64.6132 65.2672 64.6848 65.0519 64.6848H53.4965C53.2094 64.6848 53.1376 64.5416 53.1376 64.3267V45.1289C53.1376 44.8424 53.2812 44.7708 53.4965 44.7708H56.0085Z" fill="#213757"/>
<path d="M71.009 44.7708C71.2961 44.7708 71.3679 44.914 71.3679 45.1289V64.3267C71.3679 64.6132 71.2244 64.7565 71.009 64.7565H68.5688C68.2817 64.7565 68.2099 64.6132 68.2099 64.3267V45.1289C68.2099 44.8424 68.3534 44.7708 68.5688 44.7708H71.009Z" fill="#213757"/>
<path d="M100.077 44.7708C100.364 44.7708 100.436 44.8424 100.436 45.2006L97.1343 61.8195C96.6319 64.5415 96.1294 64.8997 93.6174 64.8997C90.7465 64.8997 90.4594 64.5415 89.8135 61.8195L87.3732 50.8596L84.8611 61.7478C84.2152 64.4699 83.9281 64.8281 81.0572 64.8281C78.5452 64.8281 78.1145 64.4699 77.5403 61.7478L74.3106 45.1289C74.2388 44.7708 74.3106 44.6991 74.6694 44.6991H77.2532C77.4686 44.6991 77.5403 44.7708 77.6121 45.1289L80.5548 60.4585C80.6983 61.3897 80.9137 61.533 81.3443 61.533C81.8467 61.533 81.9902 61.3181 82.2056 60.4585L85.6506 45.8453C85.7224 45.4871 85.9377 45.4155 86.1531 45.4155H88.5933C88.8086 45.4155 89.024 45.4871 89.0957 45.8453L92.5408 60.4585C92.7561 61.3897 92.8997 61.533 93.4021 61.533C93.8327 61.533 93.9763 61.3181 94.1916 60.4585L97.1343 45.1289C97.206 44.7708 97.2778 44.6991 97.4931 44.6991H100.077V44.7708Z" fill="#213757"/>
<path d="M112.924 47.6361L117.302 64.3267C117.374 64.6132 117.302 64.7565 117.015 64.7565H114.431C114.216 64.7565 114.144 64.6848 114.073 64.3267L112.565 58.6676H105.388L103.881 64.3267C103.809 64.6132 103.737 64.7565 103.522 64.7565H100.938C100.651 64.7565 100.579 64.6848 100.651 64.3267L105.101 47.6361C105.891 44.914 106.321 44.5559 108.905 44.5559C111.848 44.6275 112.207 44.914 112.924 47.6361ZM108.115 48.5673L106.178 55.8739H111.848L109.982 48.4957C109.694 47.5645 109.694 47.4212 108.977 47.4212C108.403 47.4928 108.403 47.5645 108.115 48.5673Z" fill="#213757"/>
<path d="M120.03 44.7708C120.245 44.7708 120.317 44.8424 120.389 45.2006L124.48 61.0315C124.767 61.9627 124.838 62.106 125.269 62.106C125.772 62.106 125.915 61.8911 126.13 61.0315L130.078 45.2006C130.15 44.8424 130.15 44.7708 130.437 44.7708H133.021C133.308 44.7708 133.379 44.8424 133.308 45.2006L129.145 61.8195C128.499 64.5415 128.14 64.8997 125.341 64.8997C122.757 64.8997 122.326 64.6132 121.609 61.8195L117.302 45.2006C117.231 44.8424 117.302 44.7708 117.589 44.7708H120.03Z" fill="#213757"/>
<path d="M148.595 44.7708C148.882 44.7708 149.026 44.914 149.026 45.1289V47.2779C149.026 47.5645 148.882 47.6361 148.595 47.6361H139.265V53.51H147.806C148.093 53.51 148.165 53.6533 148.165 53.8682V55.9456C148.165 56.2321 148.021 56.3037 147.806 56.3037H139.265V61.7479H148.595C148.882 61.7479 149.026 61.8911 149.026 62.106V64.255C149.026 64.5415 148.882 64.6132 148.595 64.6132H136.394C136.179 64.6132 136.035 64.4699 136.035 64.255V45.1289C136.035 44.8424 136.179 44.7708 136.394 44.7708H148.595Z" fill="#213757"/>
<path d="M98.3544 71.2034C99.3592 71.2034 99.5028 71.5616 99.5028 72.851C99.5028 74.1404 99.3592 74.4986 98.3544 74.4986C97.3496 74.4986 97.206 74.1404 97.206 72.851C97.206 71.5616 97.4214 71.2034 98.3544 71.2034ZM98.3544 70.702C96.9907 70.702 96.6319 71.2034 96.6319 72.851C96.6319 74.4986 96.9907 75 98.3544 75C99.7181 75 100.077 74.4986 100.077 72.851C100.149 71.2034 99.7899 70.702 98.3544 70.702ZM92.8997 70.702C92.8279 70.702 92.8279 70.702 92.8279 70.7736V74.8567C92.8279 74.9284 92.8279 74.9284 92.8997 74.9284H95.5553C95.6271 74.9284 95.627 74.9284 95.627 74.8567V74.4986C95.627 74.4269 95.6271 74.4269 95.5553 74.4269H93.4021V73.1375H95.4117C95.4835 73.1375 95.4835 73.1375 95.4835 73.0659V72.7077C95.4835 72.6361 95.4835 72.6361 95.4117 72.6361H93.4021V71.2034H95.5553C95.6271 71.2034 95.627 71.2034 95.627 71.1318V70.7736C95.627 70.702 95.6271 70.702 95.5553 70.702H92.8997ZM88.5216 70.702C88.4498 70.702 88.4498 70.702 88.4498 70.7736V71.1318C88.4498 71.2034 88.4498 71.2034 88.5216 71.2034H89.8135V74.8567C89.8135 74.9284 89.8135 74.9284 89.8852 74.9284H90.3159C90.3876 74.9284 90.3876 74.9284 90.3876 74.8567V71.2034H91.6796C91.7513 71.2034 91.7513 71.2034 91.7513 71.1318V70.7736C91.7513 70.702 91.7513 70.702 91.6796 70.702H88.5216ZM85.9377 71.2034C86.8708 71.2034 87.0861 71.3467 87.0861 72.063C87.0861 72.851 86.8708 72.9226 85.9377 72.9226H85.2918V71.2034H85.9377ZM86.0095 70.702C85.7224 70.702 85.22 70.702 84.7894 70.7736C84.7176 70.7736 84.7176 70.7736 84.7176 70.8453V74.9284C84.7176 75 84.7176 75 84.7894 75H85.22C85.2918 75 85.2918 75 85.2918 74.9284V73.4241H86.0095C87.3014 73.4241 87.7321 73.2808 87.7321 72.063C87.6603 70.9169 87.2297 70.702 86.0095 70.702ZM80.6983 70.702C80.6266 70.702 80.6266 70.702 80.6266 70.7736V74.8567C80.6266 74.9284 80.6266 74.9284 80.6983 74.9284H83.3539C83.4257 74.9284 83.4257 74.9284 83.4257 74.8567V74.4986C83.4257 74.4269 83.4257 74.4269 83.3539 74.4269H81.2007V73.1375H83.2104C83.2822 73.1375 83.2822 73.1375 83.2822 73.0659V72.7077C83.2822 72.6361 83.2822 72.6361 83.2104 72.6361H81.2007V71.2034H83.3539C83.4257 71.2034 83.4257 71.2034 83.4257 71.1318V70.7736C83.4257 70.702 83.4257 70.702 83.3539 70.702H80.6983ZM78.0427 70.702C77.2533 70.702 76.5355 70.8453 76.5355 71.7049V71.8481C76.5355 72.2779 76.6073 72.6361 77.0379 72.7794L78.4016 73.3524C78.7605 73.4957 78.8323 73.639 78.8323 73.9971V74.0688C78.8323 74.4269 78.6169 74.5702 78.1145 74.5702H76.5355C76.4638 74.5702 76.4638 74.5702 76.4638 74.6418V74.9284C76.4638 75 76.4638 75 76.5355 75C77.0379 75.0716 77.4686 75.0716 77.8992 75.0716C78.6887 75.0716 79.4064 74.9284 79.4064 74.0688V73.8539C79.4064 73.4241 79.2629 73.0659 78.7605 72.851L77.5403 72.3496C77.1815 72.2063 77.1097 72.063 77.1097 71.7765V71.7049C77.1097 71.3467 77.325 71.2034 77.8274 71.2034H79.1193C79.1911 71.2034 79.1911 71.2034 79.1911 71.1318V70.8453C79.1911 70.7736 79.1911 70.7736 79.1193 70.7736C78.6887 70.702 78.5452 70.702 78.0427 70.702ZM71.0808 70.702C71.009 70.702 71.009 70.702 71.009 70.7736V74.8567C71.009 74.9284 71.009 74.9284 71.0808 74.9284H73.7364C73.8082 74.9284 73.8082 74.9284 73.8082 74.8567V74.4986C73.8082 74.4269 73.8082 74.4269 73.7364 74.4269H71.5832V73.1375H73.5928C73.6646 73.1375 73.6646 73.1375 73.6646 73.0659V72.7077C73.6646 72.6361 73.6646 72.6361 73.5928 72.6361H71.5832V71.2034H73.7364C73.8082 71.2034 73.8082 71.2034 73.8082 71.1318V70.7736C73.8082 70.702 73.8082 70.702 73.7364 70.702H71.0808ZM68.0664 71.2034C68.9994 71.2034 69.2147 71.3467 69.2147 72.063C69.2147 72.851 68.9994 72.9226 68.0664 72.9226H67.4204V71.2034H68.0664ZM68.1381 70.702C67.851 70.702 67.3486 70.702 66.918 70.7736C66.8462 70.7736 66.8462 70.7736 66.8462 70.8453V74.9284C66.8462 75 66.8462 75 66.918 75H67.3486C67.4204 75 67.4204 75 67.4204 74.9284V73.4241H68.1381C69.43 73.4241 69.8607 73.2808 69.8607 72.063C69.8607 70.9169 69.43 70.702 68.1381 70.702ZM64.9801 70.702C64.9084 70.702 64.9084 70.702 64.9084 70.7736V72.851C64.9084 74.1404 64.693 74.4986 63.76 74.4986C62.8987 74.4986 62.6116 74.1404 62.6116 72.851V70.7736C62.6116 70.702 62.6116 70.702 62.5399 70.702H62.1092C62.0375 70.702 62.0375 70.702 62.0375 70.7736V72.851C62.0375 74.5702 62.3963 75 63.76 75C65.1237 75 65.4825 74.5702 65.4825 72.851V70.7736C65.4825 70.702 65.4825 70.702 65.4108 70.702H64.9801ZM59.0948 71.2034C60.0996 71.2034 60.2431 71.5616 60.2431 72.851C60.2431 74.1404 60.0996 74.4986 59.0948 74.4986C58.09 74.4986 57.9464 74.1404 57.9464 72.851C57.9464 71.5616 58.1617 71.2034 59.0948 71.2034ZM59.0948 70.702C57.7311 70.702 57.3722 71.2034 57.3722 72.851C57.3722 74.4986 57.7311 75 59.0948 75C60.4585 75 60.8173 74.4986 60.8173 72.851C60.8891 71.2034 60.5302 70.702 59.0948 70.702ZM54.5013 71.2034C55.4344 71.2034 55.6497 71.3467 55.6497 72.063C55.6497 72.851 55.4344 72.9226 54.5013 72.9226H53.8554V71.2034H54.5013ZM54.5731 70.702C54.286 70.702 53.7836 70.702 53.353 70.7736C53.2812 70.7736 53.2812 70.7736 53.2812 70.8453V74.9284C53.2812 75 53.2812 75 53.353 75H53.7836C53.8554 75 53.8554 75 53.8554 74.9284V73.4241H54.7166L55.6497 74.9284C55.7215 75 55.7215 75.0716 55.865 75.0716H56.2239C56.2956 75.0716 56.3674 75 56.2956 74.9284L55.3626 73.4241C56.0803 73.3524 56.2956 73.0659 56.2956 72.1347C56.2956 70.9169 55.865 70.702 54.5731 70.702ZM50.6256 70.702C49.2619 70.702 48.9031 71.2034 48.9031 72.851C48.9031 74.4986 49.2619 75 50.6256 75C51.128 75 51.9175 75 51.9893 74.7135C51.9893 74.7135 51.9893 74.6418 51.9893 74.5702V72.9226C51.9893 72.851 51.9893 72.851 51.9175 72.851H51.5587C51.4869 72.851 51.4869 72.851 51.4869 72.9226V74.4986H50.6256C49.6208 74.4986 49.4772 74.1404 49.4772 72.851C49.4772 71.5616 49.6208 71.2034 50.6256 71.2034H51.7022C51.774 71.2034 51.774 71.2034 51.774 71.1318V70.8453C51.774 70.7736 51.774 70.7736 51.7022 70.7736C51.4869 70.702 50.9845 70.702 50.6256 70.702Z" fill="#EC6608"/>
<path d="M83.4257 11.3897L57.8746 36.9628H61.4633L85.2918 13.1805C85.3636 13.1089 85.3636 12.9656 85.2918 12.894L83.7845 11.3897C83.641 11.2464 83.4975 11.2464 83.4257 11.3897Z" fill="#EC6608"/>
<path d="M58.3053 18.2665L76.6073 0H73.0187L56.511 16.4756C56.4392 16.5473 56.4392 16.6905 56.511 16.7622L58.0182 18.2665C58.09 18.4097 58.2335 18.4097 58.3053 18.2665Z" fill="#EC6608"/>
<path d="M87.0861 14.9714L65.1237 36.9628H68.7123L88.8804 16.8338C88.9522 16.7622 88.9522 16.6189 88.8804 16.5473L87.3732 15.043C87.3014 14.8997 87.1579 14.8997 87.0861 14.9714Z" fill="#EC6608"/>
<path d="M90.6747 18.6246L72.3727 36.9628H75.9613L92.5408 20.4155C92.6126 20.3438 92.6126 20.2006 92.5408 20.1289L91.0336 18.6246C90.89 18.553 90.8183 18.553 90.6747 18.6246Z" fill="#EC6608"/>
<path d="M60.1713 20.4155L61.6786 21.9198C61.7503 21.9914 61.8939 21.9914 61.9657 21.9198L83.8563 0H80.2677L60.1713 20.1289C60.0278 20.2006 60.0278 20.3438 60.1713 20.4155Z" fill="#EC6608"/>
<path d="M63.76 24.0688L65.2672 25.5731C65.339 25.6447 65.4825 25.6447 65.5543 25.5731L91.1771 0H87.5885L63.76 23.7106C63.6882 23.8539 63.6882 23.9255 63.76 24.0688Z" fill="#EC6608"/>
</svg>
