<svg xmlns="http://www.w3.org/2000/svg" width="140.9" height="63.291" viewBox="0 0 140.9 63.291"><path d="M75.501 30.954a11.922 11.922 0 0 1 1.223-.859c.393-.252.877-.527 1.435-.823s1.194-.6 1.894-.894a24.616 24.616 0 0 1 4.882-1.523l.086-.015.044-.007c.061-.016-.5.127-.257.064h.01l.02-.007.168-.047.342-.091c.228-.061.462-.108.7-.159s.469-.1.711-.145a5.291 5.291 0 0 0 .562-.163c.36-.117.736-.2 1.121-.346.386-.178.762-.385 1.154-.576a11.1 11.1 0 0 0 1.087-.719 7.13 7.13 0 0 0 1.02-.825 9.2 9.2 0 0 0 .945-.909 11.989 11.989 0 0 0 .871-.969c.262-.343.533-.674.779-1.016l.68-1.037a21.73 21.73 0 0 0 1.1-2.029c.325-.645.573-1.265.793-1.814s.383-1.045.518-1.454c.262-.819.369-1.294.369-1.294l.47.037s.023.514-.018 1.405c-.021.445-.063.986-.147 1.6a19.76 19.76 0 0 1-.371 2.073 23.669 23.669 0 0 1-.694 2.425l-.512 1.3c-.2.434-.427.87-.649 1.322a14.872 14.872 0 0 1-.785 1.325 9.438 9.438 0 0 1-.944 1.29 10.018 10.018 0 0 1-1.094 1.225 15.26 15.26 0 0 1-1.229 1.137l-1.343 1.034c-.481.328-1.016.627-1.533.936-.252.142-.545.325-.769.428s-.444.195-.667.287-.441.187-.663.268l-.333.122-.166.056-.021.008h-.01l-.278.071-.043.01-.084.018a24.7 24.7 0 0 1-5.1.418c-.76-.008-1.463-.051-2.091-.117s-1.18-.137-1.639-.224a12.275 12.275 0 0 1-1.456-.337l-.091-.464z" fill="#0f1d63"/><path d="M69.134 11.572a24.476 24.476 0 0 0-3.056-1.629 30.323 30.323 0 0 0-3.7-1.4c-.719-.248-1.515-.4-2.335-.6a21.3 21.3 0 0 0-2.624-.321 14.576 14.576 0 0 0-5.73.683 8.034 8.034 0 0 0-1.422.571l-.71.316a7.679 7.679 0 0 0-.671.412l-.671.428-.336.213-.085.053-.041.027c-.021.014.1-.076.041-.03l-.022.018-.168.141-.677.569-.482.529a10.44 10.44 0 0 0-1.666 2.67 12.363 12.363 0 0 0-.827 3.137 9.379 9.379 0 0 0 1.371 6.124 9.194 9.194 0 0 0 4.982 3.6 20.079 20.079 0 0 0 6.443.8 49.162 49.162 0 0 0 6.421-.482c1.039-.108 2.045-.315 3.022-.5.987-.135 1.931-.367 2.844-.555 1.828-.369 3.5-.811 5-1.159l3.889-.991c2.157-.585 3.442-.849 3.442-.849l.2.43s-1.051.763-2.978 1.975c-.959.615-2.181 1.254-3.578 2.013-.7.388-1.481.7-2.287 1.091l-1.251.577c-.432.187-.887.345-1.347.523a41.105 41.105 0 0 1-6.116 1.925c-.561.127-1.124.277-1.708.391l-1.791.267a14.111 14.111 0 0 1-1.856.183c-.633.024-1.26.1-1.917.071a19.994 19.994 0 0 1-8.021-1.59 13.629 13.629 0 0 1-6.631-5.784 12.945 12.945 0 0 1-1.4-8.537 14.629 14.629 0 0 1 1.338-3.975 13.242 13.242 0 0 1 2.445-3.3l.8-.719.719-.517.179-.128.109-.077.052-.029.1-.057.419-.226.83-.445a9.116 9.116 0 0 1 .827-.418l.866-.314a9.562 9.562 0 0 1 1.718-.519 16.507 16.507 0 0 1 6.505-.207 23 23 0 0 1 2.785.6c.851.288 1.671.52 2.4.843a26.81 26.81 0 0 1 3.68 1.8 25.157 25.157 0 0 1 2.947 1.987l-.276.383z" fill="#006cb0"/><path d="M51.695 17.199s.241-.693.765-1.852a33.876 33.876 0 0 1 2.588-4.619 27.8 27.8 0 0 1 4.987-5.732 19.644 19.644 0 0 1 3.6-2.522 18.776 18.776 0 0 1 4.28-1.743 20.135 20.135 0 0 1 4.636-.715c.78-.046 1.548.016 2.314.047.753.091 1.5.219 2.219.36.7.212 1.4.39 2.061.633.645.271 1.271.542 1.872.824a22.26 22.26 0 0 1 3.138 1.926c.463.326.89.661 1.294.976.382.346.752.656 1.079.977l.922.878c.27.286.5.569.717.812.851.991 1.281 1.6 1.281 1.6l-.24.293s-.709-.268-1.853-.811c-.566-.282-1.261-.6-2.057-.942-.4-.168-.8-.379-1.238-.582-.447-.176-.914-.358-1.387-.571a13.528 13.528 0 0 0-1.495-.592c-.517-.189-1.044-.4-1.589-.592a36.146 36.146 0 0 1-1.68-.539c-.581-.136-1.16-.308-1.754-.472l-1.812-.416c-.619-.068-1.244-.233-1.88-.276a12.461 12.461 0 0 0-1.931-.061 13.581 13.581 0 0 0-1.951.185 16.028 16.028 0 0 0-3.773 1.16 19.738 19.738 0 0 0-3.414 1.913 25.9 25.9 0 0 0-2.912 2.346 32.162 32.162 0 0 0-2.364 2.445 38.016 38.016 0 0 0-3.071 4.126c-.676 1.055-1.006 1.684-1.006 1.684l-.346-.151z" fill="#f2e20c"/><path d="M5.473 48.473H20.62v11.365a3.917 3.917 0 0 0 .748 2.631 2.447 2.447 0 0 0 1.956.821 2.569 2.569 0 0 0 1.987-.821 3.768 3.768 0 0 0 .782-2.63V34.448a3.769 3.769 0 0 0-.771-2.619 2.581 2.581 0 0 0-2-.81 2.472 2.472 0 0 0-1.949.814 3.843 3.843 0 0 0-.754 2.614v9.761H5.473v-9.761a3.77 3.77 0 0 0-.77-2.619 2.586 2.586 0 0 0-2-.81 2.462 2.462 0 0 0-1.967.809 3.921 3.921 0 0 0-.737 2.619v25.391a3.926 3.926 0 0 0 .747 2.631 2.452 2.452 0 0 0 1.957.821 2.575 2.575 0 0 0 1.988-.821 3.777 3.777 0 0 0 .781-2.63V48.473zm40.962 1.737H34.403l.06-.581a8.231 8.231 0 0 1 1.886-4.89 5.33 5.33 0 0 1 4.068-1.718 5.5 5.5 0 0 1 4.176 1.693 7.825 7.825 0 0 1 1.8 4.93l.04.566zM40.616 39.9a12.941 12.941 0 0 0-4.732.832 9.53 9.53 0 0 0-3.545 2.364 10.415 10.415 0 0 0-2.2 3.715 14.465 14.465 0 0 0-.761 4.762 11.821 11.821 0 0 0 3.06 8.579c2.027 2.081 4.924 3.138 8.612 3.138a13.439 13.439 0 0 0 4.3-.632 10.5 10.5 0 0 0 3.077-1.575 7.1 7.1 0 0 0 1.791-1.939 3.419 3.419 0 0 0 .567-1.636 1.3 1.3 0 0 0-.4-1.033 1.645 1.645 0 0 0-1.145-.373 1.487 1.487 0 0 0-.975.268 66.498 66.498 0 0 1-1.82 1.667 13.722 13.722 0 0 1-1.6 1.2 6.987 6.987 0 0 1-1.867.856 7.783 7.783 0 0 1-2.111.274 6.046 6.046 0 0 1-5.535-3.431 8.5 8.5 0 0 1-.883-3.841l-.007-.533h12.272a7.637 7.637 0 0 0 3.407-.612c.681-.352 1.012-1.158 1.012-2.466a9.613 9.613 0 0 0-1.191-4.544 9.3 9.3 0 0 0-3.574-3.63 11.218 11.218 0 0 0-5.765-1.411zm21.732 14.109l4.784 7.032a9.784 9.784 0 0 0 1.538 1.781 2.118 2.118 0 0 0 1.412.471 2.358 2.358 0 0 0 1.611-.555 1.557 1.557 0 0 0 .608-1.226 5.1 5.1 0 0 0-1.181-2.446l-5.647-8.094 5.041-6.79a9.57 9.57 0 0 0 .932-1.408 2.318 2.318 0 0 0 .263-1.069 1.55 1.55 0 0 0-.6-1.216 2.387 2.387 0 0 0-1.623-.542 2.1 2.1 0 0 0-1.39.451 10.014 10.014 0 0 0-1.545 1.791l-4.2 5.915-4.324-5.911a10.628 10.628 0 0 0-1.533-1.78 2.062 2.062 0 0 0-1.4-.467 2.262 2.262 0 0 0-1.6.544 1.589 1.589 0 0 0-.576 1.214 4.393 4.393 0 0 0 1.141 2.468l5.049 6.8-5.647 8.094a4.879 4.879 0 0 0-1.136 2.4 1.624 1.624 0 0 0 .623 1.243 2.294 2.294 0 0 0 1.595.581 2.016 2.016 0 0 0 1.363-.445 10.91 10.91 0 0 0 1.55-1.819l4.9-7.021zm20.653 6.402a4.349 4.349 0 0 1-3.062-1.1 3.565 3.565 0 0 1-1.2-2.706 3.05 3.05 0 0 1 1.069-2.46 5.287 5.287 0 0 1 2.051-1.1c.653-.171 1.8-.431 3.509-.8a29.868 29.868 0 0 0 3.765-1l.71-.261v1.613a9.563 9.563 0 0 1-.888 4.754 5.743 5.743 0 0 1-2.421 2.21 7.581 7.581 0 0 1-3.528.84zm6.847-.756l.308.5a12.39 12.39 0 0 0 1.828 2.413 2.161 2.161 0 0 0 1.458.72 2.37 2.37 0 0 0 1.62-.629 1.7 1.7 0 0 0 .689-1.283 10.274 10.274 0 0 0-.538-2.21 12.64 12.64 0 0 1-.584-3.681 455.068 455.068 0 0 0 .044-6.858 12.494 12.494 0 0 0-.886-5.144 5.234 5.234 0 0 0-2.921-2.691 16.348 16.348 0 0 0-6.021-.894 15.326 15.326 0 0 0-5.71.927 7.566 7.566 0 0 0-3.271 2.291 4.579 4.579 0 0 0-1.016 2.76 1.591 1.591 0 0 0 .557 1.264 2.028 2.028 0 0 0 1.4.516c.833 0 1.026-.181 1.057-.217.214-.255.593-.8 1.128-1.63a6.12 6.12 0 0 1 2.167-2.088 7.714 7.714 0 0 1 3.693-.7c1.967 0 3.25.432 3.927 1.318a6.7 6.7 0 0 1 1.058 3.786l.018.414-.4.116c-1.268.369-2.456.685-3.531.94s-2.382.542-3.9.851c-1.5.3-2.445.5-2.822.59a7.32 7.32 0 0 0-4.012 2.169 5.5 5.5 0 0 0-1.428 3.846 5.915 5.915 0 0 0 .871 3.112 6.181 6.181 0 0 0 2.485 2.279 8.165 8.165 0 0 0 3.812.852 11.292 11.292 0 0 0 4.358-.806 18.049 18.049 0 0 0 4.089-2.469l.467-.361zm8.577-19.184a2.666 2.666 0 0 0-1.738.479 1.41 1.41 0 0 0-.527 1.148 1.493 1.493 0 0 0 .508 1.169 2.373 2.373 0 0 0 1.624.48h1.32v12.047a17.281 17.281 0 0 0 .434 4.326 3.835 3.835 0 0 0 1.679 2.311 7.41 7.41 0 0 0 3.977.86 10.264 10.264 0 0 0 4.32-.715 1.889 1.889 0 0 0 1.286-1.747 1.443 1.443 0 0 0-.427-1.068 1.3 1.3 0 0 0-.936-.427 7.019 7.019 0 0 0-1.3.175 7.868 7.868 0 0 1-1.536.2 2.3 2.3 0 0 1-1.787-.647 2.722 2.722 0 0 1-.659-1.517 18.144 18.144 0 0 1-.1-2.232V43.747h1.648a5.706 5.706 0 0 0 2.5-.428 1.2 1.2 0 0 0 .669-1.22 1.482 1.482 0 0 0-.5-1.159 2.333 2.333 0 0 0-1.593-.468h-2.724v-4.617a12.152 12.152 0 0 0-.156-2.237 2 2 0 0 0-.621-1.113 2.438 2.438 0 0 0-1.707-.717 2.337 2.337 0 0 0-1.209.314 2.161 2.161 0 0 0-.818.806 2.862 2.862 0 0 0-.361 1.2c-.049.524-.075 1.274-.075 2.225v4.134zm30.058 9.739h-12.034l.06-.581a8.235 8.235 0 0 1 1.887-4.89 5.327 5.327 0 0 1 4.068-1.718 5.5 5.5 0 0 1 4.176 1.693 7.839 7.839 0 0 1 1.8 4.93l.041.566zm-5.821-10.31a12.949 12.949 0 0 0-4.733.832 9.522 9.522 0 0 0-3.543 2.364 10.394 10.394 0 0 0-2.2 3.715 14.493 14.493 0 0 0-.763 4.762 11.829 11.829 0 0 0 3.061 8.581c2.026 2.08 4.924 3.136 8.613 3.136a13.428 13.428 0 0 0 4.3-.632 10.517 10.517 0 0 0 3.077-1.575 7.118 7.118 0 0 0 1.793-1.939 3.436 3.436 0 0 0 .565-1.636 1.3 1.3 0 0 0-.393-1.033 1.65 1.65 0 0 0-1.145-.373 1.487 1.487 0 0 0-.975.267c-.748.7-1.35 1.256-1.822 1.667a13.8 13.8 0 0 1-1.6 1.2 6.966 6.966 0 0 1-1.868.856 7.794 7.794 0 0 1-2.112.274 6.049 6.049 0 0 1-5.536-3.431 8.517 8.517 0 0 1-.882-3.841l-.006-.533h12.28a7.641 7.641 0 0 0 3.406-.612c.681-.352 1.012-1.158 1.012-2.466a9.6 9.6 0 0 0-1.193-4.544 9.268 9.268 0 0 0-3.572-3.63 11.22 11.22 0 0 0-5.766-1.411zm15.731-8.881a2.2 2.2 0 0 0-1.767.741 3.576 3.576 0 0 0-.673 2.381v26.028a3.5 3.5 0 0 0 .695 2.357 2.189 2.189 0 0 0 1.746.764 2.33 2.33 0 0 0 1.8-.744 3.427 3.427 0 0 0 .7-2.377V34.141a3.454 3.454 0 0 0-.7-2.381 2.313 2.313 0 0 0-1.808-.741z" fill="#0f1d63"/></svg>