<svg height="640" preserveAspectRatio="xMidYMid meet" viewBox="0 0 640 640" width="640" xmlns="http://www.w3.org/2000/svg" xmlns:xlink="http://www.w3.org/1999/xlink"><defs><path id="a" d="m451.06 419.06c-8.2-.15-14.8-6.76-14.95-14.95 0-17.4 0-156.59 0-173.99.15-8.2 6.75-14.8 14.95-14.96h173.99c8.19.16 14.8 6.76 14.95 14.96v173.99c-.15 8.19-6.76 14.8-14.95 14.95-34.8 0-156.59 0-173.99 0z"/><path id="b" d="m478.7 263.36c-2.28 2.11-3.38 5.2-2.95 8.27v96.68c-.06 3.04.99 6 2.95 8.33 2.29 2.01 5.27 3.06 8.32 2.94 3.02.01 5.94-1.03 8.27-2.94 2.13-2.24 3.26-5.24 3.12-8.33 0-9.67 0-87.01 0-96.68-.02-3.04-1.12-5.97-3.12-8.27-2.32-1.88-5.22-2.9-8.21-2.89-3.05-.04-6.01.98-8.38 2.89zm83.54-2.89c-2.61 0-23.45 0-26.06 0-3.02-.03-5.97.99-8.32 2.89-2.26 2.1-3.36 5.16-2.95 8.22v96.28c-.02 3 1.03 5.91 2.95 8.21 2.27 2.01 5.23 3.07 8.27 2.95 3.03.01 5.98-1.03 8.32-2.95 2.02-2.25 3.07-5.2 2.95-8.21 0-1.81 0-10.85 0-27.13h15.4c11.41.38 22.5-3.84 30.76-11.72 8.19-7.24 12.76-17.74 12.46-28.66-.34-10.77-5.04-20.93-13.03-28.15-8.29-7.77-19.35-11.98-30.75-11.73zm0 60.38c-1.03 0-6.16 0-15.41 0v-40.5h15.35c5.46-.35 10.83 1.55 14.84 5.27 3.73 3.94 5.66 9.25 5.32 14.67.33 5.6-1.59 11.1-5.32 15.29-3.96 3.72-9.32 5.62-14.78 5.27z"/><path id="c" d="m257.08 379.41c-23.49-.37-42.23-19.71-41.87-43.19.01-.12.01-.24.01-.36 0-3.07 0-27.58 0-30.64-.44-24.27 18.88-44.3 43.15-44.74.12 0 .23 0 .35-.01h9.29c24.33.44 43.75 20.42 43.49 44.75.1 15.77-12.54 28.67-28.31 28.88-3.07 0-18.38 0-45.94 0v1.76c-.19 11.45 8.89 20.9 20.34 21.18h28.31c6.15.15 11.05 5.18 11.05 11.33-.65 6-5.53 10.66-11.56 11.04-5.66 0-25.48 0-28.31 0zm1.07-96.28c-12.18.34-21.78 10.47-21.46 22.65v7.08h45.31c3.56-.08 6.39-3.03 6.31-6.6-.01-.14-.01-.28-.03-.42.16-12.07-9.4-22.03-21.46-22.37-.58-.04-3.47-.25-8.67-.62z"/><path id="d" d="m397.25 368.08c0-6.34 0-57.09 0-63.43.1-11.95-9.51-21.71-21.46-21.8-.04 0-.08 0-.12 0-1.83 0-16.51 0-18.35 0-9.98.12-18.01 8.25-18.01 18.23v66.55c1.32 6.12-2.56 12.14-8.68 13.46s-12.14-2.56-13.46-8.68c-.34-1.57-.34-3.2 0-4.78 0-6.65 0-59.89 0-66.55-.06-22.27 17.88-40.42 40.15-40.61h18.64c23.86.03 43.19 19.41 43.16 43.27v.29 63.6c.53 5.95-3.86 11.21-9.81 11.74-.25.02-.49.04-.73.04-6.26 0-11.33-5.07-11.33-11.33z"/><path id="e" d="m107.61 413.57c0-.06 0-.12 0-.18 0-11.6 0-104.44 0-116.04-.25-19.84 15.51-36.19 35.34-36.65h11.95c27.54.71 49.38 23.44 48.99 50.97v11.33c.39 27.54-21.45 50.26-48.99 50.98-1.71 0-10.26 0-25.65 0v39.64c-.12 5.98-4.85 10.83-10.82 11.1-6.07-.09-10.91-5.08-10.82-11.15zm21.64-62.08h25.65c15.37-.28 27.61-12.95 27.36-28.32 0-1.13 0-10.19 0-11.33.22-15.35-12-28-27.36-28.31-1.19 0-10.75 0-11.95 0-7.64.24-13.71 6.51-13.7 14.15z"/><path id="f" d="m41.91 379.41c-23.55-.4-42.31-19.82-41.91-43.37 0-.06 0-.12 0-.18 0-3.18 0-28.65 0-31.83-.5-23.55 18.18-43.05 41.73-43.55.06 0 .12 0 .18-.01h12.46c23.55.41 42.32 19.82 41.92 43.37 0 .06-.01.13-.01.19v31.83c.51 23.55-18.17 43.04-41.72 43.55-.06 0-.13 0-.19 0 0 0-11.21 0-12.46 0zm0-96.28c-11.45.18-20.58 9.61-20.39 21.06v.12 31.55c-.25 11.44 8.82 20.93 20.27 21.18h.12 12.46c11.45-.18 20.58-9.61 20.39-21.06 0-.04 0-.08 0-.12 0-3.18 0-28.65 0-31.83.25-11.45-8.82-20.93-20.27-21.18-.04 0-.08 0-.12 0-2.49.05-9.97.22-12.46.28z"/></defs><use fill="#fff" xlink:href="#a"/><use fill="none" xlink:href="#a"/><use xlink:href="#b"/><use fill="none" xlink:href="#b"/><use fill="#fff" xlink:href="#c"/><use fill="none" xlink:href="#c"/><use fill="#fff" xlink:href="#d"/><use fill="none" xlink:href="#d"/><use fill="#fff" xlink:href="#e"/><use fill="none" xlink:href="#e"/><use fill="#fff" xlink:href="#f"/><use fill="none" xlink:href="#f"/></svg>